<?xml version="1.0" encoding="utf-8"?>
<!-- Generator: Adobe Illustrator 25.2.1, SVG Export Plug-In . SVG Version: 6.00 Build 0)  -->
<svg version="1.1" id="Camada_1" xmlns="http://www.w3.org/2000/svg" xmlns:xlink="http://www.w3.org/1999/xlink" x="0px" y="0px"
	 viewBox="0 0 144 31" style="enable-background:new 0 0 144 31;" xml:space="preserve">
<style type="text/css">
	.st0{fill:#0C0C0C;}
</style>
<path class="st0" d="M3.1,28.7c0.9,0.1,2.9,0,5.6-0.3c2-0.2,32.3-0.4,41.3-0.2c2.4,0.1,6.1,0.1,8.1,0.2c3.7,0.1,4,0.1,8.8,0.3
	c1.5,0.1,4.5,0.2,6.6,0.2c2.1,0,4.4,0.1,5.1,0.1s4.6,0.1,8.6,0.2c4,0.1,7.3,0.2,7.4,0.2c0.1,0,1.5,0.1,3.2,0.1
	c1.7,0,3.6,0.2,4.2,0.3c1,0.2,2.3,0.2,8.2,0.1c8.3-0.1,16-0.1,16.2,0c0.1,0,2,0.1,4.3,0.1c5.5,0,6.2,0.1,7.2,0.7
	c0.8,0.5,0.9,0.5,1.8,0.4c1,0,1.1-0.1,1.6-0.6c0.4-0.4,0.6-0.8,0.6-1.1c0-0.3,0.2-0.9,0.4-1.3c0.3-0.6,0.4-1.4,0.3-4.2
	c0-1.9-0.1-3.9-0.2-4.6c-0.1-1.2-0.1-1.2,0.4-1.6c0.8-0.6,1.2-1.3,1-1.7c-0.1-0.2-0.1-0.4,0-0.5c0.1-0.1,0.2-0.3,0.1-0.5
	c-0.1-0.2-0.2-0.5-0.2-0.7c-0.2-1.2-0.6-1.9-1.1-2.6c-0.3-0.3-0.2-0.4,0-1c0.2-0.4,0.4-0.7,0.5-0.8c0.1-0.1,0.1-0.2,0.1-0.3
	c-0.1,0-0.2-0.3-0.2-0.6c-0.1-1.2-0.4-2.2-0.7-2.3c-0.2-0.1-0.3-0.3-0.3-0.3c0-0.1-0.3-0.2-0.6-0.4c-0.5-0.2-0.6-0.4-0.6-0.7
	c0-0.3-0.1-0.5-0.2-0.6c-0.1,0-0.2-0.2-0.2-0.4c0-0.2-0.2-0.6-0.5-0.9c-0.3-0.3-0.8-0.9-1.1-1.4c-0.8-1.2-1.6-1.8-2.3-1.8
	c-1,0-2.5,0.2-3.2,0.3c-0.4,0.1-0.8,0.1-0.9,0.1c-0.1,0-0.4,0-0.7,0.1c-0.5,0.2-2.8,0.2-6,0c-0.5,0-2.4-0.1-4.1-0.1
	c-1.7,0-3.4-0.1-3.8-0.2c-0.4-0.1-2.2-0.1-4.1-0.1c-2.7,0-3.5,0-3.6,0.2c-0.2,0.1-0.2,0.1-0.4,0c-0.2-0.2-1.8-0.2-6.8-0.2
	c-7.4,0-10.8,0.1-11.2,0.1c-0.2,0-0.8,0-1.3,0c-0.6-0.1-1.4-0.1-2.6,0.1c-1,0.1-1.9,0.1-2,0.1c-0.1-0.1-1-0.1-1.9-0.1
	c-0.9,0-2.6,0.1-3.7,0.1c-3.8,0.1-5.6,0.2-5.8,0.2c-0.1,0-0.3,0-0.3,0c-0.1-0.1-0.5-0.1-1.1-0.1c-1.8,0.1-5.7,0.1-6.3,0
	c-0.4-0.1-0.7-0.1-0.9,0c-0.2,0.1-1,0.2-1.8,0.2c-0.8,0-2.1,0.1-3,0.1c-1.9,0.1-4,0.2-12.5,0.2c-3.7,0-8.8,0.1-11.4,0.1
	c-2.6,0-5.7,0.1-6.8,0.1c-1.1,0-3,0.1-4.1,0.1c-1.1,0-3,0.1-4.1,0.1c-1.1,0-3,0.1-4.2,0.1C14.9,2,14.9,2,15,1c0.3-1.8-1.1-1.2-2.4,1
	c-0.4,0.7-0.5,0.8-1.1,1.6c-0.4,0.6-0.7,0.6-3.2,0.6c-1.9,0-2.7-0.3-3.1-0.9C4.7,2.6,4.3,3,4.1,4.7C4.1,5.5,3.9,6.5,3.7,7
	c-0.2,0.5-0.3,0.9-0.3,1c0,0-0.1,0.3-0.2,0.5C3.1,8.7,2.9,9.2,2.7,9.5c-0.2,0.5-0.4,0.7-0.8,0.8c-0.3,0.1-0.9,0.3-1.2,0.4L0,11.1
	l0.2,1.4c0.1,0.8,0.3,1.9,0.4,2.6c0.2,0.9,0.3,1.1,0.7,1.3c0.7,0.2,0.8,0.4,0.7,1.1c-0.2,1-0.3,1.2-0.5,1.4
	c-0.1,0.2-0.2,0.4-0.1,0.6c0.6,1.6,0.8,7.3,0.3,7.6C1.2,27.4,2.4,28.6,3.1,28.7z M104.7,23.8c-0.7,0-1.1-0.2-0.5-0.3
	c0.2,0,0.5-0.2,0.7-0.2c0.2-0.1,0.5-0.1,0.6-0.1C106.1,23.3,105.5,23.8,104.7,23.8z M137.8,24.1l-2.7,0c-1.5,0-3.1,0-3.7-0.1
	c-1.2,0-1.3-0.2-0.2-0.4c2.5-0.6,6.1-2,6.1-2.4c0-0.1,0.1-0.1,0.2-0.1c0.1,0,0.2,0.7,0.2,1.5L137.8,24.1z"/>
</svg>
