<?xml version="1.0" encoding="utf-8"?>
<!-- Generator: Adobe Illustrator 25.2.1, SVG Export Plug-In . SVG Version: 6.00 Build 0)  -->
<svg version="1.1" id="Camada_1" xmlns="http://www.w3.org/2000/svg" xmlns:xlink="http://www.w3.org/1999/xlink" x="0px" y="0px"
	 viewBox="0 0 217 198" style="enable-background:new 0 0 217 198;" xml:space="preserve">
<style type="text/css">
	.st0{fill:#F7F7F7;}
</style>
<path class="st0" d="M209.2,69.5c0.6-4.3,1.5-13.6,1.7-19.3c0.1-2.6,0.3-6.5,0.5-8.5c0.4-5.5,0.8-15,0.8-17.8
	c-0.1-4.5-1.4-12.2-2.2-13.3c-0.2-0.3,0-0.7,0.4-0.9c1.4-0.8,1.5-1.7,0.3-2.6c-0.6-0.5-1.3-0.9-1.6-0.9c-0.2,0-1-0.3-1.7-0.6
	c-2.3-1.1-7.7-1.1-24.6,0C176,6,150,6.1,146.2,5.8c-1.7-0.2-4.7-0.3-6.6-0.2c-14,0.2-60.5-0.1-65.1-0.5C72.1,4.8,61.6,4.6,51,4.5
	C30.6,4.3,29.7,4.4,24.6,5.8c-1.1,0.3-2.2,0.6-2.5,0.6c-0.3,0-0.8,0.2-1.1,0.5c-0.4,0.3-1.1,0.6-1.5,0.7c-0.5,0.1-2.3,1-4.1,1.9
	c-2.6,1.4-3.3,1.9-3.3,2.6c0,0.8,1.1,1.8,2,1.8c0.3,0,0.5,0.2,0.5,0.5c0,0.3,0.2,0.6,0.4,0.8c0.2,0.1,0.4,0.8,0.5,1.5
	c0.3,2.2,0.2,22.1-0.1,37.6C15.1,62.6,15,70.9,15,72.8c0,1.9-0.2,4.8-0.5,6.6c-0.3,2.2-0.3,3.2,0.1,3.5c0.3,0.2,0.4,0.8,0.2,1.4
	c-0.2,0.5-0.4,2.8-0.5,5c-0.4,9.9-0.8,16.1-1.2,17.5c-0.5,1.6-0.5,5.1,0,5.3c0.2,0.1,0.1,1.1-0.1,2.3c-0.7,3.6-0.8,6.3-0.3,6.9
	c0.3,0.4,0.3,0.7-0.1,0.9c-0.7,0.4-0.7,1.7-0.1,1.7c0.3,0,0.3,0.3,0,0.8c-0.3,0.4-0.4,1-0.2,1.4c0.2,0.3,0.1,0.7-0.2,0.9
	c-0.3,0.2-0.3,1.3-0.1,2.6c0.4,2.6,0.3,11.3-0.2,12c-0.2,0.3-0.1,0.6,0.2,0.7c0.4,0.1,0.4,0.4,0,0.8c-0.3,0.3-0.5,1.7-0.4,3
	c0.2,4.7-0.3,15.5-0.8,16c-0.1,0.1-0.3,2-0.5,4.2c-0.2,2.2-0.5,4.2-0.6,4.3c-0.1,0.1-0.3,4.3-0.4,9.3c-0.1,5-0.2,9.1-0.2,9.2
	c0,0.1-1.3,0.1-2.9,0c-2.6-0.1-3-0.1-4.5,0.7c-1.8,0.9-2.2,2.4-0.7,2.7c0.5,0.1,1.3,0.3,1.9,0.4c2.1,0.5,12.7,1.8,13.3,1.6
	c0.6-0.2,5.7-0.5,7.7-0.5c9,0.1,22.8,0.7,24.2,1c1.1,0.2,4.7,0.3,9.9,0.3l8.2,0l1.8,0.9c1.6,0.8,2,0.9,3.7,0.7
	c2-0.2,4.9-0.9,5.4-1.4c0.2-0.2,5-0.3,10.7-0.4c5.7-0.1,11.2-0.3,12.2-0.4c1-0.2,5.2-0.4,9.3-0.6c6-0.3,9.2-0.3,15.4,0
	c0,0,0,0,0.1,0c23.3,1.1,54.9-1.7,75.8,0.6c2.7,0.3,3.5,0.3,5.6-0.1c1.3-0.3,2.7-0.4,3.1-0.3c1,0.2,3.1-1.3,3.1-2.2
	c0-0.4-0.3-1.7-0.5-2.7s-0.6-3.4-0.7-5.1c-0.1-1.7-0.3-3.5-0.4-4c-0.3-1.1-0.5-1.9-1.6-8.7c-0.8-4.5-0.9-8-0.9-21.2
	c0-8.7,0.2-16.6,0.4-17.5c0.3-1.2,0.1-2.4-0.4-4.1c-0.7-2-0.8-5.1-0.9-20.3c-0.1-17.7,0.2-25.7,1.2-32.4
	C208.5,74.2,209,71.3,209.2,69.5z"/>
<path class="st0" d="M184.9,162.2c0-0.3,0-0.4-0.1-0.3c-0.1,0.1-0.1,0.4,0,0.5C184.8,162.6,184.9,162.5,184.9,162.2z"/>
<path class="st0" d="M185,163.1c-0.1,0-0.1,0.2,0,0.3c0.1,0.1,0.1,0.1,0.2-0.1C185.2,163.2,185.1,163.1,185,163.1z"/>
<path class="st0" d="M208.5,192.9c0.1,0,0.2-0.1,0.3-0.1c0-0.1-0.1-0.1-0.2-0.1c-0.1,0-0.2,0.1-0.3,0.1
	C208.2,192.8,208.3,192.9,208.5,192.9z"/>
<path class="st0" d="M210.9,103c-0.1,0.2-0.1,0.5,0,0.6c0,0.2,0.1,0,0.1-0.3C211,103,210.9,102.8,210.9,103z"/>
<path class="st0" d="M210.8,90.5c0.1,0.1,0.1,0,0.1-0.2c0-0.3,0-0.4-0.1-0.3C210.8,90.1,210.7,90.4,210.8,90.5z"/>
<path class="st0" d="M211.1,88.4c-0.1,0.2-0.1,0.5,0,0.6c0,0.2,0.1,0,0.1-0.3C211.3,88.3,211.2,88.2,211.1,88.4z"/>
<path class="st0" d="M212,135.2c0,1.2,0,1.7,0.1,1.3c0.2-0.7,0.2-3.1,0.1-3.3C212.1,133.3,212.1,134.1,212,135.2z"/>
<path class="st0" d="M210.7,101.9c0.1,0.1,0.1,0,0.1-0.2c0-0.3,0-0.4-0.1-0.3C210.6,101.5,210.6,101.7,210.7,101.9z"/>
<path class="st0" d="M210.6,98.6c-0.1,0.1-0.1,0.3,0,0.4c0.1,0.1,0.1,0.1,0.1-0.2C210.7,98.6,210.7,98.5,210.6,98.6z"/>
<path class="st0" d="M183.7,41.4c0,0.9,0,3.3,0,5.2c0,1.9-0.1,4,0,4.6c0,0.6,0,2.5,0,4.2c0,3.1,0,4,0.2,5.7c0,0.5,0.1,2,0.2,3.3
	c0.1,1.3,0.2,2.5,0.2,2.6c0.1,0.1,0.2,1.4,0.2,2.9c0.1,1.5,0.2,3.3,0.3,4.1c0.1,0.7,0.2,2.3,0.3,3.6c0.1,1.2,0.2,3,0.3,4.1
	c0.1,1,0.2,3.8,0.2,6.2s0,4.7,0.1,5.2c0,0.5-0.1,3.7-0.2,7.3c-0.3,9-0.1,12.8,0.6,17c0.1,0.9,0.5,3.2,0.7,5.3c0.2,2,0.5,3.8,0.5,3.9
	c0,0.1,0.1,0.8,0.2,1.4c0,0.7,0.2,2.6,0.3,4.2c0.1,1.6,0.2,3.6,0.3,4.3c0,0.7,0.1,2.3,0.2,3.6c0.1,1.2,0,3-0.1,4
	c-0.1,1-0.1,1.8,0,1.9c0.1,0,0.3,0.2,0.4,0.4c0.1,0.2,0.1,0.3-0.3,0.3c-0.3,0-0.4,0.1-0.3,0.4c0.1,0.2,0.1,2,0.1,3.9
	c0,1.9,0,4.1,0.1,4.8c0.1,0.7,0,2.4-0.1,3.6c-0.1,1.3-0.2,3.3-0.3,4.6c-0.1,1.3-0.2,2.3-0.3,2.3c-0.1,0-0.2,1.4-0.3,3.2
	c-0.1,2.7-0.1,3.1-0.4,2.9c-0.2-0.1-0.4-0.4-0.5-0.7c-0.1-0.3-0.2-0.4-0.2-0.3c0,0.1,0.2,0.7,0.5,1.3c0.5,0.9,0.5,1.4,0.5,2.9
	c-0.2,3.4,0.3,11.9,0.6,12.1c1.1,0.4,1.4,0.6,1.8,1.1c0.5,0.7,0.7,0.7,1.8,0.3c1-0.3,1.2-0.5,1.6-1.6c0.2-0.5,0.5-1,0.6-1.1
	c0.2-0.2,0.3-1.1,0.4-2.7c0.1-1.9,0.2-2.4,0.5-2.5c0.3,0,0.3,0.1,0.1,0.6c-0.1,0.4-0.1,0.6,0.1,0.4c0.1-0.1,0.3-0.4,0.3-0.6
	c0-0.2,0.1-0.5,0.3-0.6c0.2-0.1,0.3-1,0.4-2.3c0.1-1.8,0.2-2.1,0.4-2.1c0.4,0.1,0.5-0.2,0.1-0.4c-0.1-0.1-0.2-0.9-0.3-1.9
	c0-1.4,0-1.7,0.2-1.6c0.2,0.2,0.2,0,0.2-0.6c-0.1-0.9,0.3-3.7,0.6-3.7c0.1,0,0.2,0.7,0.3,1.6c0.1,1.7,0.1,2.3,0,5.6
	c-0.1,2-0.1,2,0.5,2l0.5,0l0.2,4.6c0.2,5.2,0.5,7,1.2,7.7c0.3,0.3,0.5,0.4,0.4,0.2c-0.5-1.1-0.9-2.7-1-4.8c0-0.6-0.1-1.8-0.1-2.6
	c-0.1-2.4,0.4-10,0.8-11.2c0.4-1.1,0.5-1.9,0.6-3.7l0.1-1.1l0.9,0.1c0.8,0.1,0.9,0.1,1,0.5c0,0.2-0.1,1-0.4,1.6
	c-0.3,0.9-0.3,1.3-0.2,1.4c0.1,0.1,0.2,0.8,0.1,1.9c-0.1,1.1-0.1,1.7,0.1,1.7c0.1,0,0.3-0.1,0.3-0.2c0-0.1,0.1-1.9,0.3-3.9l0.2-3.7
	l1.2-0.3c1-0.3,1.2-0.4,1.5-1.1c0.4-0.7,0.8-3.1,1.1-6.8c0.2-2.4,0.6-3.8,0.9-3.9c0.2,0,0.3,0.4,0.4,1.2c0.1,1.5-0.2,5.2-0.4,5.1
	c-0.2-0.1-0.5,0.6-0.3,0.7c0.3,0.2,0.6,2.5,0.5,4.3c-0.1,1,0,2.8,0.1,4.1c0.1,1.3,0.1,4.4,0.1,6.9c0,2.5,0,4.8,0,5
	c0.1,0.6,0.3,0.6,0.5-0.1c0.3-0.9,0.6-7.7,0.3-8.8c-0.1-0.5-0.2-1.5-0.1-2.3c0-0.8,0-1.6,0-1.9c-0.2-1,0.1-9.3,0.3-9.4
	c0.3-0.2,0.6-3,0.4-3.8c-0.1-0.5-0.1-0.5,0.5-0.5c0.3,0,0.6,0.1,0.6,0.1c0.1,0.7,0.1,2.1,0,5.7c-0.1,4.2,0,5,0.4,4.6
	c0.2-0.2,0.8-2.6,1-4.1c0.2-1.6,0.6-10.4,0.5-10.3c-0.1,0-0.1-1.3,0-2.9c0.2-4.4,0.1-8.1-0.2-8.5c-0.4-0.4-0.8-3.8-0.9-7.1
	c0-0.6-0.1-2.2-0.2-3.4c-0.1-1.3-0.2-2.4-0.1-2.5c0-0.1-0.1-1-0.2-1.9c-0.4-2.9-0.8-5.2-1-6.4c-0.1-0.6-0.2-1.7-0.2-2.5
	c0-0.8-0.2-2.3-0.3-3.4c-0.4-3-0.4-6.2-0.1-15c0-0.8,0.8-3.9,1.1-4.4c0.2-0.4,0.4-1.2,0.5-2.1c0-0.8,0.1-1.5,0.2-1.6
	c0.1-0.1,0.2-0.6,0.3-1.2c0.1-0.6,0.3-1.1,0.4-1.2c0.3-0.1,0.8-0.8,0.8-1.1c0-0.1,0.1-0.3,0.3-0.3c0.2,0,0.2-0.5,0.1-2.1
	c-0.2-1.9-0.3-7.5-0.2-8.2c0.3-1.7,1-4.5,1.1-4.2c0.1,0.2,0.1,1.4,0.2,2.7c0,1.3,0.1,2.4,0.2,2.4c0.2,0.1,0.2-5.6,0-6.7
	c-0.1-0.5-0.2-1.6-0.2-2.5c-0.1-1.8-0.3-4.2-0.6-5.7c-0.1-0.6-0.2-1.4-0.1-1.9c0-0.5,0-1.3-0.2-1.8c-0.1-0.5-0.3-1.4-0.4-1.9
	c-0.1-0.5-0.3-1.6-0.4-2.4c-0.1-0.8-0.2-1.8-0.3-2.4c-0.1-0.5-0.3-1.6-0.4-2.4c-0.1-0.8-0.3-1.9-0.4-2.3c-0.1-0.4-0.2-1.2-0.3-1.7
	c0-0.5-0.2-2.1-0.3-3.6c-0.1-1.5-0.3-3.1-0.4-3.6c-0.1-0.5-0.2-1.7-0.2-2.8c0-2.6-0.2-4-0.4-4c-0.4,0-0.8-0.8-1-1.8
	c-0.1-0.5-0.2-1.3-0.2-1.6c-0.1-0.7-0.3-1-0.3-0.5c0,0.2-0.1,0.3-0.3,0.3c-0.1,0-0.2-0.3-0.2-0.6c0-0.4-0.1-0.6-0.3-0.6
	c-0.2,0-0.4-0.2-0.5-0.3c-0.1-0.2-0.3-0.4-0.4-0.4c-0.1,0-0.3-0.8-0.4-1.6c-0.1-0.9-0.2-1.6-0.4-1.7c-0.1-0.1-0.3-0.8-0.4-1.6
	c-0.3-2.2-0.6-3-1.1-3.3c-0.4-0.3-0.5-0.6-0.7-1.8c-0.1-1.1-0.2-1.4-0.5-1.4c-0.2,0-0.6,0-0.9-0.1c-0.5-0.1-0.5-0.2-0.5-0.8
	c0-0.9-0.3-1.7-0.8-2.1c-0.3-0.2-0.5-0.5-0.5-0.7c0-0.5-0.4-1.3-0.7-1.3c-0.4,0-0.9-0.9-0.7-1.3c0.2-0.4-0.4-0.7-1.1-0.7
	c-0.5,0-0.8,0.5-0.5,0.8c0.3,0.2,0.4,2.3,0.2,2.4c-0.1,0-0.6-0.2-1.2-0.5c-1.1-0.6-1.7-0.7-1.1-0.1c0.4,0.4,0.5,0.9,0.5,4.2
	c0,2,0,2.3-0.3,2.1c-0.2-0.1-0.4-0.4-0.5-0.6c-0.1-0.2-0.2-0.3-0.2-0.3c-0.1,0,0,0.3,0.1,0.6c0.3,0.6,0,0.9-0.9,1
	c-1.1,0.1-1.5-0.3-1.7-1.7c-0.1-0.7-0.3-1.4-0.4-1.5c-0.2-0.3-0.7-0.3-0.7-0.1c0,0.3-0.7-0.4-0.7-0.7c0-0.3,0-0.3-0.4-0.2
	c-0.2,0.1-0.4,0.4-0.4,0.6c0,0.8-0.4,1.5-0.8,1.6c-1.2,0.4-2.8-0.5-3.2-1.8l-0.2-0.7l-0.3,0.5c-0.2,0.3-0.5,0.6-0.8,0.8
	c-0.4,0.3-0.5,0.5-0.5,1.7c0,3.6,0.1,5.4,0.4,6.9c0.1,0.9,0.2,4.5,0.2,8.3C183.7,35.9,183.7,38.4,183.7,41.4z M198.2,173.6
	c-0.2,1.3-0.5,2.6-0.5,3c0,0.4-0.2,0.7-0.3,0.7c-0.3,0,0.6-6.8,1.3-8.9C199.1,167,198.7,171,198.2,173.6z M196.5,167.4
	c0.3,0.3,0.3,0.7,0,0.7c-0.1,0-0.2-0.2-0.2-0.5C196.3,167.3,196.4,167.3,196.5,167.4z M198.1,143.4c0-0.2,0-0.5,0-0.7
	c0.1-0.2,0.1,0,0.1,0.4C198.2,143.4,198.2,143.6,198.1,143.4z M210,153.8c0,0.3-0.1,0.3-0.4,0.1c-0.4-0.2-0.3-0.5,0.2-0.5
	C210,153.5,210.1,153.6,210,153.8z M209.9,145.7c0.1,6-0.1,7.3-0.7,7.6c-0.4,0.2-0.3-12.3,0.1-12.7
	C209.5,140.4,209.8,143.3,209.9,145.7z M198.2,130.9c0.2,0.1,0.2,0.8,0.2,4.3c0,1.3,0,3.4,0,4.6c0,1.2-0.1,2-0.2,1.8
	c-0.1-0.2-0.2-2.1-0.3-4.2c-0.1-2.1-0.1-4.4-0.2-5.1C197.6,131.1,197.7,130.7,198.2,130.9z M198.1,128.4c0,0.1,0,0.6,0.1,1.1
	c0.1,0.6,0,0.9-0.2,1c-0.2,0.1-0.3,0-0.3-0.3c0-0.2,0-0.8,0-1.2c0-0.5,0.1-0.8,0.2-0.8C198,128.2,198.1,128.3,198.1,128.4z
	 M198,126.5c0.2,0.6,0.2,1.4-0.1,1.4c-0.1,0-0.2-0.4-0.2-0.9C197.8,126.3,197.8,126.2,198,126.5z M196,116c0.3,0,0.4,1,0.2,1.4
	c-0.1,0.2-0.2,0-0.2-0.3c0-0.3,0-0.7-0.1-0.8C195.9,116.1,195.9,116,196,116z M196.1,115.4c0,0.3-0.1,0.4-0.1,0.2c0-0.2,0-0.4,0-0.6
	C196,114.9,196.1,115.1,196.1,115.4z M195.6,105.1c0,0.4,0.1,2.3,0.2,4.1c0.1,1.8,0.3,3.7,0.3,4.2c0,0.5,0,0.9-0.2,1
	c-0.2,0.1-0.6-1.6-0.7-3.3c-0.4-5-0.3-6.8,0.2-6.8C195.6,104.3,195.7,104.7,195.6,105.1z M195.6,100c0,1.4,0.1,2.8,0.1,3.2
	c0.1,0.8-0.3,1.2-0.5,0.5c-0.2-0.8-0.1-6.3,0.1-6.3C195.5,97.5,195.6,98.6,195.6,100z M195.5,85.5c0,0.2-0.1,0.3-0.1,0.2
	c-0.1-0.1,0-0.3,0-0.4C195.5,85.1,195.5,85.2,195.5,85.5z M195.6,61c0.1,0.1,0.2,1.2,0.2,2.5c0,2.7-0.3,2.4-0.6-0.6
	C195.1,61.1,195.1,60.7,195.6,61z"/>
<path class="st0" d="M196.7,183.1c0.1,0,0.2-0.1,0.3-0.3c0-0.2-0.1-0.3-0.2-0.2c-0.1,0-0.3,0.2-0.3,0.3
	C196.4,183,196.5,183.1,196.7,183.1z"/>
<path class="st0" d="M194.4,182.5c-0.1,0.1-0.1,0.3,0,0.4c0.1,0.1,0.1,0.1,0.1-0.2C194.5,182.5,194.4,182.4,194.4,182.5z"/>
<path class="st0" d="M188.8,192.3c0.2-0.3,0.2-0.4-0.2-0.5c-0.2,0-0.4-0.4-0.5-0.8l-0.2-0.8l-0.1,0.7
	C187.8,191.7,188.5,192.8,188.8,192.3z"/>
<path class="st0" d="M197.9,192.1c0-0.1-0.1-0.4-0.2-0.6c-0.4-0.5-0.8-2.9-0.8-5.3c0-1.2-0.1-2.2-0.2-2.1c-0.3,0.2-0.1,4.8,0.3,6
	c0.2,0.6,0.4,1.3,0.6,1.6C197.7,192.1,197.9,192.2,197.9,192.1z"/>
<path class="st0" d="M200.6,173.3c0-0.6-0.1-0.5-0.3,0.6c-0.3,1.7-0.5,3.8-0.2,3.7c0.1-0.1,0.3-0.6,0.4-1.1
	C200.6,175.4,200.6,174.5,200.6,173.3z"/>
<path class="st0" d="M185.6,169.5c0.2,0.8,0.2-1.9-0.1-2.8c-0.2-0.6-0.2-0.4-0.1,0.8C185.4,168.2,185.5,169.1,185.6,169.5z"/>
<path class="st0" d="M210,166.2c-0.1,0-0.1,0.2,0,0.3c0.1,0.1,0.1,0.1,0.2-0.1C210.1,166.2,210.1,166.1,210,166.2z"/>
<path class="st0" d="M209.9,167.1c-0.2,0.7-0.3,2.3-0.2,2.3c0.1,0,0.2-0.5,0.3-1C210.2,167.4,210.1,166.3,209.9,167.1z"/>
<path class="st0" d="M35.4,36.5c0,0.3,0,0.4,0.1,0.3c0.1-0.1,0.1-0.4,0-0.5C35.5,36.1,35.4,36.2,35.4,36.5z"/>
<path class="st0" d="M35.3,35.6c0.1,0,0.1-0.2,0-0.3c-0.1-0.1-0.1-0.1-0.2,0.1C35.2,35.5,35.2,35.6,35.3,35.6z"/>
<path class="st0" d="M11.8,5.8c-0.1,0-0.2,0.1-0.3,0.1c0,0.1,0.1,0.1,0.2,0.1c0.1,0,0.2-0.1,0.3-0.1C12.1,5.9,12,5.8,11.8,5.8z"/>
<path class="st0" d="M9.4,95.7c0.1-0.2,0.1-0.5,0-0.6c0-0.2-0.1,0-0.1,0.3C9.3,95.7,9.4,95.9,9.4,95.7z"/>
<path class="st0" d="M9.5,108.2c-0.1-0.1-0.1,0-0.1,0.2c0,0.3,0,0.4,0.1,0.3C9.6,108.6,9.6,108.4,9.5,108.2z"/>
<path class="st0" d="M9.2,110.4c0.1-0.2,0.1-0.5,0-0.6c0-0.2-0.1,0-0.1,0.3C9.1,110.4,9.1,110.5,9.2,110.4z"/>
<path class="st0" d="M8.3,63.5c0-1.2,0-1.7-0.1-1.3c-0.2,0.7-0.2,3.1-0.1,3.3C8.2,65.5,8.2,64.6,8.3,63.5z"/>
<path class="st0" d="M9.6,96.8c-0.1-0.1-0.1,0-0.1,0.2c0,0.3,0,0.4,0.1,0.3C9.7,97.2,9.7,97,9.6,96.8z"/>
<path class="st0" d="M9.7,100.1c0.1-0.1,0.1-0.3,0-0.4c-0.1-0.1-0.1-0.1-0.1,0.2C9.6,100.1,9.6,100.2,9.7,100.1z"/>
<path class="st0" d="M36.6,157.3c0-0.9,0-3.3,0-5.2c0-1.9,0.1-4,0-4.6c0-0.6,0-2.5,0-4.2c0-3.1,0-4-0.2-5.7c0-0.5-0.1-2-0.2-3.3
	c-0.1-1.3-0.2-2.5-0.2-2.6c-0.1-0.1-0.2-1.4-0.2-2.9c-0.1-1.5-0.2-3.3-0.3-4.1c-0.1-0.7-0.2-2.3-0.3-3.6c-0.1-1.2-0.2-3-0.3-4.1
	c-0.1-1-0.2-3.8-0.2-6.2c0-2.4,0-4.7-0.1-5.2c0-0.5,0.1-3.7,0.2-7.3c0.3-9,0.1-12.8-0.6-17c-0.1-0.9-0.5-3.2-0.7-5.3
	c-0.2-2-0.5-3.8-0.5-3.9c0-0.1-0.1-0.8-0.2-1.4c0-0.7-0.2-2.6-0.3-4.2c-0.1-1.6-0.2-3.6-0.3-4.3c0-0.7-0.1-2.3-0.2-3.6
	c-0.1-1.2,0-3,0.1-4c0.1-1,0.1-1.8,0-1.9c-0.1,0-0.3-0.2-0.4-0.4c-0.1-0.2-0.1-0.3,0.3-0.3c0.3,0,0.4-0.1,0.3-0.4
	c-0.1-0.2-0.1-2-0.1-3.9c0-1.9,0-4.1-0.1-4.8c-0.1-0.7,0-2.4,0.1-3.6c0.1-1.3,0.2-3.3,0.3-4.6c0.1-1.3,0.2-2.3,0.3-2.3
	c0.1,0,0.2-1.4,0.3-3.2c0.1-2.7,0.1-3.1,0.4-2.9c0.2,0.1,0.4,0.4,0.5,0.7c0.1,0.3,0.2,0.4,0.2,0.3c0-0.1-0.2-0.7-0.5-1.3
	c-0.5-0.9-0.5-1.4-0.5-2.9c0.2-3.3-0.3-11.9-0.6-12.1c-1.1-0.4-1.4-0.6-1.8-1.1c-0.5-0.7-0.7-0.7-1.8-0.3c-1,0.3-1.2,0.5-1.6,1.6
	c-0.2,0.5-0.5,1-0.6,1.1c-0.2,0.2-0.3,1.1-0.4,2.7c-0.1,1.9-0.2,2.4-0.5,2.5s-0.3-0.1-0.1-0.6c0.1-0.4,0.1-0.6-0.1-0.4
	c-0.1,0.1-0.3,0.4-0.3,0.6c0,0.2-0.1,0.5-0.3,0.6c-0.2,0.1-0.3,1-0.4,2.3c-0.1,1.8-0.2,2.1-0.4,2.1c-0.4-0.1-0.5,0.2-0.1,0.4
	c0.1,0.1,0.3,0.9,0.3,1.9c0,1.4,0,1.7-0.2,1.6c-0.2-0.2-0.2,0-0.2,0.6c0.1,0.9-0.3,3.7-0.6,3.7c-0.1,0-0.2-0.7-0.3-1.6
	c-0.1-1.7-0.1-2.3,0-5.6c0.1-2,0.1-2-0.5-2l-0.5,0l-0.2-4.6c-0.2-5.2-0.5-7-1.2-7.7c-0.3-0.3-0.5-0.4-0.4-0.2c0.5,1.1,0.9,2.7,1,4.8
	c0,0.6,0.1,1.8,0.1,2.6c0.1,2.4-0.4,10-0.8,11.2c-0.4,1.1-0.5,1.9-0.6,3.7l-0.1,1.1L19.5,32c-0.8-0.1-0.9-0.1-1-0.5
	c0-0.2,0.1-1,0.4-1.6c0.3-0.9,0.3-1.3,0.2-1.4c-0.1-0.1-0.2-0.8-0.1-1.9c0.1-1.1,0.1-1.7-0.1-1.7c-0.1,0-0.3,0.1-0.3,0.2
	c0,0.1-0.1,1.9-0.3,3.9L18,32.8l-1.2,0.3c-1,0.3-1.2,0.4-1.5,1.1c-0.4,0.7-0.8,3.1-1.1,6.8c-0.2,2.4-0.6,3.8-0.9,3.9
	c-0.2,0-0.3-0.4-0.4-1.2c-0.1-1.5,0.2-5.2,0.4-5.1c0.2,0.1,0.5-0.6,0.3-0.7c-0.3-0.2-0.6-2.5-0.5-4.3c0.1-1,0-2.8-0.1-4.1
	c-0.1-1.3-0.1-4.4-0.1-6.9c0-2.5,0-4.8,0-5c-0.1-0.6-0.3-0.6-0.5,0.1c-0.3,0.9-0.6,7.7-0.3,8.8c0.1,0.5,0.2,1.5,0.1,2.3
	c0,0.8,0,1.6,0,1.9c0.2,1-0.1,9.3-0.3,9.4c-0.3,0.2-0.6,3-0.4,3.8c0.1,0.5,0.1,0.5-0.5,0.5c-0.3,0-0.6-0.1-0.6-0.1
	c-0.1-0.7-0.1-2.1,0-5.7c0.1-4.2,0-5-0.4-4.6c-0.2,0.2-0.8,2.6-1,4.1c-0.2,1.6-0.6,10.4-0.5,10.3c0.1,0,0.1,1.3,0,2.9
	c-0.2,4.4-0.1,8.1,0.2,8.5c0.4,0.4,0.8,3.8,0.9,7.1c0,0.6,0.1,2.2,0.2,3.4c0.1,1.3,0.2,2.4,0.1,2.5c0,0.1,0.1,1,0.2,1.9
	c0.4,2.9,0.8,5.2,1,6.4c0.1,0.6,0.2,1.7,0.2,2.5c0,0.8,0.2,2.3,0.3,3.4c0.4,3,0.4,6.2,0.1,15c0,0.8-0.8,3.9-1.1,4.4
	c-0.2,0.4-0.4,1.2-0.5,2.1c0,0.8-0.1,1.5-0.2,1.6c-0.1,0.1-0.2,0.6-0.3,1.2c-0.1,0.6-0.3,1.1-0.4,1.2c-0.3,0.1-0.8,0.8-0.8,1.1
	c0,0.1-0.1,0.3-0.3,0.3c-0.2,0-0.2,0.5-0.1,2.1c0.2,1.9,0.3,7.5,0.2,8.2c-0.3,1.7-1,4.5-1.1,4.2c-0.1-0.2-0.1-1.4-0.2-2.7
	c0-1.3-0.1-2.4-0.2-2.4c-0.2-0.1-0.2,5.6,0,6.7c0.1,0.5,0.2,1.6,0.2,2.5c0.1,1.8,0.3,4.2,0.6,5.7c0.1,0.6,0.2,1.4,0.1,1.9
	c0,0.5,0,1.3,0.2,1.8c0.1,0.5,0.3,1.4,0.4,1.9c0.1,0.5,0.3,1.6,0.4,2.4c0.1,0.8,0.2,1.8,0.4,2.4c0.1,0.5,0.3,1.6,0.4,2.4
	c0.1,0.8,0.3,1.9,0.4,2.3c0.1,0.4,0.2,1.2,0.3,1.7c0,0.5,0.2,2.1,0.3,3.6c0.1,1.5,0.3,3.1,0.4,3.6c0.1,0.5,0.2,1.7,0.2,2.8
	c0,2.6,0.2,4,0.4,4c0.4,0,0.8,0.8,1,1.8c0.1,0.6,0.2,1.3,0.2,1.6c0.1,0.7,0.3,1,0.3,0.5c0-0.2,0.1-0.3,0.3-0.3
	c0.1,0,0.2,0.3,0.2,0.6c0,0.4,0.1,0.6,0.3,0.6c0.2,0,0.4,0.2,0.5,0.3c0.1,0.2,0.3,0.4,0.4,0.4c0.1,0,0.3,0.8,0.4,1.6
	c0.1,0.9,0.2,1.6,0.4,1.7c0.1,0.1,0.3,0.8,0.4,1.6c0.3,2.2,0.6,3,1.1,3.3c0.4,0.3,0.5,0.6,0.7,1.8c0.1,1.1,0.3,1.4,0.5,1.4
	c0.2,0,0.6,0,0.9,0.1c0.5,0.1,0.5,0.2,0.5,0.8c0,0.9,0.3,1.7,0.8,2.1c0.3,0.2,0.5,0.5,0.5,0.7c0,0.5,0.4,1.3,0.7,1.3
	c0.4,0,0.9,0.9,0.7,1.3c-0.2,0.4,0.4,0.7,1.1,0.7c0.5,0,0.8-0.5,0.5-0.8c-0.3-0.2-0.4-2.3-0.2-2.4c0.1,0,0.6,0.2,1.2,0.5
	c1.1,0.6,1.7,0.7,1.1,0.1c-0.4-0.4-0.5-0.9-0.5-4.2c0-2,0-2.3,0.3-2.1c0.2,0.1,0.4,0.4,0.5,0.6c0.1,0.2,0.2,0.3,0.2,0.3
	c0.1,0,0-0.3-0.1-0.6c-0.3-0.6,0-0.9,0.9-1c1.1-0.1,1.5,0.3,1.7,1.7c0.1,0.7,0.3,1.4,0.4,1.5c0.2,0.3,0.7,0.3,0.7,0.1
	c0-0.3,0.7,0.4,0.7,0.7c0,0.3,0,0.3,0.4,0.2c0.2-0.1,0.4-0.4,0.4-0.6c0-0.8,0.4-1.5,0.8-1.6c1.2-0.4,2.8,0.5,3.2,1.8l0.2,0.7
	l0.3-0.5c0.2-0.3,0.5-0.6,0.8-0.8c0.4-0.3,0.5-0.5,0.5-1.7c0-3.6-0.1-5.4-0.4-6.9c-0.1-0.9-0.2-4.5-0.2-8.3
	C36.6,162.8,36.6,160.3,36.6,157.3z M22.1,25.1c0.3-1.3,0.5-2.6,0.5-3c0-0.4,0.2-0.7,0.3-0.7c0.3,0-0.6,6.8-1.3,8.9
	C21.3,31.7,21.6,27.7,22.1,25.1z M23.8,31.3c-0.3-0.3-0.3-0.7,0-0.7c0.1,0,0.2,0.2,0.2,0.5C24,31.4,23.9,31.4,23.8,31.3z M22.2,55.3
	c0,0.2,0,0.5,0,0.7c-0.1,0.2-0.1,0-0.1-0.4C22.1,55.3,22.2,55.1,22.2,55.3z M10.3,44.9c0-0.3,0.1-0.3,0.4-0.1
	c0.4,0.2,0.3,0.5-0.2,0.5C10.3,45.3,10.3,45.1,10.3,44.9z M10.4,53c-0.1-6,0.1-7.3,0.7-7.6c0.4-0.2,0.3,12.3-0.1,12.7
	C10.8,58.3,10.5,55.4,10.4,53z M22.1,67.8C22,67.7,21.9,67,22,63.5c0-1.3,0-3.4,0-4.6c0-1.2,0.1-2,0.2-1.8c0.1,0.2,0.2,2.1,0.3,4.2
	c0.1,2.1,0.1,4.4,0.2,5.1C22.7,67.6,22.6,68,22.1,67.8z M22.2,70.3c0-0.1,0-0.6-0.1-1.1c-0.1-0.6,0-0.9,0.2-1c0.2-0.1,0.3,0,0.3,0.3
	c0,0.2,0,0.8,0,1.2c0,0.5-0.1,0.8-0.2,0.8C22.3,70.5,22.2,70.4,22.2,70.3z M22.3,72.2c-0.2-0.6-0.2-1.4,0.1-1.4
	c0.1,0,0.2,0.4,0.2,0.9C22.5,72.4,22.5,72.5,22.3,72.2z M24.3,82.7c-0.3,0-0.4-1-0.2-1.4c0.1-0.2,0.2,0,0.2,0.3c0,0.3,0,0.7,0.1,0.8
	C24.4,82.6,24.4,82.7,24.3,82.7z M24.2,83.3c0-0.3,0.1-0.4,0.1-0.2c0,0.2,0,0.4,0,0.6C24.3,83.8,24.2,83.6,24.2,83.3z M24.7,93.6
	c0-0.4-0.1-2.3-0.2-4.1c-0.1-1.8-0.3-3.7-0.3-4.2c0-0.5,0-0.9,0.2-1c0.2-0.1,0.6,1.6,0.7,3.3c0.4,5,0.3,6.8-0.2,6.8
	C24.7,94.4,24.6,94,24.7,93.6z M24.7,98.8c0-1.4-0.1-2.8-0.1-3.2c-0.1-0.8,0.3-1.2,0.5-0.5c0.2,0.8,0.1,6.3-0.1,6.3
	C24.9,101.3,24.7,100.1,24.7,98.8z M24.8,113.2c0-0.2,0.1-0.3,0.1-0.2c0.1,0.1,0,0.3,0,0.4C24.9,113.6,24.8,113.5,24.8,113.2z
	 M24.7,137.7c-0.1-0.1-0.2-1.2-0.2-2.5c0-2.7,0.3-2.4,0.6,0.6C25.2,137.6,25.2,138,24.7,137.7z"/>
<path class="st0" d="M23.6,15.6c-0.1,0-0.2,0.1-0.3,0.3c0,0.2,0.1,0.3,0.2,0.2c0.1,0,0.3-0.2,0.3-0.3C23.9,15.7,23.8,15.6,23.6,15.6
	z"/>
<path class="st0" d="M25.9,16.3c0.1-0.1,0.1-0.3,0-0.4c-0.1-0.1-0.1-0.1-0.1,0.2C25.8,16.2,25.9,16.3,25.9,16.3z"/>
<path class="st0" d="M31.5,6.4c-0.2,0.3-0.2,0.4,0.2,0.5c0.2,0,0.4,0.4,0.5,0.8l0.2,0.8l0.1-0.7C32.5,7,31.8,6,31.5,6.4z"/>
<path class="st0" d="M22.4,6.7c0,0.1,0.1,0.4,0.2,0.6c0.4,0.5,0.8,2.9,0.8,5.3c0,1.2,0.1,2.2,0.2,2.1c0.3-0.2,0.1-4.8-0.3-6
	C23.3,8,23,7.3,22.8,7C22.6,6.7,22.5,6.5,22.4,6.7z"/>
<path class="st0" d="M19.7,25.4c0,0.6,0.1,0.5,0.3-0.6c0.3-1.7,0.5-3.8,0.2-3.7c-0.1,0.1-0.3,0.6-0.4,1.1
	C19.7,23.3,19.7,24.2,19.7,25.4z"/>
<path class="st0" d="M34.7,29.3c-0.2-0.8-0.2,1.9,0.1,2.8c0.2,0.6,0.2,0.4,0.1-0.8C34.9,30.5,34.8,29.6,34.7,29.3z"/>
<path class="st0" d="M10.3,32.5c0.1,0,0.1-0.2,0-0.3c-0.1-0.1-0.1-0.1-0.2,0.1C10.2,32.5,10.3,32.6,10.3,32.5z"/>
<path class="st0" d="M10.4,31.7c0.2-0.7,0.3-2.3,0.2-2.3c-0.1,0-0.2,0.5-0.3,1C10.1,31.3,10.2,32.4,10.4,31.7z"/>
<path class="st0" d="M83.2,2.2C84.6,2.2,86.5,2,87.5,2c1-0.1,2.7-0.1,3.7-0.2c2.5-0.1,2.3-0.1,5-0.2l2.3-0.1l-1.4,0
	c-2.3-0.1-4.3,0-6.8,0.2c-1.3,0.1-3.1,0.2-4,0.2C84,2,79.6,2.3,79.4,2.3C79.2,2.4,80.7,2.4,83.2,2.2z"/>
<path class="st0" d="M94,0C94.1,0,94.1,0,94,0c-0.3-0.1-0.4,0-0.3,0C93.8,0.1,93.9,0.1,94,0z"/>
<path class="st0" d="M125.1,0.8c0.1,0,0.2,0,0.3,0c0.1,0,0.1,0-0.1,0C125.1,0.8,125,0.8,125.1,0.8z"/>
<path class="st0" d="M98.4,1.2c1.5-0.1,3.9-0.1,5.3-0.2c4.5-0.1,7.9-0.1,11.4-0.2c5.4-0.1,6.8-0.1,6.7-0.2c0,0,0-0.1,0.2-0.1
	c0.3,0,9.1-0.1,15.7-0.1c2.4,0,4.4,0,4.6,0c0.4-0.1-0.4-0.3-1.1-0.4c-0.3,0-3.8,0-7.7,0c-7.7,0-15.5,0.1-21.7,0.3
	c-1.2,0-2.9,0.1-3.8,0.1c-0.9,0-2.2,0-3,0.1c-0.8,0-2.4,0.1-3.7,0.2c-1.3,0-2.3,0.1-2.4,0.2C99,0.9,97,1.1,95.9,1.1
	c-0.6,0-0.8,0-0.8,0.1C95.1,1.3,95,1.3,98.4,1.2z"/>
<path class="st0" d="M99.7,1.4c-0.2,0-0.3,0-0.2,0C99.5,1.5,99.6,1.5,99.7,1.4C99.9,1.4,99.9,1.4,99.7,1.4z"/>
<path class="st0" d="M101.1,3.1c-0.4,0-0.5,0-0.4,0c0.2,0,0.5,0,0.7,0C101.6,3.1,101.5,3.1,101.1,3.1z"/>
<path class="st0" d="M191.2,2.6c0.1,0,0.2,0,0.2-0.1c0-0.1-0.1-0.2-0.2,0C191.1,2.5,191.1,2.6,191.2,2.6z"/>
<path class="st0" d="M206.9,5.6c0.1,0,0.3,0,0.5,0c0.2,0,0.1,0-0.2,0C206.9,5.6,206.8,5.6,206.9,5.6z"/>
<path class="st0" d="M198.9,6.2C199.1,6.1,199,6.1,198.9,6.2c-0.3-0.1-0.4,0-0.3,0C198.7,6.2,198.8,6.2,198.9,6.2z"/>
<path class="st0" d="M201.5,6.2c-0.7,0-1.1,0-1,0.1c0.2,0,0.1,0.1-0.1,0.2c-0.3,0.1-0.3,0.1,0,0.1c0.3-0.1,1.4-0.1,5-0.3
	c1.1,0,2.1-0.1,2.2-0.2C208,6,208,6,207.8,6c-0.2,0-0.5,0-0.7,0.1C206.6,6.1,204.9,6.1,201.5,6.2z"/>
<path class="st0" d="M79.3,8.6c-0.4,0-0.5,0-0.4,0c0.2,0,0.5,0,0.7,0C79.8,8.6,79.6,8.6,79.3,8.6z"/>
<path class="st0" d="M22.7,6.1c1.5,0,2.9,0.2,2.3,0.2c-0.2,0-0.6,0.1-0.9,0.1c-0.5,0.1-0.5,0.1-0.2,0.1c0.2,0,0.5,0,0.8,0
	c0.3,0,0.4,0,0.4,0.1c-0.1,0-0.5,0-1.6,0c-0.9,0-1.6,0-1.7,0c-0.1,0.1,1.1,0.2,1.9,0.2c0.3,0,0.8,0.1,1.2,0.1
	c0.5,0.1,0.6,0.1,0.4,0.1c-0.5,0.1-0.3,0.1,0.4,0.1c0.7,0,0.9,0,0.2,0.1c-0.4,0-0.5,0-0.3,0.1c0.1,0,0.1,0.1-0.1,0.1
	c-0.2,0-0.2,0.1-0.2,0.1c0.1,0,2.6,0.1,5.1,0.1c1.4,0,2.8,0.1,2.9,0.1c0,0,0.2,0,0.4,0C34,7.9,34.1,7.9,34,8c1.6,0,3.2,0,4.9-0.1
	c0.1,0,0.2,0,0.3,0c2,0,4.4-0.1,6-0.1c0.7,0,2.1-0.1,3.1-0.1c1,0,2.5,0,3.4-0.1c0.9,0,3.5,0,5.8-0.1c4.8,0,8.2-0.1,10.9-0.2
	c1.2,0,3.1,0,5.1,0c2.1,0.1,3.2,0.1,3.2,0c0,0,0.3-0.1,0.7-0.1l0.7,0l-0.5-0.1c-0.3-0.1-0.5-0.1-0.5-0.1c0.2-0.1,6.4,0,12.7,0.1
	c3.7,0.1,7,0.2,7.3,0.1c0.3,0,2.4,0,4.6,0c7,0.1,7.7,0.1,8.1-0.1c0.2-0.1,0.5-0.1,0.6-0.1c0.1,0,1.2,0,2.5,0c1.2,0,3.6,0,5.1-0.1
	c4.9,0,8.7,0,10.8-0.1c1.1,0,2.9-0.1,4-0.1c1.1,0,2.1,0,2.2-0.1c0.1,0,2.2,0,4.7,0.1c4.7,0.1,11.9,0.1,23.2,0c0.9,0,9.7,0,13.7,0
	c1.5,0,9.6,0.2,19.4,0.4c5.3,0.1,7.2,0.1,8.4,0c1.2-0.2,2.1-0.2,2.4-0.1c0.1,0.1,0.3,0.1,0.4,0.1c0.1,0,0-0.1-0.3-0.2
	c-0.2-0.1-0.5-0.2-0.7-0.3c-0.6-0.3-1.2-0.4-2.6-0.5c-0.8,0-2.2-0.1-3.1-0.2c-0.9-0.1-1.7-0.1-1.8-0.2c-0.1-0.1,0.9-0.1,1.8-0.1
	c1,0.1,6,0.3,6,0.2c0-0.1-3.8-0.4-6.9-0.5c-1.9-0.1-4.7-0.2-6.3-0.3c-3.2-0.2-8.4-0.4-22.1-0.7c-5.3-0.1-9.6-0.2-9.5-0.3
	c0-0.1,1.4-0.1,3.2-0.1c1.1,0,1.7,0,1.6,0c-0.1,0-0.8-0.1-1.8-0.1c-1.3,0-1.7-0.1-1.6-0.1c0.3-0.3,5.1-0.3,7.5,0
	c1.3,0.2,2.2,0.2,7.5,0.5c1.2,0.1,2.4,0.1,2.7,0.2c0.4,0.1,0.5,0,0.6-0.1c0.1-0.2,0.2-0.2,1.2-0.1c1.4,0.1,1.3,0-0.1-0.1
	c-0.6,0-1.3-0.1-1.4-0.2c-0.3-0.1-0.7-0.2-5.8-0.4c-4.9-0.2-5.8-0.3-4.7-0.4c0.4,0-0.7-0.1-4.2-0.2C159.7,3,152,2.8,152,2.7
	c-0.1-0.1,0.6-0.1,1.7-0.1c0.8,0,0.9,0,0.6-0.1c-0.4-0.1-2.5-0.1-3.1,0c-0.2,0-1.2,0.1-2.1,0.1c-1.8,0-1.8,0-2.5-0.2
	c-0.6-0.2-1-0.2-4.1-0.4c-3.4-0.2-7.6-0.5-8-0.6c-0.1,0,1.2,0,2.9,0.1c1.7,0.1,3.2,0.1,3.4,0.1c0.2,0-0.4-0.1-1.6-0.1
	c-1,0-3.2-0.1-5-0.2c-4.5-0.2-7.5-0.3-7.7-0.2c-0.1,0,0.1,0.1,0.5,0c0.3,0,0.7,0,0.7,0c0.1,0.1-1,0.1-5.2,0C120.3,1,118.4,1,118.4,1
	c-0.1,0-1.1,0-2.2,0c-2.8,0-7.3,0-10.2,0c-1.3,0-3.2,0-4.1,0c-1,0-1.9,0-2.1,0c-0.2,0-1.9,0-3.8,0c-1.9,0-3.6,0-4,0
	c-0.3,0-2.3,0.1-4.4,0.1c-2.1,0-4.7,0.1-5.9,0.1c-1.1,0-2.8,0.1-3.7,0.1c-1.9,0-5.6,0.2-6.6,0.2c-0.7,0-0.7,0.1-0.5,0.3
	c0.1,0.1-0.2,0.1-1.3,0.2c-0.8,0-1.7,0.1-2.1,0.1c-0.4,0-0.9,0-1,0c-0.1,0-1.1,0.1-2.2,0.1c-1,0-2.2,0.1-2.6,0.1
	c-0.4,0-1.2,0.1-1.8,0.1c-0.8,0-1.1,0.1-1.2,0.1c-0.2,0.2,0,0.2,0.8,0.1c0.4,0,1.2-0.1,1.7-0.1c0.5,0,1.3,0,1.8-0.1
	C66.2,2.7,66.3,2.7,66,3c-0.2,0.2-1.1,0.3-2.8,0.3c-0.8,0-1.8,0-2.4,0c-0.5,0-2,0-3.3,0.1c-1.3,0-3,0-3.9,0c-0.9,0-3.6,0.1-6,0.1
	c-2.4,0-4.6,0.1-4.7,0.1c-0.2,0,0.1,0.1,0.7,0.1c0.5,0,1.8,0,2.9,0c1,0,2.7,0,3.7,0c1,0,3.7,0,5.9,0c2.3,0,5.2,0,6.5-0.1
	c1.3,0,2.8-0.1,3.4-0.1c1.4,0,4-0.1,6.9-0.3C74.2,3.1,75.7,3,76.2,3c0.5,0,1.7-0.1,2.7-0.2c2-0.1,5.5-0.2,8.3-0.3c1,0,2,0,2.2-0.1
	c0.3,0,1.3,0,2.4,0c1,0,2.3,0,2.7,0s2.2,0,3.8,0c1.6,0,3.4,0,3.9,0c0.5,0,1,0,1.2,0.1c0.2,0.1,0.4,0.1,0.8,0c0.4-0.1,0.5-0.1,0.5,0
	c0,0.1,0,0.1,0.2,0c0.1,0,0.7,0,1.4,0c0.7,0,1.2,0,1.2,0c0,0-0.1-0.1-0.2-0.1c-0.2,0-0.2,0,0,0c0.1,0,0.4,0,0.7,0.1
	c0.4,0.2,0.7,0.2,2.2,0.2c4.7,0.1,8.6,0.3,8.6,0.3c0,0.1-1.3,0.1-7.7,0c-1.9,0-4.6,0-5.8,0c-1.3,0-3.9,0-5.9,0c-5.2,0-5.5,0-6.7,0
	c-0.6,0-1.8,0-2.6,0c-0.9,0-2.3,0-3.1,0c-0.9,0-1.7,0-1.8,0.1c-0.2,0-0.3,0-0.4,0c-0.1,0-0.9,0-5.3,0.1c-1.2,0-2.8,0.1-3.6,0.1
	c-0.8,0-2.3,0.1-3.2,0.1c-5.7,0.2-7.6,0.3-14.3,0.3C51.7,3.9,47.7,4,42,4.2c-1,0-2.6,0.1-3.5,0.1c-0.9,0-1.8,0-2.2,0l-3.1,0
	c-0.1,0-0.2,0-0.2,0.1c-0.1,0-0.2,0-0.2,0c-0.5,0-1,0-0.9,0c0.1,0.1-0.8,0.1-3.2,0.1c-1.1,0-2.5,0-3,0.1c-0.5,0-1.2,0-1.4,0.1
	c-0.2,0-0.5,0-0.7,0c-0.2,0,0.1,0,0.8,0.1c0.8,0,1,0,0.7,0.1c-0.7,0.1-0.2,0.1,1.2,0.1c1,0,1.6,0,1.8,0c0.2,0,0.3,0.1,0.2,0.1
	c-0.1,0-0.2,0-0.2,0.1C28.3,5,28.4,5,28.9,5c0.4,0,0.6,0,0.6,0c0,0-0.3,0-0.8,0c-0.7,0-0.8,0-0.9,0.1c-0.1,0.1-0.1,0.1-2.4,0.1
	c-1.5,0-2.3,0-2.2,0.1c0.1,0,0.3,0,0.5,0s0.4,0,0.4,0c0,0.1-0.5,0.1-1.5,0.1c-0.5,0-1.1,0-1.4,0l-0.5,0l1.1,0.1l-0.4,0.1
	c-0.3,0-0.6,0-1.3,0c-0.9,0-1.4,0-1.4,0.1C18.8,5.9,20.7,6,22.7,6.1z M126.5,3.4c-0.1,0-0.2,0-0.2,0c0,0,0.1-0.1,0.3-0.1
	c0.1,0,0.2,0,0.2,0C126.8,3.4,126.7,3.4,126.5,3.4z M138.4,3.4c0.5,0,0.7,0,0.4,0c-0.3,0-0.7,0-1,0C137.6,3.4,137.9,3.3,138.4,3.4z
	 M131.5,1.2c0.1,0,0.2,0,0.2,0.1c0,0-0.1,0.1-0.2,0.1c-0.1,0-0.2,0-0.2-0.1C131.4,1.2,131.4,1.2,131.5,1.2z M109.1,2.6
	c-0.2,0-0.4,0-0.6,0c-0.2,0,0,0,0.3,0C109.1,2.6,109.2,2.6,109.1,2.6z M112.4,2.5c-0.3,0-0.4,0-0.4,0.1c0.1,0-0.1,0.1-0.2,0.1
	c-0.2,0-0.3,0-0.3-0.1c0,0-0.8-0.1-1.8-0.1c-1.2,0-1.7,0-1.5-0.1C108.5,2.3,111.9,2.4,112.4,2.5C112.8,2.5,112.8,2.5,112.4,2.5z
	 M115.7,2.8c-2.1,0-3-0.1-3-0.1c0,0,0.3-0.1,0.8-0.1l0.8,0L113,2.5l0.6,0c0.4,0,0.8,0,1.1,0.1c0.7,0.2,5.6,0.3,7,0.2
	c0.8-0.1,2.8,0,7.5,0.1c3.6,0.1,6.7,0.2,6.9,0.2c0.4,0,0.4,0,0.1,0.1c-0.2,0-0.2,0.1,0.3,0c0.7,0,1,0.1,0.3,0.1c-0.2,0-1,0-1.7,0
	c-0.7,0-1.3,0-1.5,0.1c-0.1,0-1.3,0.1-2.7,0.1c-2.4,0-4-0.1-3.8-0.2c0.1,0-0.1-0.1-0.4-0.1C126.1,3.1,119.6,2.9,115.7,2.8z
	 M28.7,7.2c0.4,0,0.7,0,0.7,0C29.3,7.2,29,7.2,28.7,7.2c-0.4,0.1-0.7,0.1-0.7,0C28,7.2,28.3,7.2,28.7,7.2z M25.8,6.9
	c0.4,0,1.6,0,1.6,0c0,0-0.8,0.1-1.3,0C25.8,6.9,25.7,6.9,25.8,6.9z"/>
<path class="st0" d="M199.6,189.7C199.4,189.7,199.4,189.7,199.6,189.7c0.1-0.1,0.1-0.1-0.1-0.1c-0.1,0-0.6,0-0.9,0
	c-0.6,0-0.7,0-0.8,0.1c-0.1,0.1-0.1,0.1-0.4,0.1c-0.2,0-1,0-1.9,0s-2,0-2.6,0c-1.1,0-1.9,0-1.9,0.2c0,0.1,1.2,0.3,1.9,0.3
	c0.8,0,1.7,0.1,1.6,0.2c-0.1,0-0.2,0-0.4,0c-0.3-0.1-0.9-0.1-3.1-0.1l-1.3,0l0.6,0.1c0.4,0.1,0.8,0.2,1,0.4c0.4,0.3,0.6,0.3,1.9,0.3
	c0.5,0,1.2,0,1.7,0c0.9,0.1,1.4,0,1.1-0.1c-0.1,0-0.2-0.1-0.1-0.2c0-0.1-0.1-0.1-0.5-0.1c-0.3,0-0.6,0-0.7-0.1c-0.1,0,0.3,0,0.9,0
	c0.8,0,1.1,0,1.2-0.1c0.1-0.1,0.1,0,0.1,0.2c0,0.1,0.1,0.3,0.2,0.3c0.2,0.1,0.2,0.2,0.2,0.5c-0.1,0.3-0.2,0.6-0.2,0.3
	c0-0.1-0.3-0.2-1-0.2c-0.5,0-0.8-0.1-0.6-0.1c0,0,0-0.1-0.1-0.1c-0.1,0-0.1,0-0.1-0.1c0.1-0.1,0-0.1-0.4-0.1c-0.2,0-0.6,0-0.9-0.1
	c-0.3,0-0.8,0-1.1,0l-0.7,0l0.5,0.1c0.5,0.1,1,0.4,0.9,0.6c-0.1,0.1-0.5,0.2-1.5,0.2c-0.4,0-0.8,0-0.9,0.1c-0.1,0.1-2,0.1-4.1,0
	c-0.4,0-0.6,0-0.6,0.1c0,0.1,0,0.1,0.1,0.1c0.3,0,1.6,0.3,2.3,0.6c0.6,0.2,1.1,0.6,1.1,0.8c0,0.1-0.1,0.1-0.3,0.1
	c-0.2,0-0.5,0-0.8,0c-0.3,0-0.4,0-0.4-0.1c0-0.1-0.1-0.1-0.2-0.1c-0.2,0-0.2,0.1-0.4,0.4c0,0.1-0.2,0.2-0.3,0.2
	c-0.2,0-0.3-0.2-0.1-0.4c0.1-0.1,0.1-0.1,0-0.1c-0.1,0-0.2-0.1-0.3-0.1c-0.1-0.1-0.3-0.1-0.6-0.1c-0.3,0-0.5,0-0.5-0.1
	c0.1-0.1-0.3-0.2-1.1-0.2c-0.5,0-0.6,0-0.5-0.1c0.2-0.1,0.2-0.1,0-0.1c-0.1,0-0.4-0.1-0.6-0.2c-0.2-0.1-0.6-0.2-1-0.2
	c-0.7,0-0.6,0.1,0.1,0.1c0.3,0,0.5,0.1,0.5,0.1c0.1,0.1-0.8,0-1.4-0.2c-0.3-0.1-0.8-0.1-1.3-0.1s-1.2,0-1.6,0c-0.6,0-0.8,0-0.8,0.1
	c0,0.1-0.8,0.2-1,0.1c0,0-0.6-0.1-1.2-0.1c-0.6,0-1.1-0.1-1.1-0.1c0,0,0.1-0.1,0.3,0c0.2,0,0.4,0,0.4,0c0.1,0,0.4-0.1,0.8,0
	c0.5,0,0.7,0,0.6,0c-0.2-0.1-3.8-0.1-4-0.1c-0.1,0-0.7,0-1.5,0c-0.7,0-1.6,0-1.8,0c-0.3,0-0.5,0-0.6,0c-0.1,0-0.9,0-1.9,0
	c-0.9,0-2.2,0-2.7,0c-0.9,0-1.1,0-1.2,0.1c-0.1,0.1-0.1,0.1,0.2,0.2c0.2,0.1,0.5,0.1,0.6,0.1c0.2,0,0.2,0,0.2,0.1
	c-0.1,0.1,0,0.1,0.2,0c0.1,0,0.7,0,1.1,0c0.5,0,1.4,0.1,2.1,0.1c0.9,0,1.2,0,1.3,0.1c0,0,0.4,0.1,0.8,0.1c0.4,0,0.7,0.1,0.7,0.1
	c0,0-0.2,0.1-0.6,0c-0.3,0-1.4,0-2.4,0c-1,0-1.6,0-1.3,0c0.3,0,0.8,0.1,1.2,0.1c0.4,0.1,0.9,0.1,1.3,0c0.3,0,0.7,0,0.8,0
	c0.3,0.1-0.6,0.2-1.2,0.2c-0.3,0-0.5,0-0.5,0c0,0,0.1,0.1,0.2,0.1c0.4,0,0.3,0.3-0.1,0.3c-0.3,0-0.3,0-0.1,0c0.1,0,0.3,0.1,0.3,0.1
	c0,0,0.3,0.1,0.7,0.2c0.8,0.1,0.9,0.2,0.1,0.2c-0.3,0-2.4,0-4.5,0c-2.2,0-4,0-4.1,0s0.3-0.1,0.7-0.1l0.8,0l-0.8,0
	c-0.4,0-0.9-0.1-1-0.1c-0.1,0-1.1-0.1-2.1-0.1c-1,0-2.4-0.1-3-0.1c-0.6,0-1.7,0-2.3,0c-1.1,0-1.1,0-0.6,0.1c0.3,0,0.6,0.1,0.6,0.2
	c0,0.1-0.2,0.1-1.3,0.1c-3.1,0-6.4,0-6.3,0.1c0.3,0.1,2.7,0.3,4.1,0.3c0.7,0,1.9,0.1,2.5,0.1c0.7,0,1.7,0.1,2.2,0.1
	c0.5,0,1.6,0.1,2.4,0.1c3.2,0.2,4.5,0.3,5.2,0.2c0.8-0.1,0.9-0.1,3.9-0.1c1.2,0,3.1,0,4.1,0c2.3,0,3.8,0.1,7.6,0c1.7,0,3.6,0,4.4,0
	c1.5,0,1.9-0.1,0.8-0.2l-0.6-0.1l0.5,0c0.3,0,0.6,0,0.8,0c0.5,0.1,2.9,0.2,4.7,0.2c1.7,0,2.1,0,1.6,0.1c-0.1,0-0.4,0.1-0.5,0.1
	c-0.3,0-1.3,0.1-7,0.1c-4,0-5.8,0-13.9,0c-1.7,0-2.5,0-2.8,0.1c-0.4,0.1-0.4,0.1-0.2,0.1c0.2,0,0.1,0.1-0.2,0c-0.3,0-3.4,0-7,0
	c-3.6,0-7.3,0.1-8.1,0.1c-0.9,0-1.6,0-1.6,0.1s-0.4,0-0.9,0c-0.5,0-1.2,0-1.6,0c-0.4,0-1.4,0-2.3,0.1c-0.9,0-1.6,0-1.5,0.1
	c0.1,0,0,0.1-0.1,0.1c-0.2,0.1-0.2,0.1-0.7,0.1c-0.4,0-0.5-0.1-0.1-0.2c0.1,0,0.2,0,0.2,0c-0.1,0-1.2,0-2.5,0c-1.3,0-3.2,0-4.3,0
	c-1.1,0-2.9,0-4-0.1c-2.6,0-5.7-0.1-8.6-0.1c-1.2,0-4.1,0-6.5,0c-2.4,0-4.5,0-4.8,0c-0.7-0.1-7.8,0-7.8,0.1c0,0-0.2,0.1-0.6,0
	c-0.8-0.1-9.4,0.1-9.4,0.1c0,0,0.4,0,0.8,0c0.4,0,0.8,0,0.9,0.1c0.1,0-0.2,0.1-1.3,0.1c-1.6,0-2.3-0.1-1.4-0.2c0.5,0,0.5,0-0.2,0
	c-0.4,0-0.9,0-1.1,0.1c-0.2,0-0.4,0-0.4,0c-0.1-0.1-1.1-0.1-4.1-0.1c-1.3,0-1.7,0-1.9,0.1c-0.3,0.1-0.5,0.1-0.4,0
	c0.1-0.1-0.3-0.1-2.5,0c-3,0.1-2.7,0.1,0.3,0.1c1.3,0,1.9,0,1.8,0c-0.1,0-1.7,0.1-3.6,0.1c-4.2,0.1-11.9,0.3-12.8,0.3
	c-0.5,0-0.6,0.1-0.6,0.1c0.1,0.1-0.1,0.1-0.5,0.1c-0.5,0-0.6,0-0.5-0.1c0.1-0.1-0.2-0.1-1.3-0.1c-0.7,0-1.7,0-2.1,0
	c-0.4,0-0.9-0.1-1.2-0.1c-0.3,0,0.4,0,1.5,0c1.7,0,1.9,0,1.8-0.1c-0.1-0.1-1.1-0.1-5.2,0c-2.8,0.1-5.3,0.1-5.7,0.2
	c-0.6,0.1-5.3,0.2-9,0.3c-0.6,0-1.2,0.1-1.2,0.1c-0.1,0.1,1.4,0,3.5,0c2.7-0.1,7.1-0.1,6.4,0c-0.5,0.1-0.4,0.1,0.1,0
	c0.3,0,0.6,0,0.7-0.1c0.1,0,0.1-0.1,0.2,0c0.1,0.1,1.8,0.2,2.1,0.1c0.1,0,0.6,0,1.2-0.1c0.8,0,0.9,0,0.5,0c-0.5,0.1-1.1,0.1-9.2,0.3
	c-3,0.1-5.6,0.2-5.8,0.2c-0.1,0,2.3,0,5.3-0.1c3-0.1,5.9-0.1,6.3-0.1c0.9,0-13.3,0.4-17.2,0.4c-1.6,0-2.6,0-2.4,0
	c0.2,0,0.6-0.1,0.8-0.1c1,0,5.6-0.1,5.5-0.2c-0.1,0-2.7,0-5.9,0c-3.2,0-6.9,0.1-8.2,0.1c-1.3,0-3.6,0.1-5,0.1
	c-3.2,0.1-8.7,0.1-8.4-0.1c0,0,0-0.1-0.1-0.2c-0.2-0.1-0.1-0.1,0.1-0.1c0.2,0,0.5,0,0.7,0.1c0.4,0.1,0.4,0.1,0.3-0.1
	c-0.1-0.1-0.3-0.1-0.6-0.1c-0.4,0-0.4,0,0.1-0.1c0.7-0.1,0.6-0.1-0.9-0.2c-1.2-0.1-1.7-0.2-1.4-0.3c0.2-0.1,0.2-0.1,0-0.2
	c-0.2-0.1-0.2-0.1,0.1-0.1c1.4,0.2,3.8,0.4,3.8,0.3c0,0-0.3-0.1-0.7-0.1c-0.9-0.1-1.4-0.2-1.4-0.3c0-0.1-0.2-0.1-0.4-0.1
	c-0.2,0-0.6,0-0.8-0.1c-0.4-0.1-1.4-0.1-2.3-0.1c-0.4,0-0.5,0-0.4-0.1c0.1-0.1,0-0.1-0.4-0.1c-0.3,0-0.5,0-0.6-0.1
	c-0.1,0,0-0.1,0.1,0c0.1,0,0.7,0,1.4,0.1c0.9,0,1.1,0,1,0c-0.1,0-0.2-0.1-0.4-0.1c-0.2,0-0.3-0.1-0.1-0.2c0.2-0.1,0.3-0.1,1.8,0
	c1.3,0.1,1.8,0.1,2.9,0.1c1.1-0.1,1.3-0.1,0.9-0.1c-0.3-0.1-0.3-0.1,0.5-0.1c0.9,0,0.9,0,0.8-0.2c-0.1-0.2,0-0.2,0.7,0.1
	c0.6,0.2,0.9,0.3,0.9,0.2c0,0,0.4,0,0.9,0c1,0,1.3-0.1,0.4-0.1c-0.3,0-1.1-0.1-1.9-0.2c-1.1-0.1-1.4-0.2-1.4-0.2
	c0-0.1-0.1-0.1-0.2-0.1c-0.1,0-0.2,0-0.2,0s0.5-0.1,1.1-0.1c0.6,0,1.2,0,1.1-0.1c0-0.1-1.5-0.2-2.8-0.3c-1,0-2.2-0.2-2.5-0.3
	c-0.1,0,0.2,0,0.5,0c0.3,0,0.7,0,0.7-0.1c0.1-0.1-1.2-0.3-2-0.4c-0.2,0-0.4-0.1-0.4-0.1c0,0-0.1-0.1-0.3-0.1c-0.2,0-0.4,0-0.5-0.1
	c-0.1-0.1-0.4-0.1-0.6-0.1c-0.2,0-0.4,0-0.5-0.1c-0.1,0-0.3-0.1-0.6-0.2c-0.3-0.1-0.4-0.1-0.2-0.1c1.7,0.2,3.7,0.2,5.5,0.1
	c0.6,0,0.9,0,0.8,0c-0.1,0,0.1,0.1,0.4,0.1c0.4,0,0.5,0,0.3-0.1c-0.2-0.1,0-0.1,1.1-0.1c1,0,1.2,0,1.2-0.1c0,0-0.1-0.1-0.2-0.1
	c-0.1,0-0.2,0-0.3,0c-0.1,0,0,0,0.2-0.1c0.3,0,0.3,0-0.1-0.1c-0.2-0.1-0.5-0.1-0.6-0.1c-0.2,0-0.5,0-0.8-0.1l-0.5-0.1l0.9,0
	c0.5,0,0.9,0,0.9-0.1c-0.1-0.2,0-0.2,0.6-0.2c0.4,0,0.6,0,0.6,0c0,0,0.3-0.1,0.8,0c0.6,0,0.8,0,0.8-0.1c0,0,0.1-0.1,0.2-0.1
	c0.1,0,0.9,0,1.7,0c0.8,0,2,0,2.6,0.1c0.9,0,1.2,0,1.5,0c0.4-0.1,0.4-0.1-0.4-0.1c-0.4,0-1.5-0.1-2.4-0.1c-0.9-0.1-1.9-0.1-2.3-0.1
	c-0.3,0-1,0-1.4-0.1c-0.4,0-0.9-0.1-1.1-0.1c-0.5,0-1.1-0.1-1.1-0.2c0-0.1,0.2-0.2,1.1-0.1c0.5,0,1,0.1,1.2,0c0.2,0,0.5,0,0.6,0
	s0.7,0.1,1.3,0.1c0.5,0,1.3,0,1.7,0.1c0.5,0,0.7,0,0.8,0c0.1,0,0.3-0.1,0.5-0.1c0.4,0,0.4,0-0.1,0.1c-0.8,0.1,2.1,0.2,4.5,0.1
	c1.2,0,2.1,0,2.2,0c0.1,0.1,1.4,0.1,1.4,0c0,0-0.1-0.1-0.3-0.1c-0.2,0-0.3,0-0.4-0.1c-0.1,0-0.6-0.1-1.3,0c-1.2,0-3.7-0.1-4.2-0.3
	c-0.2,0-0.1-0.1,0.5,0c0.4,0,0.9,0,1,0.1c0.1,0,0.3,0,0.3,0c0-0.1-1.8-0.1-2.4-0.1c-0.5,0.1-1.7,0-1.7-0.1c0,0-0.1,0-0.2,0
	c-0.1,0-0.6,0-1.2,0c-0.6,0-0.9-0.1-0.8-0.1c0.1,0,0.5,0,0.9,0c0.4,0,0.7,0,0.8,0c0.1,0-3.9-0.4-4.3-0.4c-0.4,0-0.8,0-1.5-0.2
	c-0.2-0.1-0.3-0.1-0.2-0.1c0.1,0,0.4-0.1,0.5-0.1c0.1-0.1,0.4-0.1,0.5-0.1c0.5,0-0.1-0.1-0.9-0.1c-0.4,0-0.7-0.1-0.7-0.1
	c0,0-0.4-0.1-0.9,0c-0.5,0-0.9,0-0.9,0c0.1-0.1-0.8-0.1-3-0.1c-1.1,0-2.3,0-2.9-0.1c-0.5,0-1.1-0.1-1.3-0.1c-0.2,0-0.5,0-0.6-0.1
	c-0.2,0,0.1-0.1,0.8-0.1c0.7,0,0.9-0.1,0.7-0.1c-0.7-0.1-0.2-0.2,1.1-0.2c0.9,0,1.5,0,1.7-0.1c0.2-0.1,0.3-0.1,0.2-0.1
	c-0.1,0-0.2-0.1-0.2-0.1c0-0.1,0.1-0.1,0.6-0.1c0.4,0,0.6,0,0.6-0.1c0,0-0.3-0.1-0.8-0.1c-0.7,0-0.8,0-0.8-0.1
	c-0.1-0.1-0.1-0.1-2.3-0.1c-1.4,0-2.2,0-2.1,0c0,0,0.3-0.1,0.5-0.1c0.2,0,0.4,0,0.4-0.1c0-0.1-0.5-0.2-1.4-0.2c-0.5,0-1.1,0-1.3,0
	l-0.5,0l1.1-0.2l-0.4-0.1c-0.3-0.1-0.5-0.1-1.2,0c-0.8,0.1-1.3,0.1-1.3-0.1c0-0.2,1.7-0.4,3.6-0.5c1.4-0.1,2.7-0.3,2.1-0.4
	c-0.2,0-0.5-0.1-0.8-0.1c-0.4-0.1-0.5-0.1-0.2-0.2c0.2,0,0.5-0.1,0.7-0.1c0.3,0,0.4,0,0.4-0.1c-0.1-0.1-0.5-0.1-1.5,0
	c-0.8,0-1.5,0-1.6,0c-0.1-0.1,1-0.4,1.7-0.4c0.3,0,0.8-0.1,1.1-0.2c0.5-0.1,0.6-0.1,0.3-0.2c-0.5-0.1-0.3-0.2,0.3-0.2
	c0.7,0,0.9-0.1,0.2-0.1c-0.4,0-0.5-0.1-0.3-0.2c0.1-0.1,0.1-0.1-0.1-0.2c-0.1,0-0.2-0.1-0.2-0.1c0.1,0,2.4-0.2,4.7-0.3
	c1.3-0.1,2.6-0.2,2.7-0.2c0,0,0.2-0.1,0.4-0.1c0.4,0,0.5-0.1,0.3-0.2c-0.1-0.1-0.5-0.1-0.9-0.1c-0.8,0-0.9-0.1-0.1-0.2
	c0.6,0,0.6-0.2,0-0.1l-0.5,0l0.4-0.1c0.2-0.1,0.4-0.1,0.3-0.2c0-0.1-0.2-0.1-0.9-0.1l-0.8,0l0.7-0.1c0.7-0.1,1-0.2,0.5-0.2
	c-0.1,0-0.8,0.1-1.4,0.1c-1,0-1.2,0-1.2-0.1c0-0.1-0.1-0.1-0.9-0.1c-0.5,0-1,0-1.2,0c-0.3-0.1,0.7-0.2,2.5-0.2
	c1.3,0,1.7-0.1,1.6-0.1c0-0.1,0.2-0.1,0.5-0.1c0.4,0,0.5,0,0.4-0.1c-0.1-0.1,0-0.1,0.5-0.2c0.3-0.1,0.7-0.2,0.8-0.2
	c0.1-0.1,0.5-0.1,5.8-0.2c3.3-0.1,6.1-0.1,6.7,0c1.1,0.1,5.1,0,5.4,0c0.1,0,0.6,0,1.2-0.1c0.6,0,1.2,0,1.5-0.1c0.2,0,0.9,0,1.6,0
	c0.7,0,2.3,0.1,3.7,0.1c1.4,0,2.8,0,3.2,0c1.3,0.1,2,0.1,7.4,0c2.9,0,5.6,0,6,0c0.4,0,1.9,0,3.2,0c1.4,0,2.5,0,2.7,0.1
	c0.1,0,0.3,0,0.4,0c0.3-0.1,4.6-0.2,8.4-0.2c4.7,0,6.4,0,10.9,0c2.3,0,4.2,0,5.5,0.1c1.1,0.1,2.2,0.1,2.6,0.1c0.3,0,1.2,0,1.9,0.1
	c0.7,0,2,0.1,2.8,0.1c1.8,0,2.8,0,3.3,0.1c0.2,0,0.5,0,0.6-0.1c0.3-0.1,1.2-0.1,1,0c0,0,0,0.1,0.1,0.1c0.1,0,0.2,0,0.2-0.1
	c0-0.1,0.3-0.1,0.5-0.1c0.1,0,0.3,0,0.5,0c0.5,0,2,0,4.2,0.1c1.2,0,2,0,2.1,0c0.2-0.1,1.5-0.1,2.4,0c0.4,0,1.1,0.1,1.6,0.1
	c0.7,0,0.9,0,0.9-0.1c0-0.1,0.1-0.1,0.1-0.1c0.1,0,0.2,0,0.2,0.1c0,0,0.1,0.1,0.3,0c0.6-0.1,0.7-0.1,0.7,0c0,0.1,0.2,0.1,0.3,0
	c0-0.1,0.3-0.1,1.3,0c1.2,0.1,1.8,0,0.9,0c-0.3,0-0.5-0.1-0.5-0.1c0-0.1,2,0,2.2,0c0.1,0,0.3,0.1,0.6,0c0.3,0,0.4,0,0.3-0.1
	c-0.1-0.1,0-0.1,0.1-0.1c0.1,0,0.2,0,0.2-0.1c0-0.1-0.9-0.2-1.1-0.2c-0.1,0-0.2,0-0.3-0.1c-0.3-0.1-1.5-0.1-5.5-0.1
	c-4,0-10.3,0-12.5-0.1c-3.8-0.1-6.4-0.2-15-0.3c-1.1,0-3.1,0-4.5,0c-1.4,0-3-0.1-3.5-0.1c-0.5,0-1.8-0.1-2.9-0.1
	c-2.8,0-5.8-0.1-8.6-0.2c-0.3,0-0.5,0-0.5,0c0.2,0.1,1.9,0.1,4.5,0.2c2.2,0,3.3,0.2,1.3,0.1c-0.7,0-1.8,0-2.5-0.1
	c-0.7,0-2.3-0.1-3.7-0.1c-1.4,0-2.6-0.1-2.8-0.1c-0.2,0-0.8,0-1.4,0c-0.6,0-1.4,0-1.7-0.1c-0.6-0.1-4.4-0.2-6.6-0.2
	c-2,0-3.1,0-4.9-0.1c-3.1-0.1-4.3-0.1-4.5,0c-0.3,0.1-0.7,0.2-1,0.1c-0.2-0.1-0.3-0.1-0.4,0c-0.1,0-0.2,0.1-0.4,0c-0.1,0-2,0-4.2,0
	c-4.7,0-4.6,0-5.4,0c-0.3,0-1.7-0.1-3.1-0.1c-4.1-0.1-4.5-0.1-4.2-0.1c0.2,0,0-0.1-0.7-0.1c-0.8,0-1.3,0-2.2,0.1
	c-0.7,0.1-1.2,0.1-1.3,0.1s0.1-0.1,0.2-0.1c0.6-0.1,0.4-0.2-0.2-0.1c-0.6,0-2.1,0.3-2.2,0.3c-0.1,0.1-1.4,0.2-1.3,0.1
	c0.1-0.1-1.5,0-1.7,0.1c-0.2,0.1-0.6,0.1-0.5,0c0.1-0.1,0-0.1-0.3-0.1c-0.8,0-1.9,0.2-2.4,0.3c-0.5,0.2-1.3,0.2-1.1,0.1
	c0.1,0-0.1-0.1-0.2-0.1c-0.2,0-0.3,0-0.2,0.1c0.1,0.1-0.8,0.1-1.7,0c-0.4,0-1-0.1-1.2-0.1c-0.4,0,0.8-0.2,2.3-0.3
	c0.2,0,0.3-0.1,0.3-0.1c-0.1,0-0.3,0-0.5,0c-0.3,0-0.5,0-0.5,0c0-0.1,0.5-0.2,1.2-0.2c0.3,0,0.5,0,0.5-0.1c0,0,0.2-0.1,0.5-0.1
	c0.3,0,0.6,0,0.7-0.1c0.2,0-0.1-0.1-0.9-0.1c-1.3,0-1.4,0-0.1-0.1c0.5,0,1.1-0.1,1.2-0.1c0.2,0,0.6,0,1,0c0.4,0,0.7,0,0.6-0.1
	c0,0-0.1-0.1-0.2-0.1c-0.1,0-0.4,0-0.7,0c-0.5,0-0.5,0-0.1-0.1c0.2,0,0.6-0.1,0.9-0.1c0.3,0,0.7,0,0.8,0c0.2,0,5.1-0.1,11.4-0.1
	c1.5,0,4.4,0,6.4,0s4.8,0,6.2,0c1.4,0,3.3,0,4.3,0c3.1,0,6.1,0,6.5,0.1c0.2,0,0.1,0-0.4,0c-1.2,0-2.1,0-2.3,0.1
	c-0.1,0.1,0.1,0.1,0.9,0.1c0.6,0,1.7,0.1,2.4,0.1c0.8,0,2,0.1,2.7,0.1c0.7,0,1.9,0.1,2.5,0.1c0.6,0,2.5,0.1,4.2,0.1
	c1.7,0,3.3,0.1,3.5,0.1c0.3,0,0.9,0,1.4,0s1.1,0.1,1.3,0.1c0.7,0.2,3.6,0.3,4.9,0.3c0.4,0,1.1,0,1.5,0c0.4,0,1,0,1.2,0
	c0.3,0,1.4,0,2.6,0.1c2.6,0.1,5.3,0.1,7.3,0.1c2.7,0,5,0.1,6.3,0.1c0.6,0,1.9,0,2.9,0c1.1,0,2.9,0,4,0c1.1,0,2.3,0.1,2.5,0
	c1.5,0,4,0,4,0c0,0-0.3,0.1-0.7,0.1l-0.7,0l0.9,0c0.5,0,2.1,0,3.5,0c1.4,0,3.1,0,3.8,0c0.7,0,2.9,0,4.9,0c2,0,4.3,0,5,0
	c1.1,0,1.3,0,1.3-0.1c0-0.1-0.1-0.1-0.2-0.1c-0.1,0,0,0,0.2,0c0.2,0,0.3,0,0.4,0.1c0,0.1,1.1,0.3,1.4,0.2c0.1,0,0.3,0,0.4,0
	c0.1,0,0.6,0,1.2,0c0.7,0,1,0,1,0.1c0,0.1,0.1,0.1,1.1,0.2c1,0.1,2.4,0.2,2.3,0.1c0,0,0-0.1,0.1-0.1c0.2-0.1,0-0.1-1.3-0.1
	c-0.6,0-1.1,0-1.2-0.1c-0.2-0.1,0-0.1,0.7,0c0.8,0,0.8,0,0.6-0.1c-0.2-0.1-0.2-0.1,0.2-0.1c0.5,0,1,0.1,1.2,0.2
	c0.2,0.1,1.8,0.3,2.8,0.3c0.3,0,1,0,1.5,0c0.5,0,1.4,0,2,0c0.6,0,1.4,0,1.8,0c0.7-0.1,0.6-0.1-0.2-0.1c-0.1,0-0.3,0-0.4-0.1
	c-0.1,0-0.3,0-0.3,0c-0.1,0-0.2,0-0.2,0c0-0.1,1.3-0.2,1.7-0.1c0.6,0.1,5,0.1,5.2,0c0.1-0.1-0.6-0.1-2.2-0.1c-0.2,0-0.3-0.1-0.1-0.1
	c1.1-0.1,1.4-0.1,1.5,0c0,0,0.3,0,0.5,0c0.6,0,0.6-0.2,0-0.2c-3-0.2-7.4-0.3-10.2-0.2c-2.1,0-9.4,0.1-10.5,0.1c-0.3,0-0.9,0-1.2-0.1
	c-0.5,0-0.4-0.1,0.6-0.1c0.7,0,1.1,0,0.9-0.1c-0.4-0.1-8.9-0.2-9.2-0.1c-0.1,0-0.4,0-0.7,0c-0.3,0-1.2,0-2.2,0c-1.1,0-1.8,0-2,0
	c-0.3-0.1-0.1-0.1,0.8-0.1c0.6,0,1.2-0.1,1.2-0.1c0.1,0,0.3-0.1,0.6,0c0.2,0,0.7,0,1,0c0.3,0,1.6,0,2.9,0c1.3,0,3.2,0,4.3,0
	c1.1,0,2.6,0,3.3,0c1.8,0.1,4.1,0.1,4.1,0c0,0,0.2,0,0.4,0c0.3,0.1,0.8,0.1,1.8,0c0.8,0,1.4-0.1,1.5,0c0.1,0,0.6-0.1,0.6-0.2
	c0,0-0.5-0.1-0.8-0.1c0,0-0.3,0-0.7-0.1c-0.3-0.1-1.3-0.1-2.2-0.1c-1,0-1.8,0-2-0.1c-0.3-0.1-2.6-0.2-6-0.2c-2.3,0-4.8-0.1-6.1-0.2
	l-1,0l1.5-0.1l-0.7-0.1c-0.6-0.1-0.4-0.1,1.8-0.1c1.4,0,3.1,0,3.8,0c2.2,0.1,2.4,0.1,2.4,0c0-0.1,0.2-0.1,0.9-0.1
	c1.3,0,2.4,0.1,2.7,0.1c0.2,0.1,0.2,0,0.3,0c0,0,0.2-0.1,0.4-0.1c0.2,0,0.3,0,0.1,0.1c-0.3,0.1,0.3,0.1,0.7,0.1
	c0.2,0,0.3-0.1,0.1-0.1c-0.1,0-0.3,0-0.3,0c-0.1-0.1,1.8-0.1,2.2,0c0.2,0,1.4,0.1,2.8,0.1c2.4,0.1,4.6,0.2,2.7,0.1
	c-2.2,0-5.3,0-5.1,0c0.5,0.1,5.4,0.3,9.1,0.4c2.5,0,4.6,0.1,4.8,0.1c0.1,0,0.5,0,1,0.1s1.5,0.1,2.4,0.2c0.9,0.1,2.3,0.1,3.2,0.1
	c1.1,0,1.6,0,1.6,0.1c0,0.1,0.5,0.2,1.4,0.1c0.5,0,0.6,0,0.5-0.1c-0.2-0.1-0.2-0.1,0-0.1c0.6,0,0.2-0.2-0.5-0.3
	c-0.3,0-0.5-0.1-0.5-0.1c0-0.1,0.9-0.1,1.9,0c1.7,0.2,3.3,0.2,4.1,0.2c0.5,0,0.8,0,0.8,0c0,0,0.2,0.1,0.4,0.1c0.5,0.1,1.2,0.1,1.1,0
	c0-0.1-0.4-0.2-0.7-0.2c-0.3,0-0.3,0-0.3-0.1c0-0.1,0.1-0.1,0.1-0.1c0,0,0.4,0.1,0.8,0.2c0.6,0.1,0.7,0.2,0.7,0.3
	c0,0.1,0.1,0.2,1.6,0.3c0.9,0.1,2.3,0.3,3,0.4c0.8,0.1,1.9,0.3,2.4,0.4c0.9,0.2,1,0.2,1,0.3c-0.1,0.1-0.5,0.1-1.3,0
	c-0.2,0-0.6-0.1-0.8-0.1c-0.2,0-0.4,0-0.5-0.1c-0.1-0.1-1.6-0.2-2.5-0.2l-0.8,0l1,0.1c0.6,0.1,1,0.2,1.1,0.2
	c0.1,0.1,0.8,0.2,1.7,0.1c0.8-0.1,1.1,0,0.3,0.1l-0.6,0.1l0.5,0c0.3,0,1.1,0,1.8,0.1c0.7,0,1.3,0,1.4,0.1c0,0-0.4,0-1,0
	c-0.6,0-1.2,0-1.3,0c-0.3,0-0.3,0,0.7,0.2c0.4,0.1,0.4,0.1,0.1,0.1c-0.2,0-0.5,0-0.6,0c-0.2,0-0.5-0.1-0.8-0.1c-0.3,0-0.5,0-0.5,0
	s-0.3-0.1-0.5-0.1c-0.2,0-0.6,0-0.7-0.1c-0.2,0-0.3,0-0.2,0.1c0.1,0.1,0.1,0.1-0.1,0.1c-0.1,0-0.2-0.1-0.2-0.1
	c0.1-0.1,0-0.1-0.3-0.1c-0.2,0-0.3,0-0.3,0.1c0,0.1,0.4,0.2,1,0.2c0.5,0.1,1.1,0.1,1.3,0.2c0.4,0.1,1,0.2,1.3,0.2
	c0.1,0,0.4,0.1,0.7,0.1c0.3,0.1,0.8,0.1,1,0.1c0.2,0,0.4,0,0.4,0.1c0,0.1,0.2,0.1-2.5-0.2c-0.6-0.1-1.2-0.1-1.3-0.1
	c-0.3,0-1.3,0-3.4-0.2c-1.3-0.1-2-0.1-1.9,0c0,0,0.3,0.1,0.7,0.1c0.3,0,0.7,0.1,0.8,0.1c0.3,0.1,2.2,0.3,3.2,0.3
	c1.3,0,2.4,0.1,2.8,0.2c0.6,0.1,1.7,0.2,2.1,0.1c0.3-0.1,0.4,0,0.5,0c0.1,0.1,0.3,0.1,1.1,0.2c1.2,0.1,1.3,0.1,1,0
	c-0.2-0.1-0.2-0.1,0.1,0c0.2,0,1.1,0.1,2,0.2c0.9,0.1,1.8,0.2,2,0.2c0.4,0.1,0.5,0.1,0.4,0c-0.1-0.1,0-0.1,0.5,0
	c0.2,0,0.3,0.1,0.3,0.1c-0.1,0,0.2,0,0.5,0c0.4,0,0.9,0,1.1,0l0.5,0l-0.5-0.2c-0.3-0.1-0.6-0.2-0.7-0.2c-0.1,0-0.2,0-0.3-0.1
	c-0.1,0,0-0.1,0.4,0c0.4,0,0.5,0,0.4-0.1c-0.1-0.1,0-0.2,0.2-0.1c0.1,0,0.2,0.1,0.2,0.1c0,0.1,0.1,0.1,0.4,0.1
	c0.6,0,0.8,0.1,0.8,0.2c0,0.1,0.1,0.2,0.3,0.2c0.2,0.1,0.2,0.2,0.1,0.3c-0.3,0.3-0.1,0.4,0.9,0.4c0.5,0,0.9,0,0.9,0
	c0.1,0,0.2,0.1,0.4,0.1c0.2,0,0.4,0,0.6,0.1c0.2,0.1,0.2,0.1,0,0.1c-0.2,0.1-0.2,0.1,0.1,0.3c0.3,0.2,0.4,0.2,0.9,0.2
	c0.3,0,0.5,0,0.4-0.1c-0.1-0.1,0.1-0.1,0.3,0c0.1,0,0,0.1-0.2,0.1c-0.2,0.1-0.2,0.1,0.6,0.1c0.8,0,1.6,0.1,1.6,0.3
	c0,0.1,0.9,0.2,2,0.2c0.7,0,1.1,0,2.2,0c0.7,0,0.7,0,0.2,0.1c-0.2,0-0.6,0.1-0.8,0c-0.3,0-0.3,0-0.2,0c0.1,0.1,0.5,0.1,1.6,0
	c0.8,0,1.6,0,1.6,0c0,0,0.5,0.1,1,0c0.5,0,1.3,0,1.8,0c0.5,0,1.1,0,1.3,0l0.4-0.1l-0.5-0.1c-0.3,0-0.6-0.1-0.8-0.1
	c-0.2,0-1.1-0.1-2-0.1c-1.9,0-5.2-0.2-5.9-0.2c-0.7-0.1-0.7-0.2,0.1-0.2c0.4,0,0.7,0,0.7,0c0,0,1.3,0,2.9,0c2,0,2.9-0.1,2.8-0.1
	c-0.1,0-0.3-0.1-0.6-0.1c-0.3,0-0.4,0-0.4-0.1c0.2-0.1,3.5,0.1,4.9,0.4c0.4,0.1,1,0.1,1.2,0.1c0.2,0,0.4,0,0.4,0.1
	c0,0.1,0.1,0.1,0.2,0.1c0.3-0.1,0.4,0,0.4,0.3c0,0.1,0.1,0.2,0.3,0.2c0.8,0,5.1,0.1,5.9,0.2c1.8,0.2,1.8,0.2,1.6,0
	c-0.1-0.1-0.3-0.1-0.5-0.1c-0.2,0-0.3,0-0.4,0c0,0-0.6-0.1-1.3-0.2c-0.7-0.1-1.2-0.2-1.3-0.2c0,0-0.3-0.1-0.5-0.1
	c-0.3,0-0.3-0.1-0.1-0.1c0.2,0,0.4,0,0.5,0.1c0.1,0,1.1,0.2,2.1,0.3c1.3,0.1,2.1,0.2,2.7,0.4c0.5,0.1,1.2,0.3,1.7,0.4
	c0.5,0.1,0.8,0.2,0.7,0.2c-0.1,0-0.4,0-0.7-0.1c-0.6-0.1-0.6-0.1-0.3,0.2c0.1,0.1,0.2,0.2,0.2,0.2c0,0-0.6-0.1-1.2-0.3
	c-2-0.5-3-0.7-3.5-0.5c-0.3,0.1-0.3,0.1,0,0.2c0.2,0,0.8,0.1,1.5,0.2c1.4,0.1,1.4,0.1,1.3,0.2c-0.1,0-0.2,0-0.3,0
	c-0.3-0.1-2.2-0.2-2.7-0.2c-0.5,0-0.4,0,0.8,0.1c0.5,0,0.9,0.1,0.8,0.1c-0.1,0-1.5-0.1-2.7-0.2c-0.2,0-0.3,0-0.3,0
	c0,0.1,1.4,0.3,2.2,0.3c0.9,0,1.3,0.1,0.6,0.1l-0.5,0l0.5,0.1c0.3,0.1,0.5,0.1,0.5,0.1c0,0.1-0.4,0-1.1-0.2
	c-0.3-0.1-1.1-0.2-1.9-0.2c-0.9,0-1.1-0.1-0.7-0.1c0.7,0,0.8-0.1,0.1-0.2c-0.2,0-0.5-0.1-0.6-0.1c-0.2-0.1-1.9-0.1-3.8-0.2
	c-1.9,0-4.9-0.1-7.2-0.1c-3.3-0.1-3.9-0.1-3.9,0c0,0,0.3,0.1,0.6,0.2c0.4,0.1,0.8,0.2,1.3,0.1c0.8,0,1.5,0.1,1.3,0.3
	c-0.1,0.1-0.2,0.1-0.5,0.1l-0.4,0l0.3,0.2c0.2,0.1,0.5,0.2,0.7,0.3c0.2,0.1,0.3,0.2,0.3,0.2c0,0.1,0.6,0.1,2.7,0.2
	c0.8,0,1.6,0,1.8,0c0.3,0,1,0,1.7,0c0.7,0,2.5,0,4.1,0c2.1,0,2.9,0,3-0.1c0.3-0.1,0.3-0.2-0.2-0.2c-0.2,0,0.1,0,0.7,0
	c0.6,0,1.4-0.1,1.7-0.1c0.5-0.1,0.6,0,0.4,0.1c-0.1,0.1-0.3,0.1-1.1,0c-0.8,0-1,0-1.1,0c-0.2,0.2-0.1,0.3,0.3,0.2c0.2,0,0.4,0,0.4,0
	c0,0,0.3,0.1,0.8,0.1c1,0,2.2,0.2,2.6,0.3c0.3,0.1,0.3,0.1-0.2,0.1c-0.3,0-0.7,0-0.9,0c-0.4,0-0.4,0-0.2,0.1c0.2,0,0.2,0-0.2,0
	c-1.8-0.1-2.7-0.1-5.1-0.1c-1.5,0-3.4,0-4.2-0.1c-0.8,0-2.1,0-2.7,0c-1,0-1.1,0-0.9,0.1c0.2,0.1,0.2,0.1-0.1,0
	c-0.2,0-0.7-0.1-1.3-0.1c-0.9,0-1,0-1,0.1c0,0.1,0.1,0.2,0.2,0.2c0.1,0,1.9,0,3.9,0c3.6,0,5.5,0.1,5.7,0.2c0.1,0-0.1,0-0.3,0
	c-1.6-0.1-7.8,0-8.1,0.1C200,189.7,199.8,189.7,199.6,189.7z M196,191.6C196.2,191.5,196.2,191.5,196,191.6c0-0.1-0.2-0.1-0.2,0
	C195.8,191.5,195.9,191.6,196,191.6z M190.6,191.4c0.1,0,0.2,0.1,0.3,0.1c0.1,0,0.2,0,0.1-0.1c-0.1,0-0.2-0.1-0.3-0.1
	C190.6,191.3,190.6,191.4,190.6,191.4z M188.8,193.4C188.9,193.4,188.9,193.4,188.8,193.4c0-0.1-0.1-0.1-0.1-0.1c0,0-0.1,0-0.1,0.1
	C188.6,193.4,188.7,193.4,188.8,193.4z M157.6,195.4C157.7,195.3,157.8,195.3,157.6,195.4c0-0.1-0.2-0.1-0.2,0
	C157.3,195.3,157.4,195.4,157.6,195.4z M155.4,195.5c0.3,0,0.3,0,0.2,0c-0.2,0-0.4,0-0.5,0C155,195.4,155.1,195.5,155.4,195.5z
	 M150.6,195.2c0.9,0,2.3,0,3.2,0c3.1,0.1,3.2,0.1,2.7,0c-1-0.1-2.6-0.2-4.3-0.2c-1,0-2.2,0-2.7,0c-0.6,0-0.9,0-0.9,0
	C148.5,195.2,149,195.2,150.6,195.2z M12.2,195.9c-0.1,0-0.2-0.1-0.3-0.1c-0.1,0-0.1,0-0.1,0.1C11.9,196,12,196,12.2,195.9
	C12.2,196,12.2,196,12.2,195.9z M15,196.5c-0.4-0.1-1-0.1-0.9,0c0.1,0,0.4,0.1,0.7,0C15.2,196.5,15.2,196.5,15,196.5z M18.2,195.6
	c-0.2,0-0.4,0-0.5,0c-0.1,0,0,0,0.3,0C18.3,195.6,18.4,195.6,18.2,195.6z M15.9,194.1c0.1,0,0.3,0.1,0.5,0.1c0.2,0,0.1,0-0.1-0.1
	C15.8,194,15.6,194,15.9,194.1z M17.4,193.7c-0.4-0.1-2.8-0.2-2.6-0.1c0.1,0,0.5,0.1,1.1,0.1C16.4,193.8,17.1,193.8,17.4,193.7
	l0.4,0.1L17.4,193.7z M19.4,193.8c-0.1,0,0,0,0.2,0c0.2,0,0.3,0,0.2,0C19.6,193.8,19.5,193.8,19.4,193.8z M19.6,192.2
	c-0.1,0-0.2,0-0.3,0C19.3,192.3,19.4,192.3,19.6,192.2C19.7,192.3,19.8,192.3,19.6,192.2z M20.2,193.1c-0.1-0.1-0.5,0-0.5,0
	c0,0,0.1,0,0.3,0C20.2,193.1,20.3,193.1,20.2,193.1z M21.4,191.2c-0.1,0-0.2,0-0.3,0C21.1,191.2,21.2,191.2,21.4,191.2
	C21.5,191.2,21.6,191.2,21.4,191.2z M11.1,185.3c-0.2,0-0.3,0.1-0.2,0.1c0.4,0,1.5,0,1.5,0C12.3,185.3,11.5,185.3,11.1,185.3z
	 M13.5,184.8c-0.3,0-0.6,0-0.6,0.1c0,0,0.3,0.1,0.6,0.1c0.3,0,0.6,0,0.6-0.1C14.2,184.9,13.9,184.8,13.5,184.8z M18.8,183.4
	c-0.1,0-0.2,0-0.2,0.1c0,0,0.1,0.1,0.2,0.1c0.1,0,0.2,0,0.2-0.1C19,183.4,18.9,183.4,18.8,183.4z M31.5,189.9c-0.1,0-0.3,0-0.4,0
	c-0.1,0,0,0,0.2,0C31.6,189.9,31.7,189.9,31.5,189.9z M30.1,191.1c0.3,0,1.6,0.1,1.5,0c0,0-0.4,0-0.9,0
	C30.1,191,29.9,191,30.1,191.1z M31.9,189.6c-3-0.1-10.3,0.1-9.2,0.2c0.3,0,0.9,0,1.4,0c0.5,0,1.1,0,1.3,0.1c0.2,0,0.8,0.1,1.3,0
	c0.5,0,1,0,1,0c0,0,0.6,0,1.3,0c0.7,0,1.3,0,1.3-0.1c0,0-0.2-0.1-0.4-0.1c-0.2,0-0.5,0-0.6-0.1c-0.2,0-0.1-0.1,0.3,0
	c0.3,0,0.7,0,0.8,0c0.3,0,0.3,0,0.1,0.1c-0.1,0.1-0.1,0.1,0,0.1c0.1,0,0.2-0.1,0.3-0.1c0.1-0.1,0.4-0.1,1.1-0.1
	C33.3,189.7,33.2,189.7,31.9,189.6z M102.9,195.2c0.1,0,0.2,0,0.2-0.1C103.1,195.1,103,195.1,102.9,195.2c-0.1-0.1-0.2,0-0.2,0
	S102.9,195.2,102.9,195.2z M95.8,195.9c0.2,0-0.3,0-1.1,0c-0.8,0-1.5,0.1-1.5,0.1C93,196,95.5,195.9,95.8,195.9z M95.5,195.1
	c1.3,0,2.7,0,3.2,0c1.2,0.1,3.3,0,3.4-0.1c0,0,0-0.1,0-0.1c-0.1,0-0.1,0-0.2,0c0,0-0.1,0.1-0.2,0c-0.2-0.1-1-0.1-5.1,0
	c-2,0-3.6,0-3.5,0.1C93.1,195.1,94.2,195.1,95.5,195.1z M95.9,192.9c-0.1,0-0.4,0-0.5,0s0,0,0.3,0C95.9,192.9,96,192.9,95.9,192.9z
	 M92.4,193.8c0.4,0,0.6,0,0.6-0.1c0-0.1-1.1,0-1.2,0.1C91.8,193.8,92,193.8,92.4,193.8z M76.5,196c0.6,0,3.6,0,6.5-0.1
	c3,0,5.6-0.1,5.9-0.1c0.3,0,1.2,0,1.9-0.1c1.3-0.1,1.3-0.1,0.7-0.1c-1.2-0.1-1.9-0.1-3.5-0.1c-0.9,0-2.1,0-2.6,0c-0.6,0-1.7,0-2.6,0
	c-0.9,0-1.8,0-2.1,0c-0.3,0-1,0-1.6,0c-0.6,0-1.5,0-1.8,0c-0.4,0-0.7,0-0.7,0c0,0-0.1,0.1-0.1,0c-0.1,0-15.5,0.2-15.4,0.2
	c0.1,0.1,7.3,0.2,12.3,0.2C74.5,196,75.9,196,76.5,196z M88.7,193.9c1.1,0,1.8,0,1.8-0.1c0.1,0-0.1-0.1-0.3-0.1
	c-1.1-0.1-2.7-0.1-3.2-0.1c-0.6,0-0.6,0-0.3,0.1C86.9,193.8,87.2,193.8,88.7,193.9z M85.1,193.6c-0.1,0-0.4,0-0.6,0
	c-0.4,0-0.4,0-0.1,0c0.2,0,0.7,0.1,1.1,0.1c0.6,0,0.8,0,0.8-0.1C86.2,193.6,85.5,193.6,85.1,193.6z M85.9,191c-0.1,0-0.3,0-0.3,0
	C85.5,191,85.6,191.1,85.9,191C86.2,191.1,86.2,191,85.9,191z M67.6,190.6c-2.9-0.1-6.3-0.1-6.4-0.1c-0.3,0.1,0.7,0.2,3.9,0.2
	c0.4,0,2.2,0.1,4,0.1c5.5,0.2,6,0.2,6.8,0.1c0.4,0,0.8,0,0.8,0c0,0,0.8,0.1,1.8,0.1c1,0,2.4,0.1,3.1,0.1c2.8,0.1,2.7,0.1,2.6-0.1
	c0,0,0.1,0,0.2,0c0.1,0,0.4,0,0.6,0l0.4,0l-0.4-0.1c-0.6-0.1-1.9-0.2-4.3-0.2c-2.4,0-2.8-0.1-5.2-0.1c-3.2-0.1-4.2-0.1-4.3,0
	C70.9,190.6,69.9,190.7,67.6,190.6z M69.8,190.5c-0.1,0-0.3,0-0.4,0c-0.1,0,0,0,0.2,0C69.8,190.6,69.9,190.5,69.8,190.5z M58,192.4
	c-3,0-10.4,0.1-10.3,0.2c0.1,0,0.7,0,1.4,0c1.4,0,2.7,0,4.6,0.1c1.4,0,1.8,0,3.1,0c0.5,0,2.5-0.1,4.5-0.1c2,0,5.1-0.1,7-0.1
	s3.2,0,2.9,0c-1.9-0.1-3.9-0.1-7.1-0.1C62.2,192.4,59.4,192.4,58,192.4z M58.5,192.2c-0.4,0-0.7,0-0.7,0c0,0.1,1.7,0.1,1.9,0
	C59.9,192.2,59.7,192.2,58.5,192.2z M56.9,192.2c0,0-0.1,0-0.2,0c-0.1,0-0.2,0.1-0.2,0.1s0.1,0,0.2,0
	C56.8,192.3,56.9,192.3,56.9,192.2z M48.5,194.7C48.7,194.6,48.7,194.6,48.5,194.7c0-0.1-0.2-0.1-0.2,0
	C48.2,194.6,48.3,194.7,48.5,194.7z M55.1,194.3c0.1,0,0.8-0.1,1.7-0.1c1.2,0,1.5,0,1-0.1c-0.3,0-1,0-1.5,0c-0.5,0-1.5,0.1-2.2,0.1
	c-1.3,0-1.3,0-0.8,0.1C54,194.4,54.9,194.4,55.1,194.3z M63.4,194.3c-0.1,0-1.8,0-3.7,0c-2.1,0-3.2,0-2.8,0.1c0.8,0.1,6.8,0,6.8,0
	C63.6,194.4,63.5,194.3,63.4,194.3z M64.3,193.3c0.5,0,0.6,0,0.6-0.1c0-0.1-0.2-0.1-1.3-0.1c-0.7,0-1.1,0-0.9,0.1
	c0.3,0,0.6,0,0.7,0.1C63.5,193.3,63.9,193.3,64.3,193.3z M71.9,194.7c-2,0-2.5,0-1.8,0.1c0.6,0,1.9,0,3.1,0c1.7,0,2,0,1.8-0.1
	C74.7,194.6,73.9,194.6,71.9,194.7z M74,193.5c-0.4,0-0.9,0-1,0c-0.2,0,0,0.1,0.4,0.1c0.3,0,0.8,0,1.1,0
	C75.2,193.6,74.8,193.6,74,193.5z M76.6,192.3c0.3,0,0.4,0,0.3,0c-0.1,0-0.4,0-0.5,0C76.2,192.3,76.3,192.3,76.6,192.3z M76.7,194.8
	C76.9,194.8,76.9,194.8,76.7,194.8c0-0.1-0.2-0.1-0.2,0C76.4,194.8,76.5,194.8,76.7,194.8z M77.8,192.3c0.3,0,0.5,0,0.3,0
	c-0.2,0-0.5,0-0.6,0C77.3,192.3,77.4,192.3,77.8,192.3z M77.1,194.8c0,0,0.6,0,1.3,0c0.9,0,1.1,0,0.6,0
	C78.4,194.7,76.9,194.7,77.1,194.8z M79.5,193.7C79.7,193.6,79.8,193.6,79.5,193.7c0-0.1-0.2-0.1-0.2,0
	C79.3,193.6,79.4,193.7,79.5,193.7z M68,196.1c0.3,0,0.5,0,0.3,0c-0.2,0-0.5,0-0.6,0C67.5,196.1,67.6,196.1,68,196.1z M69.7,196.1
	C69.8,196.1,69.9,196.1,69.7,196.1c0-0.1-0.2-0.1-0.2,0C69.4,196.1,69.5,196.1,69.7,196.1z M72.8,196.4c0.2,0,0.3,0,0.2,0
	c-0.1,0-0.3,0-0.4,0C72.5,196.4,72.6,196.4,72.8,196.4z M66.6,196.6c0.1,0,1.4-0.1,2.9-0.1c1.9,0,2.8-0.1,2.8-0.1c0,0-1.3,0-3.9,0
	c-2.1,0-3.8,0.1-3.7,0.1C64.9,196.6,66.5,196.6,66.6,196.6z M53.2,196.3c6.5-0.1,6.1-0.1,5.8-0.2c-0.2,0-0.1-0.1,0.4-0.1
	c0.5,0,0.5,0,0.3,0.1c-0.2,0,0.3,0,1.3,0c0.9,0,1.6,0,1.7,0c0.1,0.1,0.4,0,0.4,0c0,0,1-0.1,2.1-0.1l2.1,0l-1.5,0
	c-0.8,0-2.6-0.1-4.1-0.1c-1.7,0-3.1,0-4.1,0c-0.8,0-2,0.1-2.8,0c-1.7,0-7.1,0.1-8.1,0.1l-0.8,0.1l0.7,0c0.6,0,1.5,0,5.1,0
	c1.4,0,1.1,0-0.5,0.1c-0.7,0-1.4,0.1-1.4,0.1C49.7,196.4,51.3,196.4,53.2,196.3z M46.7,196.5c1.3,0,2.1-0.1,1.9-0.1
	c-0.2,0-0.2-0.1,0.1-0.1c0.2,0-0.6,0-1.7,0c-1.1,0-2.1,0.1-2.2,0.1C44.6,196.5,45.3,196.5,46.7,196.5z M45,194.8
	C45.4,194.8,45.3,194.8,45,194.8c-0.3-0.1-0.7-0.1-0.9-0.1c-0.3,0-0.3,0,0.1,0C44.4,194.8,44.8,194.8,45,194.8z M45.2,192.6
	c-0.2,0-0.4,0-0.5,0c-0.1,0,0,0,0.3,0C45.2,192.6,45.3,192.6,45.2,192.6z M43.7,196.9C43.8,196.9,43.9,196.9,43.7,196.9
	c0-0.1-0.2-0.1-0.2,0C43.4,196.9,43.5,196.9,43.7,196.9z M43.8,196.5c0.5,0,0.5-0.1,0.3-0.1c-0.2,0-0.5,0-0.8,0
	C42.7,196.5,43,196.6,43.8,196.5z M42,197.7C42.2,197.7,42.2,197.7,42,197.7c0-0.1-0.2-0.1-0.2,0C41.8,197.7,41.9,197.7,42,197.7z
	 M41.2,197.2c0.1,0.1,0.7,0.1,1.5,0c0.4,0,0.4-0.1-0.5,0C41.5,197.1,41.1,197.2,41.2,197.2z M41.8,196.2l-0.8,0.1l0.9,0
	c0.5,0,0.9,0,0.8-0.1C42.6,196.2,42.2,196.2,41.8,196.2z M41.9,195.5c0.1-0.1-1.7,0-1.9,0.1c-0.1,0,0.3,0,0.8,0
	C41.4,195.6,41.8,195.5,41.9,195.5z M21.6,194.7c-0.1,0-0.2,0-0.3,0S21.4,194.7,21.6,194.7C21.7,194.7,21.7,194.7,21.6,194.7z
	 M22.8,196.7c-0.5-0.1-2-0.1-2,0c0,0,0.2,0.1,0.4,0.1c0.2,0,0.8,0.1,1.3,0.1l0.9,0L22.8,196.7z M24.2,195.8c-0.2,0-0.4,0-0.5,0
	c-0.1,0,0,0,0.3,0C24.3,195.8,24.4,195.8,24.2,195.8z M29.4,195.8c-0.1,0-0.1-0.1-0.2-0.1c0,0-0.1,0-0.1,0.1
	C29.2,195.9,29.3,195.9,29.4,195.8C29.5,195.9,29.5,195.9,29.4,195.8z M29.6,191.8c-0.1,0-0.2,0-0.3,0
	C29.3,191.8,29.4,191.9,29.6,191.8C29.7,191.8,29.8,191.8,29.6,191.8z M32.6,191.9c-0.4,0-1.1,0-1.5,0c-0.6,0-0.7,0-0.5,0.1
	c0.4,0.1,2.7,0.1,2.7,0C33.3,191.9,33,191.9,32.6,191.9z M24.2,196.6c-0.7,0-0.8,0-0.5,0.2c0.2,0.1,0.6,0.1,1.9,0.1
	c1,0,1.6,0,1.6-0.1c-0.1,0,0.1,0,0.3,0c0.5,0,9.6-0.1,13-0.2c3.8-0.1,2.1-0.2-3.1-0.1C32.4,196.6,25.3,196.7,24.2,196.6z
	 M39.3,196.3l-0.6,0c-0.3,0-0.6,0-0.6,0.1c0,0,0,0.1,0,0.1c0,0,0.3,0,0.6-0.1L39.3,196.3z M37.7,195.6c-0.2,0-0.5,0-0.7,0
	c-0.2,0,0,0,0.3,0C37.7,195.6,37.9,195.6,37.7,195.6z M38,189.5c-0.2,0-0.5,0-0.7,0C37.1,189.5,38.2,189.5,38,189.5z M34.6,191.4
	C34.3,191.5,34.3,191.5,34.6,191.4c0.2,0.1,0.5,0.1,0.7,0.1c0.6,0,4,0,3.9,0C38.9,191.4,34.8,191.4,34.6,191.4z M40.1,189.5
	C40,189.5,40,189.6,40.1,189.5c0,0.1,0.1,0.1,0.1,0.1c0,0,0.1,0,0.1-0.1C40.3,189.5,40.2,189.5,40.1,189.5z M38.5,194.8
	c-0.2,0,0.7,0,2.3,0c1.7,0,2.7-0.1,2.7-0.1C43.5,194.6,39.1,194.7,38.5,194.8z M42,190.1c-0.1,0,0,0,0.2,0c0.2,0,0.2,0,0.1,0
	C42.2,190.1,42.1,190.1,42,190.1z M44.2,189.1c-0.4,0-1.2,0-1.6,0c-0.7,0-0.5,0.1,0.8,0C44.6,189.2,44.8,189.2,44.2,189.1z
	 M44.5,189.5c-0.1,0-0.2,0-0.3,0C44.1,189.6,44.2,189.6,44.5,189.5C44.5,189.6,44.6,189.5,44.5,189.5z M45.8,189.1
	c-0.1,0-0.3,0-0.4,0c-0.1,0,0,0,0.2,0C45.9,189.2,45.9,189.1,45.8,189.1z M46,189.5c-0.2,0-0.5,0-0.7,0c-0.2,0,0,0,0.3,0
	C46,189.5,46.2,189.5,46,189.5z M46.7,190c-0.2,0-3.2,0.1-3.3,0.1c-0.1,0,1.8,0,2.6,0C46.5,190,46.8,190,46.7,190z M45.8,192.5
	c-0.1,0,0.1,0.1,0.6,0.1c0.4,0,0.8,0,0.9,0C47.4,192.5,46.1,192.5,45.8,192.5z M46.6,194.7c0,0,0.3,0,0.7,0c0.5,0,0.8,0,0.7-0.1
	C47.9,194.6,46.7,194.6,46.6,194.7z M48.9,189.6c-0.8,0-1.4,0-1.4,0c0,0.1,0.8,0.1,1.8,0l1.1-0.1L48.9,189.6z M57.3,189.4
	c-1.1,0-2,0.1-1.9,0.1c0.2,0.1,4,0,4,0C59.4,189.4,58.7,189.4,57.3,189.4z M60.5,189.4c-0.1-0.1-0.2-0.1-0.4,0
	c-0.1,0.1-0.1,0.1,0.2,0.1C60.6,189.5,60.6,189.5,60.5,189.4z M62.3,189.4c-0.2,0-0.5,0-0.7,0c-0.2,0,0,0,0.3,0
	C62.4,189.4,62.5,189.4,62.3,189.4z M70.5,181.1c-0.1,0-0.3,0-0.4,0c-0.1,0,0,0,0.2,0C70.5,181.2,70.6,181.1,70.5,181.1z
	 M74.7,189.5c-0.1,0,0,0,0.3,0c0.3,0,0.4,0,0.3,0C75,189.5,74.8,189.5,74.7,189.5z M75.5,181.1c-0.2,0-0.6,0-0.8,0c-0.2,0,0,0,0.4,0
	C75.6,181.1,75.8,181.1,75.5,181.1z M98.7,190.2c-2.9-0.1-6.5-0.2-8.3-0.2c-0.6,0-1.6,0-2.2-0.1c-0.6,0-1.5,0-2.1-0.1
	c-0.6,0-1.6-0.1-2.3-0.1c-2.1,0-4.8-0.1-5.1-0.1c-0.1,0-0.7,0-1.2-0.1c-0.7,0-0.9,0-0.7,0c0.4,0.1,0.2,0.2-0.3,0.1
	c-0.2,0-1.3-0.1-2.3-0.1c-1.1,0-2.9,0-4.1-0.1c-2.1-0.1-2.2-0.1-2.4,0.1c-0.1,0.1-0.3,0.1-0.4,0.1c-0.2,0-0.2-0.1,0-0.1
	c0.3-0.1-5.6-0.2-8.7-0.1c-1.9,0-2.6,0.1-1,0.1c0.4,0,0.9,0,1,0.1c0.2,0-0.5,0.1-2.6,0.1c-1.6,0-3.1,0-3.5,0c-0.4,0-0.7,0-0.7,0
	c0-0.1-4.1,0-4.3,0.1c-0.1,0.1-0.1,0.1,0.3,0.1c0.3,0,0.8,0,1.1,0c0.3,0,1.8,0,3.2,0s3.3,0,4.2,0c0.9,0,2.8,0,4.2,0
	c5.3,0,8.8,0,12.6,0c0.5,0,1.5,0,2.2,0c2.4,0,5.3,0.1,5.6,0.2c0.3,0,0.3,0,0.1,0c-0.2-0.1-0.2-0.1,0.2,0c0.2,0,1.2,0,2.2,0
	c1.7,0,1.8,0,1-0.1c-0.4,0-1.2-0.1-1.6-0.1c-1.6,0-2-0.1-2-0.1c0,0,0.1,0,0.1,0c0.1,0,0.8,0,1.7,0c0.8,0,2.1,0,2.9,0.1
	c1.2,0.1,3.3,0.1,4.6,0.2c0.2,0,0.5,0,0.6,0c0.3,0,2,0.1,3.3,0.1c0.5,0,2.3,0,3.9,0c1.7,0,3.2,0,3.5,0c0.3,0,0.8,0,1.2,0
	C103.3,190.3,103.6,190.3,98.7,190.2z M104.1,181.2c-0.1,0-0.2,0-0.3,0C103.8,181.2,103.8,181.2,104.1,181.2
	C104.2,181.2,104.2,181.2,104.1,181.2z M107.5,190.3c-0.1,0-0.2,0-0.3,0C107.1,190.4,107.2,190.4,107.5,190.3
	C107.6,190.4,107.6,190.3,107.5,190.3z M104.7,194.9c-0.1,0,1,0,2.3,0c1.3,0,2.7,0,2.9,0c0.3,0,0.5,0,0.5,0
	C110.5,194.8,104.9,194.8,104.7,194.9z M111.6,195.1c0.2,0,0.5-0.1,0.3-0.2c-0.1-0.1-0.6,0-0.6,0.1
	C111.4,195,111.5,195.1,111.6,195.1z M113.5,193.1c-0.4,0-1,0-1.5,0l-0.8,0l0.8,0C112.4,193.2,113.1,193.2,113.5,193.1l0.7,0
	L113.5,193.1z M115.5,195c0,0,0.4,0,0.9,0.1c0.4,0,0.8,0,0.7,0C117,195,115.4,194.9,115.5,195z M24.5,178.8c-1,0-1.5,0.1-1.5,0.2
	c0,0.1,1,0.1,1.2,0C24.2,178.9,24.4,178.9,24.5,178.8c0.3,0.1,0.5,0.1,0.6,0C25.2,178.9,25,178.8,24.5,178.8z M27.4,178.9
	c-0.1,0-0.4,0-0.7,0c-0.3,0-0.6,0-0.6,0.1c0,0,0.4,0.1,0.8,0.1c0.5,0,0.8,0,0.7-0.1C27.5,178.9,27.4,178.9,27.4,178.9z M29.5,178.8
	c-1.6,0-2.2,0.1-1.5,0.2c0.5,0.1,3.8,0,3.8-0.1C31.9,178.8,31.3,178.8,29.5,178.8z M34.1,179.3c0.8,0,1.3-0.1,1.3-0.1
	c0,0-0.5-0.1-1.3,0c-0.8,0-1.3,0-1.3,0.1C32.8,179.3,33.4,179.3,34.1,179.3z M34,178.9c-0.5,0-0.8,0-1.1,0c-0.3,0.1-0.1,0.1,0.7,0.1
	l1.1,0L34,178.9z M36.1,178.9c-0.2,0-0.6,0-0.8,0c-0.2,0,0,0,0.4,0C36.2,178.9,36.4,178.9,36.1,178.9z M38.2,178.7
	c-0.4,0-0.4,0-0.1,0c0.4,0.1,0.5,0.1,0.5,0C38.6,178.7,38.4,178.7,38.2,178.7z M40.8,178.6c-1.2,0-1.7,0-1.7,0.1
	c0,0.1,0.6,0.1,1.8,0c1,0,1.8,0,1.7-0.1C42.6,178.7,41.8,178.7,40.8,178.6z M45.5,178.7c-0.1,0-0.1-0.1-0.2-0.1c0,0-0.1,0-0.1,0.1
	C45.3,178.7,45.3,178.7,45.5,178.7C45.5,178.7,45.5,178.7,45.5,178.7z M46.5,178.7c-0.1,0-0.3,0-0.4,0c-0.1,0,0,0,0.2,0
	C46.5,178.7,46.6,178.7,46.5,178.7z M45.1,179.3c-1.6-0.1-8.6,0-8.5,0c0.2,0.1,2.6,0.1,5.3,0.1c1.4,0,3.2,0,3.8,0
	C47.5,179.4,47,179.3,45.1,179.3z M48.1,179.3C48.3,179.3,48.4,179.2,48.1,179.3c0-0.1-0.2-0.1-0.2,0
	C47.9,179.3,48,179.3,48.1,179.3z M49,178.6c-0.6,0-1.1,0-1.3,0c-0.3,0.1-0.3,0.1,0.2,0.1c0.3,0,0.9,0,1.4,0
	C50.4,178.7,50.2,178.7,49,178.6z M68.9,179.8c-0.1,0-0.6-0.1-1.2-0.1c-2.2-0.1-3.8-0.1-5-0.1c-0.7,0-1.3,0-1.4-0.1
	c-0.1-0.1-2.2-0.1-5.4-0.2c-1.4,0-2.7,0-2.9,0c-0.6,0-3.4,0-3.5,0c-0.1,0,0.7,0.1,1.8,0.1c1.1,0,2.2,0.1,2.5,0.1c0.3,0,1.6,0,3,0
	c1.3,0,2.9,0.1,3.5,0.1c0.6,0,1.9,0.1,2.9,0.1c1.1,0,2.4,0.1,3,0.1C68.7,179.8,69.1,179.8,68.9,179.8z M133.7,194.7
	c0.1,0,0.4,0.1,0.5,0.1c0.3,0,0.3,0,0.1-0.1C134.2,194.7,134,194.7,133.7,194.7C133.5,194.7,133.5,194.7,133.7,194.7z M132.8,193.9
	c0.9,0.1,3.6,0.1,3.2,0c-0.2,0-1.1-0.1-2.1-0.1C132.9,193.9,132.5,193.9,132.8,193.9z M125.3,180.7c-0.3,0-0.7,0-1-0.1
	c-0.3,0-0.5,0-0.5,0c0,0,0.3,0.1,0.7,0.1c0.4,0,0.9,0,1,0.1c0.1,0,0.3,0,0.3,0C125.8,180.8,125.5,180.7,125.3,180.7z M125.6,194.8
	c-1.6,0-2.7,0-2.8-0.1c-0.1-0.1-0.6-0.1-3.1,0c-2,0.1-2.6,0.1-1.6,0.2c0.4,0,1,0.1,1.2,0.1c0.3,0,0.5,0,0.6,0c0.1-0.1,0.4-0.1,1-0.1
	c0.8,0,0.9,0,0.6,0.1c-0.3,0.1-0.1,0.1,0.7,0.1c0.6,0,1.8,0,2.8,0c1.1,0,1.7,0,1.7,0c-0.1,0,0.6-0.1,1.7-0.1c1.9,0,2.3-0.1,0.8-0.1
	C128.6,194.8,127,194.8,125.6,194.8z M127.9,193.9c-0.1,0,0,0,0.3,0c0.3,0,0.3,0,0.2,0C128.3,193.9,128,193.9,127.9,193.9z
	 M128.7,192.9c-0.1,0-0.3,0-0.4,0c-0.1,0,0,0,0.2,0C128.8,192.9,128.8,192.9,128.7,192.9z M131.1,193.9c-0.9-0.1-2.4,0-2.3,0
	c0.1,0,0.7,0,1.5,0C131.5,193.9,131.6,193.9,131.1,193.9z M136.8,193c-0.3-0.1-1.4-0.2-3-0.1l-1.5,0l1,0.1
	C134.8,193.1,137,193.1,136.8,193z M136.6,194.6c0.3,0.1,0.9,0.1,1,0c0.1,0-0.2-0.1-0.6-0.1C136.6,194.5,136.5,194.5,136.6,194.6z
	 M138.1,181c-0.1,0-0.5-0.1-0.9,0c-0.5,0-0.5,0-0.3,0.1C137.4,181.1,138.4,181.1,138.1,181z M138.6,191.3c-0.2-0.1-0.9-0.1-1.2,0
	c-0.1,0,0,0,0.2,0.1C138.3,191.4,138.9,191.4,138.6,191.3z M163.7,192.9c-0.1,0-0.2,0-0.2,0C163.5,192.9,163.6,193,163.7,192.9
	c0.1,0.1,0.2,0.1,0.2,0.1C164,192.9,163.9,192.9,163.7,192.9z M166.8,194.3c0.2,0,0.3,0,0.2,0c-0.1,0-0.3,0-0.4,0
	C166.5,194.3,166.6,194.3,166.8,194.3z M167.5,193.5c0,0-0.3-0.1-0.8-0.1c-1,0-1.2,0.1-0.3,0.1C167.1,193.6,167.4,193.6,167.5,193.5
	z M165.5,194.2c0.3,0,0.3,0,0.2,0c-0.2,0-0.4,0-0.5,0C165.1,194.2,165.3,194.2,165.5,194.2z M162.8,194.3
	C162.9,194.3,163,194.3,162.8,194.3c0-0.1-0.2-0.1-0.2,0C162.5,194.3,162.6,194.3,162.8,194.3z M160.8,194.1c0.2,0.1,1.5,0.1,1.4,0
	c0,0-0.4,0-0.8-0.1C160.8,194.1,160.6,194.1,160.8,194.1z M162,193.3c1.7,0.1,2.1,0.1,1.4,0l-0.5-0.1l0.6,0c0.9,0,3.2-0.2,2.7-0.2
	c-0.7-0.1-2.8,0-3.1,0.1c-0.3,0.1-0.8,0.1-2.1,0C159.8,193.1,160.6,193.3,162,193.3z M162.4,181.8l-0.4-0.1
	c-0.4-0.1-1.4-0.2-1.4-0.1c0,0,0.2,0.1,0.5,0.1c0.3,0,0.7,0.1,0.9,0.1L162.4,181.8z M158.4,193.1c0.2,0,0.6,0.1,1,0.1
	c0.5,0,0.6,0,0.6-0.1c-0.1-0.1-0.2-0.1-0.4,0c-0.2,0-0.4,0-0.4,0c-0.1,0-0.3-0.1-0.6,0C158.1,193,158.1,193,158.4,193.1z
	 M158.2,181.3l-0.6-0.1c-0.7-0.1-1.8-0.1-1.5,0c0.1,0,0.6,0.1,1.2,0.1L158.2,181.3z M155,192.7c0.1,0,0.2,0,0.2,0.1
	c0,0,0.2,0.1,0.5,0.1c0.3,0,0.6,0.1,0.6,0.1c0.1,0.1,0.4,0.1,0.4,0c0,0-0.2-0.1-0.4-0.2c-0.4-0.1-1.9-0.2-1.7-0.1
	C154.7,192.7,154.8,192.7,155,192.7z M152,193.9c0.3,0,0.4,0,0.3,0c-0.1,0-0.4,0-0.5,0C151.6,193.9,151.7,193.9,152,193.9z
	 M147.9,193.9c0.1,0,0.3,0.1,0.5,0.1c0.2,0,0.9,0,1.7,0.1c1.5,0.1,1.6,0.1,1.4,0c-0.1,0-0.5-0.1-0.9-0.1
	C149.6,193.9,147.8,193.8,147.9,193.9z M149.8,192.9c0.9,0,2.1,0.1,2.8,0.1c0.6,0,1.4,0,1.7,0c0.4,0,0.5,0,0.3-0.1
	c-0.1-0.1-0.3-0.1-0.3-0.1c-0.1,0-0.4-0.1-0.8-0.2c-0.3-0.1-0.7-0.1-0.8-0.1c-0.1,0-1.3,0-2.7,0c-1.4,0-2.6,0-2.7,0
	C146.9,192.7,148.2,192.9,149.8,192.9z M151.4,180.4l0.3,0l-0.4-0.1c-0.4-0.1-0.6-0.1-0.4,0C151,180.4,151.2,180.4,151.4,180.4z
	 M149.8,191.9c0,0-2.2-0.3-2.4-0.3c-0.1,0,0.2,0.1,0.7,0.2C148.8,191.9,149.8,192,149.8,191.9z M141.6,195.6
	C141.7,195.6,141.8,195.6,141.6,195.6c0-0.1-0.2-0.1-0.2,0C141.3,195.6,141.4,195.6,141.6,195.6z M140.6,194.5c1,0.1,4,0.1,4.1,0
	C144.9,194.4,142.8,194.4,140.6,194.5l-0.5,0L140.6,194.5z M141.3,191.7c-0.1,0-0.2,0-0.3,0C141,191.7,141,191.7,141.3,191.7
	C141.4,191.7,141.4,191.7,141.3,191.7z M138.9,191.5c-0.1,0,0.1,0.1,0.5,0.1c0.4,0,0.7,0,0.7,0C140.2,191.5,139.2,191.4,138.9,191.5
	z M142,191.2c-0.4-0.1-1.8-0.1-1.8,0c0,0,0.1,0.1,0.3,0.1c0.2,0,0.6,0,1,0C142.1,191.3,142.2,191.3,142,191.2z M146.5,191.6
	c-0.3,0-0.7-0.1-0.8-0.1c-0.1,0-0.7-0.1-1.4-0.1c-1.2-0.1-3.1,0-2.9,0.1c0.3,0.1,3.3,0.4,4.3,0.4c0.6,0,1.3,0,1.5,0.1
	C147.8,191.9,147.2,191.7,146.5,191.6z M146.5,179.4c-0.5,0-1.5-0.1-2.3-0.1c-0.9,0-1.5-0.1-1.7-0.1c-0.1,0-0.3-0.1-0.5-0.1
	s-0.4,0-0.6,0c-0.5-0.1-0.4,0.1,0.1,0.2c0.8,0.1,0.4,0.2-0.6,0.1c-2.1-0.1-4.4-0.2-5.1-0.2c-1.5-0.1-1.9-0.1-2,0c0,0,0,0.1,0.2,0.1
	s0.6,0,1.1,0.1c1,0.1,4.2,0.3,4.8,0.3c0.3,0,0.7,0,1,0c0.3,0,0.6,0,0.8,0c0.2,0,0.3,0,0.3,0.1c-0.1,0,0,0.1,0.1,0.1
	c0.1,0,0.3,0,0.5,0c0.2,0,0.2,0,0.2-0.1c0-0.1,0.2-0.1,1.7-0.1c1,0,2,0,2.3,0C147.3,179.5,147.3,179.5,146.5,179.4z M145.4,179.7
	c-0.9,0-1.7,0-1.8,0c-0.1,0-0.3,0-0.3,0c0,0.1,0.2,0.1,2.3,0.3c0.7,0.1,2.1,0.2,3.1,0.2c2.1,0.2,1.8,0.2,2,0.1
	c0.2-0.1-0.2-0.2-1.3-0.3c-0.6,0-1.4-0.1-1.7-0.2C147.3,179.8,146.3,179.7,145.4,179.7z M148.1,179.7c0,0,0.1,0.1,0.3,0.1
	c0.5,0.1,0.9,0.1,0.9,0C149.3,179.7,148.2,179.7,148.1,179.7z M165.7,181.1c0.3,0.1,0.5,0.2,1.1,0.2c0.4,0,0.7,0,0.7,0
	c0-0.1-2-0.4-2.1-0.3C165.4,180.9,165.5,181,165.7,181.1z M163.4,180.1c-0.7,0-1,0-0.8,0c1.3-0.1-1.4-0.2-4-0.2
	c-0.4,0-1.1,0-1.5-0.1c-1.4-0.1-1.2,0,0.4,0.2c0.4,0,0.8,0.1,1,0c0.2,0,0.4,0,0.4,0c0,0,0.2,0.1,0.4,0.1c0.2,0,1,0.1,1.7,0.2
	c1.4,0.2,4,0.2,4.4,0.1C165.6,180.2,164.7,180.1,163.4,180.1z M165.1,181.2c0.1,0,0.2,0,0.1-0.1c-0.1,0-0.2-0.1-0.2-0.1
	c-0.1,0-0.1,0-0.1,0.1C164.9,181.2,165,181.2,165.1,181.2z M164.9,180.6c0-0.1-0.8-0.2-1-0.1c-0.1,0.1-0.1,0.1,0.2,0.1
	c0.2,0,0.4,0,0.6,0S164.9,180.6,164.9,180.6z M164.7,181c0-0.2-3.4-0.4-5-0.4c-0.4,0-0.8,0-1-0.1c-0.2,0-0.9-0.1-1.7-0.1
	c-0.8,0-1.5-0.1-1.6-0.2c-0.2-0.1-0.9-0.1-2.3-0.2c-1.1,0-2.2-0.1-2.4-0.2c-0.2,0-0.5-0.1-0.8-0.1c-0.5,0-0.6,0.2-0.2,0.2
	c0.2,0,0.8,0.1,1.3,0.1c0.5,0.1,1.2,0.1,1.5,0.1c0.3,0,0.8,0,1.1,0c0.3,0,1.1,0.1,1.7,0.1s1.4,0.1,1.8,0.2c0.3,0,1,0.1,1.4,0.1
	c0.4,0,1.2,0.1,1.8,0.1c0.5,0,1.2,0.1,1.5,0c0.3,0,0.8,0,1.3,0.1C163.9,181,164.7,181.1,164.7,181z M177.2,190.8
	c-0.4-0.1-0.7-0.1-0.7,0c0,0,0.2,0.1,0.5,0.1C177.4,190.8,177.4,190.8,177.2,190.8z M179.8,190.6l-0.4,0l0.5,0.1
	c0.6,0.1,1.8,0.1,1.8,0.1C181.6,190.7,180.3,190.6,179.8,190.6z M181.7,183.7c-0.1,0-0.2,0-0.3,0
	C181.4,183.7,181.4,183.7,181.7,183.7C181.8,183.7,181.8,183.7,181.7,183.7z M182.3,183.7c-0.1,0-0.2,0-0.3,0
	C182,183.8,182.1,183.8,182.3,183.7C182.4,183.8,182.4,183.8,182.3,183.7z M186.3,192.8c0.8,0.2,1.1,0.2,0.6,0
	c-0.4-0.1-1.3-0.3-1.3-0.2C185.7,192.7,186,192.7,186.3,192.8z M185.2,192.3c0.2,0,0.3,0,0.3,0C185.5,192.2,185.4,192.2,185.2,192.3
	c-0.2-0.1-0.3-0.1-0.3-0.1C184.9,192.2,185,192.3,185.2,192.3z M183.7,183.4c-0.1,0-0.2,0-0.4,0c-0.1,0-0.2,0-0.2,0
	c0,0,0.2,0.1,0.4,0.1c0.3,0.1,0.4,0,0.4,0C183.8,183.4,183.7,183.4,183.7,183.4z M184.3,190.7c-0.1-0.1-1.1-0.1-1.3-0.1
	c-0.1,0,0,0.1,0.1,0.1C183.4,190.8,184.4,190.7,184.3,190.7z M184.2,191.3c-0.5,0-1,0-1.1,0c-0.2,0.1,0.3,0.3,0.8,0.3
	c1,0,2.5,0,2.9,0c0.3,0,0.3-0.1-0.2-0.1c-0.8,0-2.3-0.1-1.9-0.2C185.1,191.3,184.8,191.3,184.2,191.3z M186.5,185.7
	c-0.3,0-0.4,0-0.4,0C186.1,185.8,186.3,185.8,186.5,185.7C187.1,185.8,187.1,185.8,186.5,185.7z M186.8,185.9c-0.3,0-0.3,0-0.1,0.1
	c0.3,0.1,0.5,0.1,0.5,0C187.2,185.9,187,185.9,186.8,185.9z M186.2,190.2c-1.3,0-1.6,0-1,0.1c0.2,0,0.8,0.1,1.3,0.1c0.8,0,1,0,1-0.1
	C187.4,190.2,187.1,190.2,186.2,190.2z M189.7,189.9c-0.1,0-0.2,0-0.3,0C189.4,189.9,189.5,189.9,189.7,189.9
	C189.8,189.9,189.8,189.9,189.7,189.9z M188,190.7c0.1,0,0.6,0,1.2,0c0.7,0,0.8,0,0.5-0.1C188.9,190.6,187.8,190.6,188,190.7z
	 M190.1,185.9c-0.2,0-0.5-0.1-0.6-0.1c-0.1,0-0.3,0-0.5,0c-0.3,0-0.3,0.1-0.1,0.1c0.1,0,0.5,0,0.9,0
	C190.2,186,190.3,186,190.1,185.9z M214.4,187c0.1,0,0.2,0,0.2,0C214.6,187,214.5,186.9,214.4,187c-0.1-0.1-0.2-0.1-0.2-0.1
	C214.2,187,214.3,187,214.4,187z M203.3,186.2c0.4,0,1,0,1.3,0c0.4,0,0.5,0,0.3-0.1c-0.1,0-0.4-0.1-0.6-0.1c-0.3,0-0.5-0.1-0.5-0.2
	c-0.1-0.1-0.2-0.1-0.7-0.1c-0.5,0-0.6,0.1-0.7,0.2C202.2,186.2,202.3,186.2,203.3,186.2z M193.2,186c-0.1,0-0.3,0-0.5,0
	c-0.2,0.1-0.2,0.1,0.2,0.1C193.3,186.1,193.4,186,193.2,186z M196.4,189.1c-0.3,0-0.6,0-0.9-0.1c-0.4,0-0.4,0,0.1,0.1
	c0.5,0.2,1.6,0.2,1.6,0.1C197.2,189.1,197,189.1,196.4,189.1z M197.5,189.2C197.4,189.2,197.4,189.2,197.5,189.2
	c0.1,0.2,0.5,0.2,0.5,0.1C198,189.2,197.6,189.1,197.5,189.2z"/>
</svg>
