<?xml version="1.0" encoding="utf-8"?>
<!-- Generator: Adobe Illustrator 25.2.1, SVG Export Plug-In . SVG Version: 6.00 Build 0)  -->
<svg version="1.1" id="Camada_1" xmlns="http://www.w3.org/2000/svg" xmlns:xlink="http://www.w3.org/1999/xlink" x="0px" y="0px"
	 viewBox="0 0 540 864" style="enable-background:new 0 0 540 864;" xml:space="preserve">
<style type="text/css">
	.st0{opacity:0.8;}
	.st1{opacity:0.8;enable-background:new    ;}
	.st2{opacity:0.8;fill:#040404;enable-background:new    ;}
</style>
<path d="M22.1,558.4c-1.7,18.8-3.8,58.6-4.4,83.4c-0.3,11.4-0.9,28-1.3,36.8c-1.1,23.7-2.2,65-2,76.9c0.3,19.5,3.6,52.9,5.7,57.7
	c0.5,1.2,0.1,2.9-0.9,3.9c-3.5,3.6-3.7,7.2-0.7,11.4c1.6,2.2,3.4,3.9,4,3.9c0.6,0,2.6,1.1,4.3,2.5c6,4.8,19.8,4.8,63.2,0.1
	c17.4-1.9,84-2.6,93.7-1c4.4,0.7,12.1,1.2,17,1.1c36-1,155.1,0.5,167.1,2.2c6,0.8,33,1.8,60,2.2c52.4,0.7,54.8,0.5,67.9-5.8
	c2.9-1.4,5.7-2.5,6.4-2.5c0.7,0,2-0.9,2.9-2.1c0.9-1.1,2.7-2.5,3.9-2.9c1.2-0.4,6-4.2,10.6-8.3c6.7-6,8.4-8.3,8.4-11.2
	c0-3.6-2.8-7.8-5.2-7.8c-0.7,0-1.2-1.1-1.2-2.4c0-1.3-0.4-2.8-0.9-3.3c-0.5-0.5-1.1-3.4-1.3-6.4c-0.7-9.7-0.5-95.7,0.3-162.5
	c0.5-35.9,0.8-72,0.8-80.2c0-8.2,0.5-20.9,1.2-28.3c0.8-9.4,0.7-14-0.2-15.1c-0.8-1-1-3.4-0.5-5.9c0.5-2.3,1.1-12.1,1.3-21.7
	c0.9-42.9,2-69.7,3-75.6c1.2-6.8,1.2-21.9,0-23.1c-0.4-0.4-0.2-4.9,0.3-10.1c1.7-15.8,2-27.4,0.7-29.9c-0.8-1.6-0.7-2.9,0.2-3.8
	c1.7-1.8,1.9-7.4,0.2-7.4c-0.8,0-0.8-1.2,0-3.4c0.7-1.9,0.9-4.5,0.5-5.9c-0.4-1.4-0.2-3.2,0.5-4c0.7-0.9,0.9-5.4,0.3-11.3
	c-1.1-11.3-0.7-48.8,0.5-51.9c0.5-1.2,0.2-2.5-0.5-3c-1-0.6-1-1.6,0-3.5c0.8-1.5,1.3-7.3,1.1-13.2c-0.6-20.2,0.7-67.2,2-69.3
	c0.2-0.4,0.8-8.5,1.3-18.1c0.5-9.6,1.2-18,1.6-18.6c0.4-0.6,0.8-18.6,1-40.1c0.1-7.1-3.1-42.1-0.6-44.2c0,0,0.1-0.6,0.1-0.6
	c-1.6-6.2,1.8-15.4-2.7-15.9c-1.4,0.8-28.8-0.5-33.9-0.6c-23.1-0.5-58.5-2.9-62.1-4.2c-2.8-1-12.1-1.5-25.4-1.4l-20.9,0.2l-4.6-4
	c-4-3.5-5.2-3.9-9.6-3.2c-5.2,0.8-12.5,4.1-13.9,6.2c-0.4,0.7-12.8,1.5-27.5,1.8c-14.7,0.3-28.8,1.2-31.2,1.9
	c-2.5,0.7-13.2,1.9-24,2.8c-15.3,1.2-23.7,1.2-39.4-0.1c0,0-0.1,0-0.1,0c-59.7-4.9-140.8,7.5-194.4-2.7c-7-1.3-9-1.2-14.3,0.6
	c-3.4,1.2-7,1.8-7.9,1.4c-2.6-1-8,5.5-8,9.5c0,1.9,0.6,7.1,1.4,11.8c0.7,4.6,1.6,14.5,1.9,22c0.3,7.5,0.8,15.3,1.2,17.5
	c0.8,4.8,1.2,8.4,4.1,37.5c1.9,19.4,2.3,34.7,2.2,91.8c-0.1,37.7-0.5,71.8-1.1,75.7c-0.7,5-0.3,10.3,1.1,17.6
	c1.8,8.8,2.1,22,2.4,87.8c0.3,76.5-0.5,111.1-3,140.2C23.9,538.1,22.8,550.9,22.1,558.4z"/>
<g class="st0">
	<path class="st1" d="M53.8,158.2c0,1.2,0,1.7,0.2,1.1c0.1-0.6,0.1-1.6,0-2.1C53.9,156.5,53.8,157,53.8,158.2z"/>
	<path class="st1" d="M53.6,154.3c0.1-0.2,0.2-0.7,0.1-1.2c-0.1-0.5-0.2-0.4-0.3,0.4C53.4,154.2,53.5,154.5,53.6,154.3z"/>
	<path class="st1" d="M14.6,25.8c-0.2,0-0.4,0.3-0.4,0.6c0,0.3,0.2,0.6,0.4,0.6c0.2,0,0.4-0.3,0.4-0.6C15,26.1,14.8,25.8,14.6,25.8z
		"/>
	<path class="st1" d="M10.6,414.2c0.1-0.8,0.1-2,0.1-2.8c-0.1-0.8-0.2-0.1-0.2,1.4C10.4,414.4,10.5,415,10.6,414.2z"/>
	<path class="st1" d="M10.7,468.4c-0.1-0.6-0.2-0.1-0.2,1.1c0,1.2,0,1.7,0.2,1.1C10.8,470,10.8,469,10.7,468.4z"/>
	<path class="st1" d="M10.1,477.6c0.1-0.8,0.1-2,0.1-2.8c-0.1-0.8-0.2-0.1-0.2,1.4C10,477.7,10,478.4,10.1,477.6z"/>
	<path class="st1" d="M8.7,275.1c0.1-5.2,0-7.5-0.2-5.8c-0.3,3-0.4,13.6-0.1,14.1C8.5,283.5,8.6,279.8,8.7,275.1z"/>
	<path class="st1" d="M10.9,419.2c-0.1-0.6-0.2-0.1-0.2,1.1c0,1.2,0,1.7,0.2,1.1C11,420.7,11,419.8,10.9,419.2z"/>
	<path class="st1" d="M11,433.3c0.1-0.4,0.1-1.2,0.1-1.8c-0.1-0.6-0.2-0.3-0.2,0.7C10.8,433.3,10.9,433.7,11,433.3z"/>
	<path class="st1" d="M55.8,680.6c0-4.1,0-14.2,0.1-22.5c0.1-8.3,0.1-17.3,0-20c0-2.7-0.1-10.9-0.1-18.2c0-13.4,0-17.4-0.3-24.6
		c-0.1-2.2-0.2-8.6-0.3-14.3c-0.1-5.7-0.3-10.6-0.4-11.1c-0.1-0.5-0.3-6.1-0.4-12.5c-0.1-6.4-0.3-14.3-0.5-17.6
		c-0.1-3.2-0.4-10.2-0.5-15.4c-0.1-5.3-0.3-13.2-0.5-17.6c-0.1-4.4-0.3-16.5-0.3-26.8c0-10.3-0.1-20.4-0.1-22.5
		c0-2,0.1-16.2,0.3-31.4c0.4-38.7,0.2-55.4-1-73.3c-0.2-3.7-0.8-14-1.2-22.8c-0.4-8.8-0.8-16.5-0.9-17c-0.1-0.5-0.2-3.3-0.3-6.2
		c-0.1-2.9-0.3-11.1-0.4-18.2c-0.2-7.1-0.4-15.6-0.4-18.8c-0.1-3.2-0.2-10.1-0.3-15.4c-0.1-5.2,0-13,0.1-17.2c0.2-4.2,0.2-7.8,0-8
		c-0.2-0.2-0.5-1-0.6-1.8c-0.2-1.1-0.1-1.4,0.4-1.4c0.5,0,0.6-0.3,0.4-1.7c-0.1-0.9-0.2-8.5-0.1-16.8c0.1-8.3,0-17.7-0.1-20.9
		c-0.1-3.2-0.1-10.3,0.1-15.7c0.2-5.4,0.4-14.3,0.5-19.8c0.1-5.5,0.4-10,0.6-10c0.2,0,0.4-6,0.5-13.7c0.1-11.9,0.2-13.6,0.7-12.7
		c0.3,0.5,0.7,1.9,0.9,3.1c0.2,1.2,0.4,1.7,0.4,1.2c0-0.5-0.3-3.1-0.9-5.8c-0.8-4.1-0.9-5.9-0.8-12.6c0.3-14.5-0.4-51.6-1-52.1
		c-1.9-1.9-2.4-2.7-3-4.8c-0.9-2.8-1.2-3-3.1-1.4c-1.6,1.4-2,2.3-2.7,7c-0.3,2-0.8,4.2-1,4.9c-0.3,0.8-0.6,5-0.7,11.6
		c-0.2,8.2-0.3,10.5-0.8,10.7c-0.4,0.2-0.5-0.3-0.2-2.4c0.2-1.9,0.2-2.4-0.1-1.8c-0.2,0.5-0.5,1.7-0.5,2.8c0,1-0.2,2.2-0.5,2.5
		c-0.3,0.4-0.5,4.1-0.7,10c-0.2,7.7-0.3,9.3-0.7,9c-0.6-0.4-0.8,0.9-0.2,1.8c0.2,0.3,0.4,4.1,0.5,8.3c0.1,5.9,0,7.5-0.3,6.7
		c-0.3-0.7-0.4-0.2-0.3,2.4c0.2,3.9-0.5,16-0.9,16c-0.2,0-0.4-3.1-0.5-6.9c-0.2-7.3-0.2-10,0-24.3c0.1-8.7,0.1-8.8-0.8-8.7l-0.9,0.1
		l-0.3-20c-0.3-22.5-0.8-30.4-2.1-33.5c-0.5-1.1-0.8-1.6-0.7-1c0.9,4.7,1.4,11.7,1.6,20.9c0.1,2.5,0.2,7.7,0.2,11.4
		c0.2,10.2-0.7,43.1-1.3,48.3c-0.6,4.8-0.8,8.3-1,16.1l-0.1,4.8l-1.5-0.3c-1.3-0.3-1.5-0.5-1.6-2.1c0-1,0.2-4.2,0.6-7.1
		c0.5-3.7,0.5-5.5,0.3-6c-0.2-0.4-0.3-3.6-0.2-8c0.2-4.8,0.1-7.4-0.2-7.4c-0.2,0-0.4,0.5-0.4,1.1c0,0.6-0.2,8.2-0.4,17l-0.4,16
		l-1.9,1.4c-1.7,1.3-2,1.8-2.6,4.6c-0.6,3.1-1.3,13.4-1.9,29.5c-0.4,10.5-0.9,16.4-1.5,16.7c-0.3,0.1-0.5-1.7-0.6-5.2
		c-0.2-6.6,0.3-22.4,0.6-22c0.4,0.4,0.8-2.6,0.4-3.2c-0.5-0.9-0.9-10.9-0.8-18.7c0.1-4.2,0-12.1-0.1-17.5
		c-0.1-5.4-0.2-18.9-0.2-29.9c0-11,0-20.8-0.1-21.7c-0.1-2.7-0.5-2.6-0.9,0.2c-0.5,3.7-1,33.4-0.6,38.2c0.2,2.2,0.3,6.7,0.2,10.1
		c-0.1,3.4,0,7.1,0,8.3c0.4,4.5-0.1,40-0.6,40.8c-0.5,0.8-0.9,12.8-0.6,16.6c0.2,2.2,0.1,2.3-0.8,2.3c-0.6,0-1-0.3-1-0.5
		c-0.2-3.1-0.2-8.9,0-24.5c0.2-18.1,0-21.8-0.7-19.9c-0.3,0.9-1.3,11.4-1.6,17.6c-0.3,6.8-1,44.8-0.8,44.6c0.1-0.1,0.1,5.5,0,12.5
		c-0.4,19.1-0.2,34.9,0.4,36.9c0.6,1.9,1.3,16.4,1.4,30.7c0,2.7,0.2,9.4,0.3,14.8c0.2,5.4,0.3,10.3,0.2,10.8c0,0.5,0.2,4.3,0.4,8.3
		c0.7,12.3,1.3,22.6,1.6,27.5c0.2,2.5,0.3,7.4,0.4,10.8c0.1,3.4,0.3,10.1,0.5,14.8c0.6,13,0.6,26.9,0.2,64.9c0,3.5-1.4,17-1.9,19.1
		c-0.4,1.6-0.7,5.2-0.8,9c-0.1,3.5-0.2,6.5-0.4,6.8c-0.1,0.3-0.4,2.7-0.5,5.3c-0.2,2.7-0.5,5-0.6,5.1c-0.5,0.5-1.4,3.6-1.4,4.9
		c0,0.6-0.2,1.3-0.5,1.4c-0.4,0.2-0.4,2.3-0.2,9.1c0.3,8.1,0.4,32.4,0.3,35.4c-0.4,7.4-1.6,19.3-1.8,18.1c-0.1-0.9-0.2-6.1-0.3-11.7
		c0-5.6-0.1-10.3-0.3-10.5c-0.3-0.5-0.3,24.2,0.1,28.9c0.2,2.2,0.3,7.1,0.4,10.8c0.1,7.6,0.5,18.1,1,24.8c0.2,2.5,0.3,6.2,0.2,8.3
		c0,2.1,0.1,5.6,0.3,7.8c0.2,2.2,0.5,5.9,0.7,8.1c0.2,2.2,0.4,6.8,0.6,10.2c0.2,3.4,0.4,8,0.6,10.2c0.2,2.2,0.4,6.9,0.6,10.5
		c0.2,3.6,0.4,8,0.6,9.9c0.2,1.9,0.4,5.2,0.5,7.4c0.1,2.2,0.3,9.3,0.5,15.7c0.2,6.4,0.5,13.4,0.7,15.4c0.2,2,0.3,7.4,0.3,12
		c0,11.1,0.3,17.2,0.7,17.3c0.7,0,1.4,3.5,1.6,7.8c0.1,2.4,0.3,5.6,0.3,7.1c0.1,2.9,0.5,4.2,0.5,2c0-0.7,0.2-1.3,0.4-1.3
		c0.2,0,0.4,1.1,0.3,2.5c0,1.7,0.1,2.5,0.5,2.5c0.3,0,0.7,0.7,0.8,1.4c0.1,0.8,0.4,1.6,0.6,1.8c0.2,0.2,0.5,3.4,0.6,7.1
		c0.1,3.7,0.4,7,0.6,7.4c0.2,0.4,0.5,3.4,0.7,6.8c0.5,9.4,1,12.8,1.9,14.4c0.7,1.2,0.9,2.7,1.1,7.8c0.2,4.9,0.4,6.2,0.9,6.1
		c0.3-0.1,1,0,1.5,0.2c0.8,0.3,0.9,0.8,0.9,3.3c-0.1,4.1,0.4,7.4,1.4,9.1c0.4,0.8,0.8,2.1,0.8,3c0,2.1,0.7,5.5,1.2,5.5
		c0.6,0,1.4,4.1,1.2,5.6c-0.3,1.5,0.6,3.1,1.9,3.2c0.8,0,1.4-2.3,0.9-3.3c-0.4-0.9-0.7-10.1-0.3-10.5c0.2-0.2,1.1,0.8,2,2.2
		c1.8,2.7,2.8,2.8,1.8,0.2c-0.7-1.8-0.8-4-0.9-18.3c0-8.7,0-9.7,0.6-9c0.3,0.4,0.7,1.5,0.8,2.4c0.1,0.9,0.3,1.5,0.4,1.3
		c0.1-0.1,0-1.3-0.2-2.6c-0.4-2.7,0-3.8,1.6-4.2c1.9-0.5,2.5,1.2,2.9,7.4c0.2,3.1,0.5,6.1,0.7,6.7c0.4,1.3,1.1,1.5,1.2,0.4
		c0.1-1.4,1.2,1.7,1.1,3.2c0,1.3,0.1,1.4,0.6,0.8c0.3-0.4,0.6-1.6,0.7-2.7c0.1-3.5,0.6-6.3,1.3-6.9c2-1.7,4.6,2.1,5.3,7.7l0.4,3.1
		l0.5-2c0.3-1.1,0.9-2.7,1.3-3.5c0.7-1.3,0.8-2.3,0.8-7.5c-0.1-15.4-0.2-23.2-0.6-29.7c-0.2-4-0.3-19.6-0.3-35.7
		C55.9,704.5,55.9,693.5,55.8,680.6z M31.7,109.1c0.4-5.6,0.8-11.4,0.9-13c0.1-1.6,0.3-2.9,0.5-2.9c0.6,0-1,29.4-2.1,38.7
		C30.3,137.8,30.8,120.3,31.7,109.1z M34.5,135.7c-0.5-1.2-0.4-3.1,0.1-3.1c0.2,0,0.4,0.9,0.4,2C34.9,136.2,34.8,136.4,34.5,135.7z
		 M31.8,239.8c0.1,0.9,0,2.3-0.1,3.1c-0.1,0.8-0.2,0-0.1-1.7C31.7,239.5,31.8,238.9,31.8,239.8z M12,194.6c0-1.4,0.1-1.5,0.6-0.6
		c0.6,1,0.4,2.2-0.3,2.2C12.1,196.2,12,195.5,12,194.6z M12.3,229.8c-0.1-26,0.1-31.4,1.2-33c0.7-1,0.5,53.1-0.2,54.8
		C12.9,252.5,12.3,240.1,12.3,229.8z M31.8,293.5c-0.3-0.5-0.3-3.3-0.3-18.5c0-5.8,0-14.6,0-19.7c0-5.2,0.1-8.5,0.3-7.6
		c0.2,0.9,0.4,9.1,0.5,18.2c0.1,9.1,0.2,19,0.3,22C32.7,292.8,32.5,294.7,31.8,293.5z M31.9,304.4c0-0.6-0.1-2.8-0.2-4.8
		c-0.1-2.5,0-3.8,0.3-4.1c0.3-0.3,0.5,0.2,0.5,1.3c0,1,0,3.3,0.1,5.3c0,2-0.1,3.5-0.3,3.5C32,305.5,31.8,305,31.9,304.4z
		 M32.1,312.6c-0.4-2.8-0.3-5.9,0.1-5.8c0.2,0,0.3,1.7,0.3,3.9C32.4,313.7,32.3,314.1,32.1,312.6z M35.3,358c-0.5,0-0.7-4.5-0.3-6
		c0.2-0.7,0.3-0.2,0.3,1.5c0,1.4,0.1,3,0.2,3.6C35.6,357.6,35.5,358,35.3,358z M35.2,360.8c0-1.4,0.1-1.8,0.2-1.1
		c0.1,0.8,0.1,1.9-0.1,2.5C35.3,362.7,35.2,362.1,35.2,360.8z M36,405.3c0-1.8-0.1-9.7-0.3-17.7c-0.2-8-0.5-16.2-0.5-18.3
		c-0.1-2.2,0-3.9,0.3-4.1c0.4-0.3,1,7.1,1.2,14.1c0.7,21.6,0.6,29.3-0.4,29.2C36,408.5,35.9,407,36,405.3z M36,427.5
		c0-5.9-0.1-12.1-0.2-13.8c-0.1-3.4,0.5-5.1,0.8-2.2c0.4,3.5,0.2,27.4-0.2,27C36.3,438.3,36.1,433.3,36,427.5z M36.2,490.1
		c0-1,0.1-1.3,0.2-0.7c0.1,0.6,0.1,1.4-0.1,1.8C36.3,491.6,36.2,491.1,36.2,490.1z M36,595.9c-0.2-0.4-0.4-5.2-0.4-10.7
		c0-11.7,0.5-10.5,1,2.4C36.9,595.5,36.8,597.2,36,595.9z"/>
	<path class="st1" d="M34.2,68c-0.2,0-0.4,0.6-0.4,1.3c0,0.7,0.2,1.1,0.4,0.9c0.2-0.2,0.4-0.8,0.4-1.3C34.6,68.4,34.5,68,34.2,68z"
		/>
	<path class="st1" d="M38.1,70.8c0.1-0.4,0.1-1.2,0.1-1.8c-0.1-0.6-0.2-0.3-0.2,0.7C37.9,70.7,37.9,71.2,38.1,70.8z"/>
	<path class="st1" d="M47.4,28.1c-0.4,1.3-0.3,1.6,0.3,2c0.3,0.2,0.7,1.8,0.9,3.6l0.3,3.3l0.1-3.1C49.1,30.7,47.9,26.3,47.4,28.1z"
		/>
	<path class="st1" d="M32.2,29.3c0,0.6,0.1,1.7,0.4,2.4c0.7,2.1,1.3,12.3,1.4,22.9c0,5.3,0.2,9.5,0.4,9.2c0.5-0.8,0.1-20.9-0.4-26.1
		c-0.3-2.5-0.7-5.8-1-7.1C32.5,29.3,32.3,28.7,32.2,29.3z"/>
	<path class="st1" d="M27.8,110.5c0,2.5,0.1,2,0.5-2.4c0.6-7.5,0.8-16.6,0.4-16c-0.2,0.2-0.4,2.4-0.6,4.8
		C27.7,101.4,27.7,105.2,27.8,110.5z"/>
	<path class="st1" d="M52.7,127.1c-0.4-3.5-0.3,8.3,0.1,12.3c0.3,2.4,0.3,1.7,0.2-3.4C53,132.4,52.9,128.4,52.7,127.1z"/>
	<path class="st1" d="M12.1,141.3c0.1-0.2,0.2-0.7,0.1-1.2c-0.1-0.5-0.2-0.4-0.3,0.4C11.9,141.1,12,141.5,12.1,141.3z"/>
	<path class="st1" d="M12.2,137.4c0.3-3.1,0.5-10,0.3-9.7c-0.1,0.2-0.3,2.2-0.5,4.4C11.8,136,11.9,140.6,12.2,137.4z"/>
</g>
<g class="st0">
	<path class="st1" d="M515.7,701.9c0-1.2,0-1.7-0.1-1.1c0,0.6-0.1,1.6,0,2.1C515.6,703.6,515.7,703.1,515.7,701.9z"/>
	<path class="st1" d="M515.8,705.8c-0.1,0.2-0.1,0.7,0,1.2c0,0.5,0.1,0.4,0.1-0.4C515.9,706,515.8,705.6,515.8,705.8z"/>
	<path class="st1" d="M531.6,834.3c0.1,0,0.2-0.3,0.2-0.6c0-0.3-0.1-0.6-0.2-0.6c-0.1,0-0.2,0.3-0.2,0.6
		C531.4,834,531.5,834.3,531.6,834.3z"/>
	<path class="st1" d="M533.2,445.9c0,0.8-0.1,2,0,2.8c0,0.8,0.1,0.1,0.1-1.4C533.3,445.8,533.2,445.2,533.2,445.9z"/>
	<path class="st1" d="M533.1,391.7c0,0.6,0.1,0.1,0.1-1.1c0-1.2,0-1.7-0.1-1.1C533.1,390.2,533.1,391.1,533.1,391.7z"/>
	<path class="st1" d="M533.4,382.5c0,0.8-0.1,2,0,2.8c0,0.8,0.1,0.1,0.1-1.4C533.5,382.4,533.4,381.8,533.4,382.5z"/>
	<path class="st1" d="M534,585c0,5.2,0,7.5,0.1,5.8c0.1-3,0.2-13.6,0-14.1C534.1,576.6,534,580.3,534,585z"/>
	<path class="st1" d="M533.1,441c0,0.6,0.1,0.1,0.1-1.1c0-1.2,0-1.7-0.1-1.1C533,439.4,533,440.4,533.1,441z"/>
	<path class="st1" d="M533,426.8c0,0.4-0.1,1.2,0,1.8c0,0.6,0.1,0.3,0.1-0.7C533.1,426.9,533.1,426.4,533,426.8z"/>
	<path class="st1" d="M514.9,179.5c0,4.1,0,14.2,0,22.5c0,8.3,0,17.3,0,20c0,2.7,0,10.9,0,18.2c0,13.4,0,17.4,0.1,24.6
		c0,2.2,0.1,8.6,0.1,14.3c0,5.7,0.1,10.6,0.2,11.1c0,0.5,0.1,6.1,0.1,12.5c0,6.4,0.1,14.3,0.2,17.6c0.1,3.2,0.1,10.2,0.2,15.4
		c0,5.3,0.1,13.2,0.2,17.6c0.1,4.4,0.1,16.5,0.1,26.8c0,10.3,0,20.4,0,22.5c0,2,0,16.2-0.1,31.4c-0.2,38.7-0.1,55.4,0.4,73.3
		c0.1,3.7,0.3,14,0.5,22.8c0.2,8.8,0.3,16.5,0.3,17c0,0.5,0.1,3.3,0.1,6.2c0,2.9,0.1,11.1,0.2,18.2c0.1,7.1,0.1,15.6,0.2,18.8
		c0,3.2,0.1,10.1,0.1,15.4c0,5.2,0,13-0.1,17.2c-0.1,4.2-0.1,7.8,0,8c0.1,0.2,0.2,1,0.2,1.8c0.1,1.1,0,1.4-0.2,1.4
		c-0.2,0-0.3,0.3-0.2,1.7c0,0.9,0.1,8.5,0,16.8c0,8.3,0,17.7,0,20.9c0,3.2,0,10.3,0,15.7c-0.1,5.4-0.2,14.3-0.2,19.8
		c0,5.5-0.2,10-0.2,10c-0.1,0-0.2,6-0.2,13.7c0,11.9-0.1,13.6-0.3,12.7c-0.1-0.5-0.3-1.9-0.4-3.1c-0.1-1.2-0.2-1.7-0.2-1.2
		c0,0.5,0.1,3.1,0.3,5.8c0.3,4.1,0.4,5.9,0.3,12.6c-0.1,14.5,0.2,51.6,0.4,52.1c0.8,1.9,1,2.7,1.2,4.8c0.4,2.8,0.5,3,1.2,1.4
		c0.6-1.4,0.8-2.3,1.1-7c0.1-2,0.3-4.2,0.4-4.9c0.1-0.8,0.2-5,0.3-11.6c0.1-8.2,0.1-10.5,0.3-10.7c0.2-0.2,0.2,0.3,0.1,2.4
		c-0.1,1.9-0.1,2.4,0,1.8c0.1-0.5,0.2-1.7,0.2-2.8c0-1,0.1-2.2,0.2-2.5c0.1-0.4,0.2-4.1,0.3-10c0.1-7.7,0.1-9.3,0.3-9
		c0.3,0.4,0.3-0.9,0.1-1.8c-0.1-0.3-0.2-4.1-0.2-8.3c0-5.9,0-7.5,0.1-6.7c0.1,0.7,0.2,0.2,0.1-2.4c-0.1-3.9,0.2-16,0.4-16
		c0.1,0,0.2,3.1,0.2,6.9c0.1,7.3,0.1,10,0,24.3c0,8.7,0,8.8,0.3,8.7l0.4-0.1l0.1,20c0.1,22.5,0.3,30.4,0.8,33.5
		c0.2,1.1,0.3,1.6,0.3,1c-0.4-4.7-0.6-11.7-0.7-20.9c0-2.5-0.1-7.7-0.1-11.4c-0.1-10.2,0.3-43.1,0.5-48.3c0.2-4.8,0.3-8.3,0.4-16.1
		l0.1-4.8l0.6,0.3c0.5,0.3,0.6,0.5,0.6,2.1c0,1-0.1,4.2-0.2,7.1c-0.2,3.7-0.2,5.5-0.1,6c0.1,0.4,0.1,3.6,0.1,8
		c-0.1,4.8,0,7.4,0.1,7.4c0.1,0,0.2-0.5,0.2-1.1c0-0.6,0.1-8.2,0.2-17l0.2-16l0.8-1.4c0.7-1.3,0.8-1.8,1-4.6
		c0.3-3.1,0.5-13.4,0.8-29.5c0.2-10.5,0.4-16.4,0.6-16.7c0.1-0.1,0.2,1.7,0.3,5.2c0.1,6.6-0.1,22.4-0.3,22c-0.2-0.4-0.3,2.6-0.2,3.2
		c0.2,0.9,0.4,10.9,0.3,18.7c0,4.2,0,12.1,0,17.5c0.1,5.4,0.1,18.9,0.1,29.9c0,11,0,20.8,0,21.7c0.1,2.7,0.2,2.6,0.4-0.2
		c0.2-3.7,0.4-33.4,0.2-38.2c-0.1-2.2-0.1-6.7-0.1-10.1c0-3.4,0-7.1,0-8.3c-0.1-4.5,0-40,0.2-40.8c0.2-0.8,0.4-12.8,0.3-16.6
		c-0.1-2.2,0-2.3,0.3-2.3c0.2,0,0.4,0.3,0.4,0.5c0.1,3.1,0.1,8.9,0,24.5c-0.1,18.1,0,21.8,0.3,19.9c0.1-0.9,0.5-11.4,0.7-17.6
		c0.1-6.8,0.4-44.8,0.3-44.6c-0.1,0.1-0.1-5.5,0-12.5c0.2-19.1,0.1-34.9-0.2-36.9c-0.2-1.9-0.5-16.4-0.6-30.7
		c0-2.7-0.1-9.4-0.1-14.8c-0.1-5.4-0.1-10.3-0.1-10.8c0-0.5-0.1-4.3-0.2-8.3c-0.3-12.3-0.5-22.6-0.7-27.5c-0.1-2.5-0.1-7.4-0.2-10.8
		c0-3.4-0.1-10.1-0.2-14.8c-0.2-13-0.3-26.9-0.1-64.9c0-3.5,0.6-17,0.8-19.1c0.2-1.6,0.3-5.2,0.3-9c0-3.5,0.1-6.5,0.1-6.8
		c0-0.3,0.1-2.7,0.2-5.3c0.1-2.7,0.2-5,0.3-5.1c0.2-0.5,0.5-3.6,0.6-4.9c0-0.6,0.1-1.2,0.2-1.4c0.1-0.2,0.2-2.3,0.1-9.1
		c-0.1-8.1-0.2-32.4-0.1-35.4c0.2-7.4,0.7-19.3,0.7-18.1c0.1,0.9,0.1,6.1,0.1,11.7c0,5.6,0.1,10.3,0.1,10.5c0.1,0.5,0.1-24.2,0-28.9
		c-0.1-2.2-0.1-7.1-0.2-10.8c0-7.6-0.2-18.1-0.4-24.8c-0.1-2.5-0.1-6.2-0.1-8.3c0-2.1,0-5.6-0.1-7.8c-0.1-2.2-0.2-5.9-0.3-8.1
		c-0.1-2.2-0.2-6.8-0.2-10.2c-0.1-3.4-0.2-8-0.2-10.2c-0.1-2.2-0.2-6.9-0.2-10.5c-0.1-3.6-0.2-8-0.2-9.9c-0.1-1.9-0.2-5.2-0.2-7.4
		c0-2.2-0.1-9.3-0.2-15.7c-0.1-6.4-0.2-13.4-0.3-15.4c-0.1-2-0.1-7.4-0.1-12c0-11.1-0.1-17.2-0.3-17.3c-0.3,0-0.6-3.5-0.6-7.8
		c0-2.4-0.1-5.6-0.1-7.1c-0.1-2.9-0.2-4.2-0.2-2c0,0.7-0.1,1.3-0.2,1.3c-0.1,0-0.2-1.1-0.1-2.5c0-1.7-0.1-2.5-0.2-2.5
		c-0.1,0-0.3-0.7-0.3-1.4c-0.1-0.8-0.2-1.6-0.3-1.8c-0.1-0.2-0.2-3.4-0.3-7.1c-0.1-3.7-0.2-7-0.2-7.4c-0.1-0.4-0.2-3.4-0.3-6.8
		c-0.2-9.4-0.4-12.8-0.8-14.4c-0.3-1.2-0.4-2.7-0.5-7.8c-0.1-4.9-0.2-6.2-0.3-6.1c-0.1,0.1-0.4,0-0.6-0.2c-0.3-0.3-0.4-0.8-0.4-3.3
		c0-4.1-0.2-7.4-0.6-9.1c-0.2-0.8-0.3-2.1-0.3-3c0-2.1-0.3-5.5-0.5-5.5c-0.3,0-0.6-4.1-0.5-5.6c0.1-1.5-0.3-3.1-0.8-3.2
		c-0.3,0-0.6,2.3-0.4,3.3c0.2,0.9,0.3,10.1,0.1,10.5c-0.1,0.2-0.4-0.8-0.8-2.2c-0.7-2.7-1.1-2.8-0.7-0.2c0.3,1.8,0.3,4,0.3,18.3
		c0,8.7,0,9.7-0.2,9c-0.1-0.4-0.3-1.5-0.3-2.4c0-0.9-0.1-1.5-0.2-1.3c0,0.1,0,1.3,0.1,2.6c0.2,2.7,0,3.8-0.6,4.2
		c-0.8,0.5-1-1.2-1.2-7.4c-0.1-3.1-0.2-6.1-0.3-6.7c-0.2-1.3-0.5-1.5-0.5-0.4c0,1.4-0.5-1.7-0.5-3.2c0-1.3,0-1.4-0.2-0.8
		c-0.1,0.4-0.3,1.6-0.3,2.7c0,3.5-0.2,6.3-0.5,6.9c-0.8,1.7-1.9-2.1-2.1-7.7l-0.2-3.1l-0.2,2c-0.1,1.1-0.4,2.7-0.5,3.5
		c-0.3,1.3-0.3,2.3-0.3,7.5c0,15.4,0.1,23.2,0.2,29.7c0.1,4,0.1,19.6,0.1,35.7C514.9,155.6,514.9,166.6,514.9,179.5z M524.7,751
		c-0.2,5.6-0.3,11.4-0.4,13c0,1.6-0.1,2.9-0.2,2.9c-0.2,0,0.4-29.4,0.9-38.7C525.2,722.3,525,739.8,524.7,751z M523.5,724.4
		c0.2,1.2,0.2,3.1,0,3.1c-0.1,0-0.2-0.9-0.1-2C523.4,723.9,523.4,723.7,523.5,724.4z M524.6,620.3c0-0.9,0-2.3,0-3.1
		c0-0.8,0.1,0,0.1,1.7C524.7,620.7,524.6,621.3,524.6,620.3z M532.6,665.5c0,1.4,0,1.5-0.3,0.6c-0.2-1-0.2-2.2,0.1-2.2
		C532.6,663.9,532.6,664.6,532.6,665.5z M532.5,630.4c0,26,0,31.4-0.5,33c-0.3,1-0.2-53.1,0.1-54.8
		C532.3,607.7,532.5,620,532.5,630.4z M524.6,566.6c0.1,0.5,0.1,3.3,0.1,18.5c0,5.8,0,14.6,0,19.7c0,5.2,0,8.5-0.1,7.6
		c-0.1-0.9-0.1-9.1-0.2-18.2c0-9.1-0.1-19-0.1-22C524.2,567.3,524.3,565.5,524.6,566.6z M524.6,555.8c0,0.6,0,2.8,0.1,4.8
		c0,2.5,0,3.8-0.1,4.1c-0.1,0.3-0.2-0.2-0.2-1.3c0-1,0-3.3,0-5.3c0-2,0-3.5,0.1-3.5C524.5,554.6,524.6,555.1,524.6,555.8z
		 M524.5,547.5c0.2,2.8,0.1,5.9,0,5.8c-0.1,0-0.1-1.7-0.1-3.9C524.4,546.5,524.4,546.1,524.5,547.5z M523.2,502.1
		c0.2,0,0.3,4.5,0.1,6c-0.1,0.7-0.1,0.2-0.1-1.5c0-1.4,0-3-0.1-3.6C523.1,502.6,523.1,502.1,523.2,502.1z M523.2,499.4
		c0,1.4,0,1.8-0.1,1.1c0-0.8,0-1.9,0-2.5C523.2,497.4,523.2,498,523.2,499.4z M522.9,454.9c0,1.8,0,9.7,0.1,17.7
		c0.1,8,0.2,16.2,0.2,18.3c0,2.2,0,3.9-0.1,4.1c-0.1,0.3-0.4-7.1-0.5-14.1c-0.3-21.6-0.2-29.3,0.2-29.2
		C522.9,451.6,522.9,453.1,522.9,454.9z M522.9,432.7c0,5.9,0.1,12.1,0.1,13.8c0.1,3.4-0.2,5.1-0.3,2.2c-0.1-3.5-0.1-27.4,0.1-27
		C522.8,421.9,522.9,426.8,522.9,432.7z M522.8,370.1c0,1,0,1.3-0.1,0.7c0-0.6,0-1.4,0-1.8C522.8,368.5,522.8,369,522.8,370.1z
		 M522.9,264.3c0.1,0.4,0.2,5.2,0.2,10.7c0,11.7-0.2,10.5-0.4-2.4C522.5,264.6,522.6,263,522.9,264.3z"/>
	<path class="st1" d="M523.6,792.1c0.1,0,0.2-0.6,0.2-1.3s-0.1-1.1-0.2-0.9c-0.1,0.2-0.2,0.8-0.2,1.3
		C523.5,791.7,523.5,792.1,523.6,792.1z"/>
	<path class="st1" d="M522.1,789.3c0,0.4-0.1,1.2,0,1.8c0,0.6,0.1,0.3,0.1-0.7C522.2,789.4,522.1,788.9,522.1,789.3z"/>
	<path class="st1" d="M518.3,832c0.2-1.3,0.1-1.6-0.1-2c-0.1-0.2-0.3-1.8-0.4-3.6l-0.1-3.3l0,3.1C517.6,829.4,518.1,833.8,518.3,832
		z"/>
	<path class="st1" d="M524.4,830.8c0-0.6-0.1-1.7-0.2-2.4c-0.3-2.1-0.5-12.3-0.6-22.9c0-5.3-0.1-9.5-0.1-9.3
		c-0.2,0.8,0,20.9,0.2,26.1c0.1,2.5,0.3,5.8,0.4,7.1C524.3,830.8,524.4,831.4,524.4,830.8z"/>
	<path class="st1" d="M526.2,749.7c0-2.5-0.1-2-0.2,2.4c-0.2,7.5-0.3,16.6-0.2,16c0.1-0.2,0.2-2.4,0.2-4.8
		C526.3,758.7,526.3,755,526.2,749.7z"/>
	<path class="st1" d="M516.1,733.1c0.2,3.5,0.1-8.3-0.1-12.3c-0.1-2.4-0.1-1.7-0.1,3.4C516,727.7,516.1,731.7,516.1,733.1z"/>
	<path class="st1" d="M532.6,718.9c-0.1,0.2-0.1,0.7,0,1.2c0,0.5,0.1,0.4,0.1-0.4C532.7,719,532.6,718.7,532.6,718.9z"/>
	<path class="st1" d="M532.5,722.7c-0.1,3.1-0.2,10-0.1,9.7c0-0.2,0.1-2.2,0.2-4.4C532.7,724.2,532.7,719.5,532.5,722.7z"/>
</g>
<g class="st0">
	<path class="st1" d="M344.6,849.4c-3.7,0.4-8.9,0.9-11.6,1.1c-2.7,0.3-7.2,0.6-10,0.7c-6.7,0.3-6.4,0.3-13.6,0.8l-6.3,0.5l3.8,0.2
		c6.2,0.3,11.7,0.1,18.4-0.7c3.4-0.4,8.3-0.8,10.8-1c6.5-0.5,18.5-1.8,18.9-2.1C355.5,848.6,351.5,848.7,344.6,849.4z"/>
	<path class="st1" d="M315.3,858.9c-0.4,0.1-0.3,0.2,0.3,0.2c0.5,0,0.7-0.1,0.6-0.2C316,858.8,315.6,858.8,315.3,858.9z"/>
	<path class="st1" d="M230.8,855.6c-0.1-0.1-0.5-0.1-0.9,0c-0.4,0.1-0.3,0.2,0.3,0.2C230.7,855.8,231,855.7,230.8,855.6z"/>
	<path class="st1" d="M303.3,853.9c-4,0.3-10.5,0.6-14.3,0.7c-12.3,0.4-21.5,0.6-31,0.8c-14.7,0.3-18.6,0.4-18.3,0.8
		c0.1,0.2-0.1,0.4-0.6,0.5c-0.9,0.2-24.7,0.5-42.8,0.5c-6.4,0-12,0.1-12.4,0.2c-1.1,0.3,1,1.4,2.9,1.5c0.8,0.1,10.3,0.1,21,0.1
		c21-0.1,42.1-0.6,58.9-1.5c3.3-0.2,7.9-0.3,10.2-0.3c2.3,0,5.9-0.1,8-0.3c2.1-0.2,6.6-0.5,10.1-0.7c3.4-0.2,6.4-0.5,6.5-0.7
		c0.3-0.4,5.6-1,8.6-1c1.6,0,2.1-0.1,2.1-0.5C312.2,853.3,312.5,853.3,303.3,853.9z"/>
	<path class="st1" d="M299.9,853.1c0.5,0,0.7-0.1,0.6-0.2c-0.2-0.1-0.5-0.1-0.9,0C299.3,853,299.4,853.1,299.9,853.1z"/>
	<path class="st1" d="M295.9,845.7c1,0,1.4-0.1,1-0.1c-0.4-0.1-1.2-0.1-1.8,0C294.6,845.6,294.9,845.7,295.9,845.7z"/>
	<path class="st1" d="M51,847.9c-0.3-0.1-0.5,0-0.5,0.3c0,0.6,0.3,0.7,0.7,0.2C51.4,848.3,51.3,848,51,847.9z"/>
	<path class="st1" d="M8.3,834.8c-0.3-0.1-0.9-0.1-1.3,0c-0.4,0.1-0.2,0.2,0.6,0.2C8.2,835,8.6,834.9,8.3,834.8z"/>
	<path class="st1" d="M30,832.5c-0.4,0.1-0.3,0.2,0.3,0.2c0.5,0,0.7-0.1,0.6-0.2C30.7,832.4,30.3,832.4,30,832.5z"/>
	<path class="st1" d="M22.9,832.4c1.8,0,3.1-0.1,2.8-0.2c-0.4-0.1-0.4-0.3,0.2-0.7c0.8-0.5,0.8-0.5-0.1-0.2
		c-0.9,0.2-3.7,0.5-13.7,1.1c-2.9,0.2-5.6,0.5-6,0.7c-0.7,0.3-0.7,0.3,0,0.4c0.4,0,1.3-0.1,2-0.3C9.1,832.7,13.7,832.5,22.9,832.4z"
		/>
	<path class="st1" d="M355.3,821.9c1,0,1.4-0.1,1-0.1c-0.4-0.1-1.2-0.1-1.8,0C354,821.9,354.3,821.9,355.3,821.9z"/>
	<path class="st1" d="M509.2,832.8c-4-0.1-7.8-0.7-6.3-0.9c0.5-0.1,1.6-0.2,2.4-0.4c1.3-0.2,1.4-0.3,0.7-0.4
		c-0.5-0.1-1.4-0.1-2.1-0.1c-0.8,0-1.2-0.1-1.1-0.2c0.1-0.2,1.4-0.2,4.4-0.2c2.4,0,4.3-0.1,4.5-0.2c0.4-0.2-2.9-0.9-5-1
		c-0.8-0.1-2.3-0.2-3.3-0.4c-1.5-0.2-1.6-0.3-1-0.5c1.4-0.3,0.8-0.5-1-0.4c-2,0.1-2.6-0.2-0.7-0.4c1.2-0.1,1.3-0.2,0.7-0.6
		c-0.3-0.2-0.2-0.3,0.3-0.5c0.4-0.1,0.6-0.3,0.5-0.3c-0.2-0.1-7-0.3-13.8-0.5c-3.7-0.1-7.6-0.3-7.9-0.5c-0.1-0.1-0.6-0.2-1.1-0.2
		c-1.1,0-1.5-0.3-1-0.6c-4.4,0-8.8,0.1-13.2,0.3c-0.3,0-0.6,0-0.9,0.1c-5.3,0.1-12.1,0.3-16.2,0.5c-1.9,0.1-5.6,0.2-8.3,0.3
		c-2.7,0.1-6.9,0.2-9.2,0.3c-2.3,0.1-9.4,0.2-15.7,0.3c-13.2,0.2-22.3,0.4-29.6,0.8c-3.3,0.2-8.4,0.1-14-0.1
		c-5.7-0.3-8.8-0.3-8.8-0.1c0,0.2-0.9,0.3-1.9,0.3l-1.9-0.1l1.5,0.4c0.8,0.2,1.4,0.5,1.2,0.5c-0.5,0.3-17.4,0-34.5-0.6
		c-10.1-0.4-19-0.7-19.9-0.6c-0.9,0.1-6.5,0.1-12.5,0c-19.1-0.3-20.9-0.3-22,0.4c-0.6,0.3-1.3,0.6-1.6,0.5c-0.3,0-3.4,0.1-6.8,0.2
		c-3.4,0.1-9.7,0.2-14,0.2c-13.3,0-23.7,0.2-29.3,0.5c-3,0.1-7.9,0.3-10.9,0.4c-3.1,0-5.7,0.2-5.9,0.2c-0.2,0.1-6,0-12.8-0.3
		c-12.7-0.4-32.4-0.4-63,0.1c-2.4,0-26.4,0-37.3,0c-4.2,0-26.2-0.7-52.6-1.7c-14.4-0.5-19.5-0.5-22.8,0.2c-3.2,0.7-5.8,0.8-6.5,0.3
		c-0.4-0.2-0.8-0.4-1-0.2c-0.2,0.1,0.1,0.5,0.7,0.9c0.6,0.4,1.4,0.9,1.8,1.2c1.5,1.1,3.3,1.6,7.1,2c2.2,0.2,6,0.6,8.5,0.8
		c2.5,0.2,4.6,0.5,4.8,0.7c0.3,0.5-2.4,0.6-4.9,0.2c-2.8-0.4-16.3-1.1-16.3-0.8c0,0.5,10.2,1.8,18.8,2.3c5.1,0.3,12.8,0.9,17.1,1.4
		c8.8,0.9,22.8,1.6,60,2.9c14.3,0.5,26,1.1,26,1.2c0,0.4-3.7,0.5-8.8,0.3c-3-0.1-4.6-0.1-4.4,0.1c0.1,0.2,2.3,0.4,4.9,0.6
		c3.5,0.2,4.6,0.3,4.5,0.6c-0.7,1.3-13.9,1.5-20.5,0.2c-3.5-0.7-6-0.9-20.4-1.9c-3.3-0.2-6.6-0.6-7.4-0.7c-1.2-0.2-1.4-0.2-1.8,0.4
		c-0.3,0.6-0.6,0.7-3.2,0.5c-3.9-0.3-3.6,0.1,0.3,0.5c1.8,0.2,3.4,0.5,3.7,0.7c0.9,0.6,2,0.7,15.7,1.6c13.3,0.8,15.9,1.2,12.9,1.7
		c-1.2,0.2,1.9,0.4,11.4,0.7c18.1,0.5,39.1,1.5,39.3,1.7c0.3,0.4-1.7,0.5-4.5,0.4c-2.2-0.1-2.5,0-1.6,0.3c1.1,0.4,6.8,0.4,8.3,0
		c0.5-0.1,3.1-0.3,5.8-0.4c4.8-0.1,5-0.1,6.8,0.8c1.7,0.8,2.7,1,11,1.8c9.2,0.9,20.6,2.3,21.8,2.7c0.4,0.1-3.2,0-7.8-0.3
		c-4.7-0.3-8.8-0.4-9.1-0.2c-0.4,0.2,1.1,0.4,4.2,0.5c2.7,0.2,8.8,0.5,13.6,0.9c12.3,0.8,20.3,1.2,20.8,0.9c0.2-0.2-0.3-0.2-1.3-0.2
		c-0.9,0.1-1.8,0-1.9-0.2c-0.3-0.5,2.6-0.5,14.1,0c6,0.2,11.1,0.4,11.3,0.3c0.2-0.1,2.9-0.1,6.1,0c7.7,0.2,19.9,0.2,27.9-0.1
		c3.6-0.1,8.6-0.2,11.2-0.2c2.6,0,5.2,0,5.8-0.1c0.6-0.1,5.3-0.2,10.3-0.2c5-0.1,9.9-0.1,10.7-0.2c0.9,0,6.2-0.2,11.9-0.4
		c5.7-0.2,12.8-0.5,15.9-0.6c3.1-0.1,7.6-0.3,10.1-0.4c5.2-0.2,15.4-0.8,18-1.1c1.8-0.2,1.9-0.3,1.5-1.4c-0.2-0.4,0.4-0.6,3.5-0.9
		c2.1-0.2,4.6-0.4,5.7-0.4c1.1,0,2.3-0.1,2.7-0.2c0.4-0.1,3-0.4,5.9-0.5c2.8-0.2,6.1-0.4,7.2-0.5c1.1-0.1,3.4-0.2,5-0.3
		c2.1,0,3.1-0.2,3.3-0.6c0.5-0.8,0.1-0.9-2.3-0.6c-1.2,0.1-3.3,0.3-4.6,0.3c-1.4,0-3.6,0.1-4.9,0.3c-9.2,0.7-9.3,0.7-8.5-0.4
		c0.6-0.8,2.9-1.1,7.7-1.1c2.1,0,5-0.1,6.5-0.2c1.5-0.1,5.5-0.2,9-0.3c3.4,0,8.2-0.1,10.5-0.2c2.3-0.1,9.7-0.3,16.3-0.4
		c6.7-0.2,12.4-0.4,12.8-0.6c0.5-0.2-0.2-0.3-2-0.2c-1.5,0-5,0.1-7.8,0.1c-2.8,0-7.4,0.1-10.1,0.2c-2.7,0-10,0.1-16.1,0.1
		c-6.2,0-14.1,0.1-17.7,0.2c-3.6,0.1-7.7,0.2-9.2,0.2c-3.8,0.1-11,0.5-18.7,1.1c-3.6,0.3-7.6,0.6-9,0.7c-1.4,0.1-4.7,0.4-7.4,0.7
		c-5.3,0.5-15.1,1.1-22.7,1.3c-2.6,0.1-5.3,0.2-6.1,0.2c-0.7,0-3.7,0-6.5,0c-2.8,0-6.2,0.1-7.4,0.2c-1.2,0.1-5.9,0.2-10.3,0.2
		c-4.4,0-9.1,0-10.5,0c-1.3,0-2.8-0.1-3.2-0.4c-0.6-0.3-1.2-0.3-2.2,0.1c-1.2,0.4-1.4,0.4-1.3-0.1c0-0.4-0.1-0.4-0.5-0.2
		c-0.3,0.2-2,0.2-3.8,0.1c-1.8-0.1-3.2-0.1-3.2,0.1c0,0.2,0.2,0.3,0.5,0.3c0.4,0,0.4,0.1,0,0.2c-0.3,0.1-1.1-0.2-1.8-0.6
		c-1.1-0.7-1.8-0.8-6.1-1c-12.8-0.5-23.3-1.1-23.3-1.4c0-0.3,3.6-0.3,21-0.1c5.3,0.1,12.4,0.1,15.9,0.1c3.4,0,10.7-0.1,16.1-0.1
		c14.2-0.1,14.9-0.1,18.1-0.1c1.6,0,4.8-0.1,7.2-0.2c2.3-0.1,6.2-0.1,8.5-0.1c2.3,0,4.6-0.1,5-0.3c0.4-0.1,0.9-0.2,1-0.1
		c0.2,0.1,2.3,0.1,14.5-0.4c3.2-0.1,7.7-0.3,9.9-0.3c2.2-0.1,6.2-0.3,8.8-0.4c15.6-1.1,20.6-1.2,38.8-1.4
		c17.7-0.1,28.5-0.4,44.1-1.1c2.8-0.1,7.1-0.2,9.4-0.3c2.3,0,5-0.1,5.9-0.1l8.3,0.1c0.3,0,0.5-0.1,0.7-0.3c0.2,0,0.4,0,0.7,0
		c1.5,0,2.6-0.1,2.5-0.2c-0.3-0.2,2.2-0.4,8.7-0.5c3.1-0.1,6.8-0.2,8.3-0.3c1.5-0.1,3.2-0.2,3.8-0.2c0.6,0,1.4-0.1,1.8-0.2
		c0.5-0.1-0.2-0.2-2.3-0.3c-2.2-0.1-2.6-0.1-1.9-0.2c1.9-0.3,0.5-0.4-3.3-0.4c-2.7,0-4.2,0-5-0.2c-0.6-0.1-0.9-0.2-0.7-0.2
		c0.3,0,0.5-0.2,0.5-0.3c0-0.3-0.2-0.3-1.7-0.2c-1.1,0.1-1.7,0-1.7-0.1c0-0.1,0.9-0.2,2.2-0.2c1.9,0,2.2,0,2.3-0.4
		c0.1-0.4,0.3-0.4,6.5-0.4c4,0,6.3-0.1,6.1-0.2c-0.2-0.1-0.8-0.2-1.4-0.2c-0.6,0-1.1-0.1-1.1-0.2c0-0.3,1.5-0.5,4-0.5
		c1.4,0,3.1-0.1,3.8-0.1l1.3-0.1l-1.6-0.2l-1.6-0.2l1.1-0.2c0.9-0.2,1.6-0.2,3.5,0c2.4,0.2,3.7,0.1,3.7-0.4
		C519.7,833.5,514.7,833,509.2,832.8z M226.8,844.3c0.4-0.1,0.7,0,0.7,0.2c0,0.2-0.3,0.3-0.7,0.3c-0.4,0-0.7-0.1-0.7-0.2
		C226.1,844.6,226.4,844.4,226.8,844.3z M194.6,844.6c-1.5-0.1-2-0.2-1.2-0.2c0.8,0,2,0,2.7,0.1
		C196.7,844.6,196.1,844.6,194.6,844.6z M213.3,853.9c-0.2,0-0.4-0.2-0.4-0.4c0-0.2,0.2-0.3,0.5-0.3c0.2,0,0.4,0.2,0.4,0.4
		C213.7,853.8,213.5,853.9,213.3,853.9z M274.3,847.7c0.4-0.1,1.1,0,1.6,0.1c0.4,0.1,0.1,0.2-0.8,0.1
		C274.2,847.9,273.9,847.8,274.3,847.7z M265.3,848.3c0.7,0,1.2-0.1,1-0.3c-0.1-0.2,0.2-0.3,0.7-0.3c0.5,0,0.9,0.2,0.9,0.3
		c0,0.2,2.1,0.3,4.8,0.4c3.2,0.1,4.6,0.2,4.1,0.4c-0.8,0.3-10.3,0.2-11.7-0.2C264.1,848.3,264.2,848.2,265.3,848.3z M256.2,846.8
		c5.7,0.2,8.1,0.4,8.1,0.6c0,0.2-0.9,0.4-2.2,0.3l-2.1,0l1.8,0.3l1.8,0.3l-1.7,0.2c-1.1,0.1-2.2,0-3.1-0.3c-1.9-0.7-15.2-1.4-19.1-1
		c-2.2,0.2-7.5,0.1-20.5-0.6c-9.7-0.5-18.1-1-18.7-1.1c-1-0.2-1.1-0.2-0.2-0.5c0.7-0.2,0.5-0.2-0.8-0.2c-1.9,0.1-2.7-0.5-0.9-0.6
		c0.7,0,2.7-0.1,4.6,0c1.8,0,3.6-0.1,3.9-0.2c0.3-0.2,3.6-0.3,7.3-0.3c6.6,0,10.9,0.4,10.4,0.9c-0.1,0.1,0.4,0.4,1.2,0.5
		C228,845.5,245.8,846.5,256.2,846.8z M492.9,828.1c-1,0-1.8-0.1-1.8-0.2c0-0.1,0.8-0.2,1.8-0.2c1,0,1.8,0.1,1.8,0.2
		C494.7,828,493.9,828.1,492.9,828.1z M500.7,829.2c-1.2,0.1-4.2,0.1-4.2,0c0-0.2,2.3-0.3,3.5-0.2
		C500.6,829.1,501,829.2,500.7,829.2z"/>
</g>
<path class="st2" d="M56.7,27.7c0.6,0,0.7,0,0.2,0.1C56.5,28,56.5,28,57,28c0.3,0,1.4,0,2.3,0.1c1.5,0.1,1.7,0,1.9-0.2
	c0.2-0.2,0.4-0.3,0.9-0.2c0.4,0.1,2.5,0.1,4.6,0.1c2.2,0,5,0,6.3,0c2.6,0.1,4.6-0.1,4.6-0.3c0-0.2-2.8-0.5-4.7-0.5
	c-1.8,0-4.1-0.2-3.8-0.4c0.1-0.1,0.5-0.1,1,0c0.8,0.1,2.1,0.2,7.5,0.2l3.2,0l-1.6-0.2c-1-0.2-1.9-0.4-2.4-0.7
	c-1-0.6-1.6-0.6-4.6-0.6c-1.2,0-3,0-4-0.1c-2.2-0.1-3.3,0-2.7,0.2c0.2,0.1,0.4,0.2,0.3,0.3c-0.1,0.1,0.3,0.2,1.2,0.2
	c0.7,0,1.5,0.1,1.7,0.1c0.2,0.1-0.7,0.1-2.2,0.1c-2,0-2.6,0-2.9,0.1c-0.2,0.1-0.3,0-0.2-0.3c0-0.3-0.1-0.6-0.4-0.7
	c-0.4-0.1-0.5-0.4-0.4-0.9c0.1-0.7,0.5-1.2,0.5-0.7c0,0.2,0.7,0.3,2.4,0.3c1.3,0,1.8,0.1,1.6,0.3c-0.1,0.1,0,0.1,0.2,0.1
	c0.2,0,0.3,0.1,0.2,0.2c-0.2,0.1,0.1,0.2,0.9,0.2c0.6,0,1.6,0,2.2,0.1c0.6,0.1,1.9,0.1,2.8,0.1l1.6-0.1l-1.2-0.2
	c-1.3-0.2-2.3-0.8-2.2-1.1c0.1-0.3,1.2-0.4,3.7-0.4c1.1,0,2.1-0.1,2.2-0.2c0.2-0.1,4.8-0.2,10-0.1c1,0,1.4,0,1.6-0.2
	c0.1-0.1,0-0.2-0.3-0.2c-0.7,0-3.9-0.7-5.5-1.2c-1.4-0.4-2.8-1.2-2.8-1.6c0-0.2,0.2-0.2,0.8-0.2c0.5,0,1.3,0.1,1.9,0.1
	c0.8,0,1,0.1,1,0.2c0,0.1,0.2,0.3,0.4,0.3c0.4,0,0.5-0.1,0.9-0.7c0.1-0.2,0.4-0.4,0.7-0.3c0.6,0.1,0.7,0.5,0.2,0.7
	c-0.2,0.1-0.2,0.2,0,0.3c0.2,0,0.5,0.2,0.6,0.3c0.1,0.1,0.7,0.2,1.5,0.2c0.7,0,1.2,0.1,1.1,0.1c-0.2,0.2,0.8,0.3,2.6,0.3
	c1.2,0,1.5,0,1.1,0.1c-0.5,0.1-0.5,0.1,0.1,0.1c0.3,0,1,0.1,1.5,0.3c0.5,0.2,1.5,0.3,2.3,0.4c1.7,0.1,1.6-0.2-0.2-0.3
	c-0.6,0-1.2-0.1-1.3-0.2c-0.3-0.1,1.9,0.1,3.4,0.4c0.6,0.1,2,0.2,3.1,0.3c1.1,0,2.8,0.1,3.8,0.1c1.5,0,1.9,0,1.9-0.2
	c0-0.2,2-0.3,2.4-0.1c0.1,0.1,1.4,0.1,2.8,0.2c1.4,0,2.6,0.1,2.6,0.2c0,0.1-0.3,0.1-0.7,0.1c-0.4,0-0.9,0-1,0.1
	c-0.1,0.1-1,0.1-2,0.1c-1.3,0-1.6,0-1.4,0.1c0.4,0.2,9.2,0.3,9.7,0.2c0.1,0,1.7-0.1,3.6,0c1.8,0,3.8,0,4.4-0.1
	c0.6-0.1,1.3-0.1,1.5-0.1c0.2,0,2.2,0,4.5,0c2.3,0,5.3,0,6.6,0c2.2,0,2.6,0,2.9-0.2c0.3-0.2,0.2-0.3-0.5-0.5
	c-0.5-0.1-1.2-0.2-1.5-0.2c-0.4,0-0.6,0-0.4-0.1c0.2-0.1,0.1-0.1-0.4-0.1c-0.3,0.1-1.6,0-2.8-0.1c-1.2-0.1-3.4-0.1-5-0.1
	c-2.1,0-2.9,0-3.1-0.1c-0.1-0.1-1-0.2-1.9-0.2c-1,0-1.7-0.1-1.7-0.2c0-0.1,0.6-0.1,1.4-0.1c0.8,0,3.3,0.1,5.7,0c2.4,0,3.8,0,3.2-0.1
	c-0.6,0-1.9-0.1-2.8-0.2c-1-0.1-2.2-0.1-3.1-0.1c-0.8,0.1-1.6,0.1-1.8,0c-0.7-0.1,1.5-0.4,2.9-0.4c0.8,0,1.2,0,1.2-0.1
	c0-0.1-0.3-0.1-0.6-0.1c-1,0-0.7-0.5,0.3-0.5c0.6,0,0.7,0,0.2-0.1c-0.4,0-0.7-0.1-0.7-0.2c0-0.1-0.8-0.2-1.7-0.4
	c-2.1-0.3-2.2-0.4-0.4-0.3c0.7,0,5.7,0,11.1-0.1c5.4-0.1,9.8-0.1,9.9,0c0.1,0.1-0.7,0.1-1.8,0.2l-2,0l1.9,0.1c1,0.1,2.1,0.1,2.4,0.2
	c0.3,0,2.6,0.1,5.1,0.2c2.5,0.1,5.8,0.1,7.3,0.2c1.6,0.1,4.1,0.1,5.6,0c2.6,0,2.7-0.1,1.4-0.2c-0.8-0.1-1.4-0.2-1.4-0.3
	c0-0.2,0.5-0.2,3.3-0.2c7.4,0.1,15.7,0,15.3-0.1c-0.6-0.2-6.5-0.6-10-0.6c-1.8,0-4.5-0.1-6.2-0.2c-1.6-0.1-4-0.2-5.3-0.3
	c-1.2-0.1-3.9-0.2-5.8-0.3c-7.8-0.4-11-0.5-12.7-0.4c-2,0.1-2.3,0.1-9.4,0.2c-3,0-7.5,0-9.9,0c-5.6-0.1-9.3-0.1-18.6-0.1
	c-4,0-8.9,0-10.8,0c-3.6,0-4.6,0.1-2,0.3l1.4,0.1l-1.2,0c-0.7,0-1.6,0-1.9-0.1c-1.1-0.2-7-0.4-11.4-0.4c-4.1,0-5-0.1-3.8-0.2
	c0.3,0,0.9-0.1,1.3-0.2c0.7-0.1,3.2-0.1,17-0.2c9.7-0.1,14-0.1,33.7-0.1c4.1,0,6.1-0.1,6.9-0.2c0.9-0.1,1-0.2,0.5-0.3
	c-0.4-0.1-0.3-0.1,0.6-0.1c0.6,0,8.3,0,17.1-0.1c8.8-0.1,17.7-0.2,19.8-0.2s3.8-0.1,3.8-0.1c0-0.1,1-0.1,2.2-0.1c1.2,0,3,0,3.8,0
	c0.9,0,3.4-0.1,5.6-0.1c2.2,0,3.8-0.1,3.7-0.1c-0.2-0.1-0.1-0.2,0.1-0.3c0.5-0.2,0.5-0.2,1.7-0.1c1,0.1,1.2,0.3,0.2,0.3
	c-0.3,0-0.5,0-0.4,0.1c0.1,0,2.8,0.1,6,0.1c3.1,0,7.8,0,10.4,0c2.6,0,7,0.1,9.8,0.1c6.2,0.1,13.9,0.1,20.8,0.2c2.9,0,10,0,15.7,0
	c5.8-0.1,11,0,11.6,0c1.8,0.2,18.9,0,18.9-0.2c0-0.1,0.5-0.1,1.4-0.1c2,0.1,23-0.1,22.9-0.3c0-0.1-0.9-0.1-1.9-0.1
	c-1,0-2.1,0-2.3-0.1c-0.3-0.1,0.6-0.1,3.1-0.2c3.8,0,5.6,0.1,3.3,0.3c-1.2,0.1-1.2,0.1,0.4,0.1c1,0,2.2-0.1,2.7-0.1
	c0.5-0.1,1-0.1,1,0c0.1,0.1,2.6,0.2,10.1,0.2c3.1,0,4.1,0,4.5-0.1c0.8-0.2,1.1-0.2,0.9,0c-0.2,0.2,0.8,0.2,6.1,0.1
	c7.2-0.1,6.5-0.3-0.8-0.2c-3.3,0-4.7,0-4.3-0.1c0.3-0.1,4.1-0.2,8.8-0.2c10.2-0.1,29.1-0.5,31.1-0.7c1.1-0.1,1.5-0.2,1.3-0.3
	c-0.2-0.1,0.2-0.2,1.3-0.2c1.2,0,1.5,0,1.3,0.2c-0.2,0.2,0.4,0.2,3.1,0.1c1.8,0,4.1,0,5,0.1c0.9,0.1,2.2,0.1,2.8,0.2
	c0.6,0-1,0.1-3.7,0.1c-4,0-4.7,0.1-4.3,0.2c0.4,0.1,2.7,0.1,12.6,0c6.7-0.1,13-0.2,13.9-0.3c1.4-0.1,12.9-0.4,22-0.6
	c1.5,0,2.8-0.1,3-0.2c0.3-0.1-3.3-0.1-8.5,0c-6.7,0.2-17.2,0.2-15.6,0.1c1.1-0.1,1.1-0.1-0.3-0.1c-0.8,0-1.5,0.1-1.6,0.2
	c-0.1,0.1-0.4,0.1-0.5,0c-0.3-0.1-4.4-0.4-5-0.3c-0.3,0-1.5,0.1-2.9,0.2c-1.9,0.1-2.2,0.1-1.3,0c1.2-0.2,2.7-0.2,22.5-0.7
	c7.4-0.2,13.7-0.4,14-0.4c0.3,0-5.5,0-12.9,0.1c-7.4,0.1-14.3,0.2-15.4,0.1c-2.3-0.1,32.5-0.7,41.9-0.8c3.9,0,6.4,0,5.8,0.1
	c-0.5,0.1-1.4,0.1-1.9,0.1c-2.3,0-13.6,0.2-13.3,0.3c0.1,0,6.6,0,14.4-0.1c7.8-0.1,16.8-0.2,20-0.2c3.2,0,8.7-0.1,12.2-0.2
	c7.8-0.3,21.1-0.2,20.5,0.1c-0.1,0.1,0,0.2,0.2,0.3c0.4,0.2,0.3,0.2-0.3,0.2c-0.4,0-1.2,0-1.7-0.1c-1-0.1-1.1-0.1-0.7,0.2
	c0.1,0.1,0.7,0.2,1.4,0.2c1.1,0,1.1,0-0.3,0.1c-1.7,0.1-1.5,0.2,2.2,0.4c3,0.2,4.2,0.5,3.4,0.7c-0.5,0.1-0.5,0.2,0,0.4
	c0.5,0.2,0.5,0.2-0.2,0.1c-3.3-0.4-9.2-0.8-9.2-0.6c0,0,0.7,0.1,1.6,0.2c2.2,0.2,3.3,0.4,3.3,0.6c0,0.1,0.4,0.2,0.9,0.2
	c0.5,0,1.4,0,2,0.1c1,0.1,3.3,0.2,5.7,0.2c1,0,1.2,0,1,0.2c-0.2,0.2,0,0.2,0.9,0.2c0.6,0,1.3,0.1,1.4,0.1c0.2,0.1,0.1,0.1-0.3,0.1
	c-0.3,0-1.8-0.1-3.3-0.1c-2.1,0-2.7,0-2.4,0.1c0.2,0.1,0.6,0.2,1,0.2c0.6,0.1,0.6,0.1,0.2,0.3c-0.4,0.2-0.7,0.2-4.4,0
	c-3.3-0.2-4.4-0.2-7.1-0.1c-2.8,0.1-3.1,0.2-2.2,0.3c0.8,0.1,0.7,0.1-1.2,0.2c-2.1,0-2.2,0-1.9,0.4c0.3,0.4,0,0.4-1.8-0.1
	c-1.4-0.4-2.2-0.5-2.2-0.3c0,0.1-1,0.1-2.2,0.1c-2.4,0-3.1,0.2-1,0.3c0.7,0,2.7,0.2,4.5,0.3c2.6,0.2,3.3,0.3,3.3,0.5
	c0,0.2,0.2,0.2,0.6,0.2c0.3,0,0.6,0,0.6,0c0,0.1-1.2,0.1-2.8,0.2c-1.5,0-2.8,0.1-2.8,0.1c0,0.1,3.8,0.5,6.9,0.6
	c2.3,0.1,5.3,0.4,6,0.6c0.1,0-0.4,0.1-1.3,0.1c-0.8,0-1.6,0.1-1.7,0.2c-0.1,0.1,2.9,0.6,4.9,0.7c0.6,0,1,0.1,1,0.2
	c0,0.1,0.3,0.1,0.7,0.1c0.4,0,1,0.1,1.3,0.2c0.3,0.1,1,0.2,1.5,0.2c0.5,0,1.1,0,1.2,0.1c0.1,0.1,0.8,0.2,1.5,0.4
	c0.7,0.1,0.9,0.2,0.4,0.2c-4.1-0.3-9-0.4-13.4-0.1c-1.5,0.1-2.1,0.1-1.9,0c0.2-0.1-0.2-0.1-1-0.1c-1,0-1.1,0-0.7,0.2
	c0.4,0.2,0.1,0.2-2.6,0.2c-2.3,0-3,0-2.9,0.1c0.1,0.1,0.3,0.2,0.6,0.2c0.2,0,0.5,0,0.7,0.1c0.2,0.1,0,0.1-0.4,0.1
	c-0.7,0-0.6,0,0.2,0.3c0.5,0.1,1.2,0.2,1.6,0.2c0.4,0,1.2,0.1,1.9,0.2l1.3,0.2l-2.2,0c-1.2,0-2.1,0.1-2.1,0.1
	c0.2,0.4-0.1,0.4-1.5,0.4c-0.9,0-1.5,0-1.5,0.1c0,0.1-0.8,0.1-1.9,0.1c-1.4,0-1.9,0-1.9,0.1c0,0.1-0.2,0.1-0.5,0.1
	c-0.3,0-2.1-0.1-4-0.1c-2,0-4.8-0.1-6.3-0.1c-2.1-0.1-2.9-0.1-3.7,0.1c-1,0.2-0.9,0.2,1,0.2c1.1,0,3.8,0.1,5.9,0.3
	c2.2,0.1,4.6,0.2,5.5,0.2s2.4,0.1,3.4,0.1c1,0.1,2.2,0.2,2.7,0.2c1.2,0,2.8,0.2,2.8,0.4c0,0.3-0.6,0.3-2.7,0.2
	c-1.1-0.1-2.4-0.1-2.9-0.1c-0.5,0-1.2,0-1.5-0.1c-0.4-0.1-1.7-0.1-3.1-0.2c-1.3,0-3.2-0.1-4.1-0.2c-1.1-0.1-1.8-0.1-2,0
	c-0.2,0.1-0.8,0.1-1.3,0.1c-0.9,0-0.9,0,0.2-0.1c1.8-0.2-5.1-0.4-11-0.3c-2.8,0-5.2,0-5.3,0c-0.3-0.1-3.4-0.2-3.4-0.1
	c0,0.1,0.3,0.1,0.7,0.1s0.8,0,1,0.1c0.1,0.1,1.5,0.1,3.1,0.1c2.9,0,8.9,0.3,10.1,0.5c0.5,0.1,0.2,0.1-1.2,0.1c-1,0-2.2-0.1-2.5-0.1
	c-0.4,0-0.7,0-0.7,0.1c0,0.2,4.5,0.3,5.9,0.1c1.3-0.1,4.2,0.1,4.2,0.3c0,0.1,0.2,0.1,0.4,0c0.2,0,1.5-0.1,2.9,0c1.4,0,2.3,0.1,2,0.2
	c-0.2,0.1-1.2,0.1-2.2,0c-1,0-1.8-0.1-1.9,0c-0.2,0.1,9.4,0.7,10.5,0.7c1,0,2,0.1,3.7,0.4c0.6,0.1,0.7,0.2,0.4,0.2
	c-0.3,0-0.9,0.1-1.2,0.3c-0.3,0.2-0.9,0.3-1.3,0.3c-1.1,0,0.2,0.2,2.1,0.3c0.9,0,1.6,0.1,1.6,0.2c0,0.1,1,0.1,2.3,0.1
	c1.2,0,2.2,0,2.1,0.1c-0.3,0.2,1.9,0.2,7.3,0.2c2.6,0,5.7,0.1,6.9,0.1c1.2,0.1,2.7,0.1,3.2,0.1c0.5,0,1.2,0.1,1.5,0.1
	c0.4,0.1-0.2,0.1-1.9,0.2c-1.8,0.1-2.2,0.1-1.6,0.2c1.6,0.2,0.4,0.3-2.8,0.3c-2.3,0-3.6,0.1-4.2,0.2c-0.5,0.1-0.8,0.2-0.5,0.2
	c0.2,0,0.4,0.1,0.4,0.2c0,0.2-0.2,0.2-1.4,0.2c-0.9,0-1.4,0-1.4,0.1c0,0.1,0.7,0.1,1.9,0.1c1.6,0,1.9,0,2,0.3
	c0.1,0.3,0.3,0.3,5.5,0.3c3.3,0,5.3,0,5.1,0.1c-0.1,0.1-0.6,0.1-1.1,0.1c-0.5,0-0.9,0.1-0.9,0.1c0,0.2,1.3,0.3,3.4,0.3
	c1.1,0,2.6,0,3.2,0.1l1.1,0.1l-1.3,0.2l-1.3,0.2l0.9,0.2c0.7,0.1,1.3,0.1,2.9,0c2-0.2,3.1-0.1,3.1,0.2c0,0.3-4.2,0.8-8.8,1
	c-3.3,0.1-6.5,0.6-5.2,0.7c0.4,0,1.3,0.2,2,0.3c1.1,0.2,1.2,0.2,0.6,0.3c-0.4,0.1-1.2,0.1-1.7,0.1c-0.7,0-1,0.1-0.9,0.2
	c0.1,0.1,1.2,0.1,3.7,0.1c2,0,3.6,0,3.8,0.1c0.3,0.2-2.4,0.7-4.2,0.8c-0.7,0.1-1.9,0.2-2.7,0.3c-1.2,0.2-1.4,0.3-0.8,0.4
	c1.2,0.2,0.7,0.4-0.8,0.3c-1.7-0.1-2.1,0.2-0.5,0.3c1,0.1,1.1,0.1,0.6,0.4c-0.2,0.1-0.1,0.2,0.3,0.3c0.3,0.1,0.5,0.2,0.4,0.2
	c-0.2,0.1-5.9,0.3-11.6,0.5c-3.1,0.1-6.4,0.3-6.6,0.5c-0.1,0.1-0.5,0.1-0.9,0.1c-0.9,0-1.3,0.2-0.7,0.5c0.3,0.1,1.1,0.2,2.1,0.2
	c2,0,2.1,0.3,0.2,0.4c-1.6,0.1-1.5,0.3,0,0.3l1.2,0l-0.9,0.2c-0.6,0.1-0.9,0.2-0.8,0.4c0.1,0.2,0.6,0.2,2.1,0.2l1.9,0L502,42
	c-1.7,0.2-2.5,0.5-1.1,0.4c0.4,0,1.9-0.1,3.5-0.2c2.5-0.1,2.9-0.1,2.8,0.1c0,0.2,0.3,0.2,2.3,0.2c1.3,0,2.5,0,2.8,0
	c0.8,0.2-1.8,0.4-6.1,0.5c-3.2,0.1-4,0.2-4,0.3c0,0.1-0.4,0.2-1.1,0.2c-1,0-1.1,0.1-0.9,0.3c0.2,0.2-0.1,0.3-1.2,0.5
	c-0.8,0.1-1.6,0.3-1.8,0.5c-0.3,0.2-1.3,0.2-14.2,0.4c-8.1,0.1-14.9,0.1-16.4,0.1c-2.7-0.1-12.5-0.1-13.1,0.1c-0.2,0-1.5,0.1-3,0.1
	c-1.4,0-3,0.1-3.6,0.1c-0.5,0-2.3,0-3.9,0c-1.6-0.1-5.7-0.1-9-0.1c-3.3,0-6.8-0.1-7.9-0.1c-3.2-0.1-4.8-0.1-18,0
	c-7,0.1-13.6,0.1-14.6,0.1c-1,0-4.6,0-7.8,0c-3.3,0-6.2,0-6.5-0.1c-0.3-0.1-0.7-0.1-0.9,0c-0.8,0.2-11.1,0.4-20.4,0.4
	c-11.4,0-15.5,0-26.6,0.1c-5.6,0-10.3,0-13.4-0.1c-2.6-0.1-5.4-0.2-6.2-0.2c-0.8,0-2.9,0-4.6-0.1c-1.7-0.1-4.8-0.2-6.9-0.2
	c-4.4,0-6.8-0.1-8-0.2c-0.5,0-1.1,0-1.5,0.2c-0.7,0.2-2.8,0.2-2.4,0c0.1-0.1,0-0.1-0.2-0.2c-0.2,0-0.4,0-0.4,0.1
	c0,0.2-0.8,0.3-1.3,0.1c-0.2-0.1-0.7-0.1-1.1-0.1c-1.2,0-5-0.1-10.3-0.3c-3-0.1-4.8-0.1-5.1,0c-0.6,0.2-3.7,0.2-5.9,0
	c-0.9-0.1-2.7-0.2-3.9-0.2c-1.8,0-2.2,0-2.1,0.2c0,0.1-0.2,0.2-0.4,0.2c-0.2,0-0.4-0.1-0.4-0.1c0-0.1-0.3-0.1-0.7-0.1
	c-1.5,0.2-1.8,0.2-1.7,0c0.1-0.2-0.6-0.2-0.7,0c-0.1,0.1-0.8,0.1-3.1,0c-2.9-0.1-4.4-0.1-2.1,0.1c0.6,0,1.2,0.1,1.2,0.2
	c0,0.2-4.9,0.1-5.4-0.1c-0.2-0.1-0.8-0.1-1.4-0.1c-0.8,0-1,0.1-0.8,0.2c0.1,0.1,0,0.2-0.2,0.2c-0.2,0-0.4,0.1-0.4,0.1
	c0,0.1,2.3,0.4,2.7,0.3c0.1,0,0.5,0,0.8,0.1c0.7,0.2,3.6,0.2,13.4,0.2c9.7,0,25,0.1,30.4,0.2c9.2,0.3,15.6,0.4,36.4,0.6
	c2.6,0,7.6,0.1,11.1,0.1c3.5,0,7.3,0.1,8.4,0.2c1.1,0.1,4.3,0.2,7.1,0.2c6.9,0.1,14.2,0.2,20.8,0.4c0.8,0,1.3,0,1.1-0.1
	c-0.4-0.1-4.7-0.3-11-0.4c-5.3-0.1-8.1-0.3-3.3-0.3c1.7,0,4.4,0.1,6,0.1c1.7,0,5.7,0.1,9,0.2c3.3,0.1,6.3,0.1,6.8,0.2
	c0.4,0,1.9,0,3.4,0.1c1.4,0,3.3,0.1,4.1,0.2c1.4,0.1,10.7,0.3,16.1,0.4c4.9,0,7.5,0.1,11.8,0.2c7.7,0.2,10.4,0.2,10.9,0
	c0.7-0.2,1.8-0.3,2.4-0.1c0.4,0.1,0.7,0.1,1,0c0.3-0.1,0.6-0.1,0.9,0c0.2,0.1,4.8,0.1,10.2,0.1c11.3-0.1,11.1-0.1,13.1,0.1
	c0.8,0.1,4.2,0.2,7.5,0.2c10,0.1,10.9,0.1,10.1,0.2c-0.5,0.1,0,0.1,1.7,0.2c1.9,0,3.1,0,5.4-0.3c1.6-0.2,3-0.3,3.1-0.2
	c0.1,0-0.2,0.1-0.6,0.2c-1.4,0.1-0.9,0.3,0.6,0.2c1.5-0.1,5-0.5,5.3-0.7c0.3-0.1,3.4-0.3,3.2-0.2c-0.3,0.2,3.6,0,4.1-0.2
	c0.6-0.2,1.4-0.2,1.2,0.1c-0.1,0.1,0.1,0.2,0.7,0.2c1.8,0,4.6-0.4,5.8-0.7c1.2-0.3,3.2-0.5,2.8-0.2c-0.1,0.1,0.1,0.1,0.6,0.1
	c0.4,0,0.7-0.1,0.6-0.1c-0.4-0.2,2-0.2,4.2,0c1,0.1,2.4,0.2,3,0.2c1,0-2,0.3-5.7,0.7c-0.5,0-0.8,0.1-0.6,0.2c0.1,0.1,0.7,0.1,1.3,0
	c0.6-0.1,1.1,0,1.1,0c0,0.2-1.3,0.3-2.9,0.3c-0.7,0-1.2,0.1-1.2,0.2c0,0.1-0.5,0.1-1.2,0.2c-0.7,0-1.5,0.1-1.8,0.2
	c-0.4,0.1,0.3,0.1,2.2,0.1c3.3,0,3.4,0,0.2,0.2c-1.2,0.1-2.6,0.1-3,0.2c-0.4,0-1.5,0.1-2.3,0.1c-0.9,0-1.6,0.1-1.6,0.2
	c0,0.1,0.2,0.1,0.5,0.1c0.3,0,1,0,1.6,0c1.1,0,1.1,0,0.2,0.1C501,50,500,50,499.3,50c-0.7,0-1.6,0-1.9,0c-0.5,0-12.4,0.1-27.7,0.2
	c-3.6,0-10.6,0.1-15.6,0.1c-5,0-11.8,0-15.2,0c-3.4,0-8.1,0-10.5,0c-7.7,0-14.7-0.1-15.9-0.2c-0.5-0.1-0.1-0.1,1.1,0
	c2.8,0.1,5,0,5.5-0.1c0.3-0.1-0.3-0.2-2.2-0.2c-1.4,0-4.1-0.1-5.9-0.2c-1.8-0.1-4.8-0.2-6.6-0.2c-1.8,0-4.5-0.1-6.1-0.2
	c-1.6,0-6.1-0.1-10.1-0.2c-4-0.1-7.9-0.1-8.6-0.1c-0.7,0-2.2-0.1-3.4-0.1c-1.1,0-2.6-0.2-3.3-0.3c-1.7-0.3-8.7-0.7-12-0.6
	c-1,0-2.7,0-3.7,0c-1,0-2.4-0.1-3-0.1c-0.6,0-3.5-0.1-6.4-0.2c-6.2-0.2-12.9-0.3-17.8-0.3c-6.5,0-12.2-0.1-15.4-0.2
	c-1.3-0.1-4.5-0.1-7.1-0.1c-2.6,0-7,0-9.7-0.1c-2.8-0.1-5.5-0.1-6-0.1c-3.7,0.1-9.7,0.1-9.7,0c0-0.1,0.8-0.2,1.8-0.2l1.8,0l-2.3-0.1
	c-1.2,0-5-0.1-8.4-0.1c-3.4,0-7.5,0-9.2,0c-1.7,0-7.1,0-12,0c-5,0-10.4,0-12.1,0c-2.6,0-3.1,0-3.1,0.2c0,0.1,0.2,0.2,0.5,0.3
	c0.3,0,0.1,0.1-0.4,0.1c-0.5,0-0.8,0-0.9-0.1c0-0.2-2.6-0.5-3.3-0.4c-0.3,0-0.7,0-1,0c-0.2-0.1-1.5-0.1-2.9-0.1
	c-1.6,0-2.4,0-2.4-0.1c0-0.2-0.3-0.3-2.7-0.5c-2.4-0.2-5.9-0.4-5.6-0.3c0.1,0,0,0.1-0.2,0.2c-0.5,0.2-0.1,0.3,3.2,0.3
	c1.4,0,2.7,0.1,3,0.2c0.4,0.1,0.1,0.1-1.6,0.1c-1.9-0.1-2-0.1-1.5,0.2c0.5,0.2,0.5,0.2-0.4,0.2c-1.3-0.1-2.3-0.2-3-0.4
	c-0.6-0.2-4.3-0.5-6.8-0.7c-0.7,0-2.3-0.1-3.6-0.1c-1.2,0-3.4,0-4.9-0.1c-1.4-0.1-3.5,0-4.5,0c-1.7,0.1-1.5,0.2,0.6,0.2
	c0.3,0,0.8,0.1,1,0.1c0.3,0.1,0.6,0.1,0.8,0c0.2,0,0.4,0,0.4,0c0,0.1-3.1,0.4-4,0.3c-1.5-0.1-12.2-0.2-12.6-0.1
	c-0.3,0.1,1.5,0.2,5.4,0.3c0.5,0,0.8,0.2,0.3,0.2c-2.6,0.1-3.4,0.1-3.6,0c-0.1-0.1-0.7-0.1-1.3-0.1c-1.4,0-1.5,0.4,0,0.4
	c7.2,0.4,18.1,0.6,24.9,0.5c5.1-0.1,22.8-0.2,25.7-0.2c0.8,0,2.1,0.1,2.8,0.1c1.2,0.1,1,0.1-1.5,0.2c-1.8,0-2.6,0.1-2.2,0.2
	c1,0.2,21.6,0.4,22.5,0.2c0.3-0.1,1-0.1,1.7,0c0.6,0.1,3,0.1,5.3,0c2.6-0.1,4.4,0,4.9,0.1c0.6,0.1,0.3,0.2-1.9,0.2
	c-1.5,0-2.8,0.1-3,0.2c-0.3,0.1-0.7,0.1-1.5,0c-0.6-0.1-1.7-0.1-2.4,0c-0.7,0.1-3.9,0-7,0c-3.1-0.1-7.8-0.1-10.5-0.1
	c-2.7,0-6.3,0-7.9,0c-4.3-0.1-9.9-0.1-9.9,0c0,0.1-0.5,0-1,0c-0.8-0.1-1.8-0.1-4.4,0c-1.8,0.1-3.5,0.1-3.7,0.1
	c-0.3-0.1-1.4,0.2-1.4,0.4c0,0.1,1.3,0.2,1.9,0.2c0.1,0,0.8,0.1,1.6,0.2c0.8,0.1,3.2,0.2,5.5,0.2c2.4,0,4.4,0.1,4.8,0.2
	c0.8,0.2,6.4,0.4,14.6,0.5c5.6,0.1,11.6,0.2,14.8,0.3l2.4,0.1l-1.9,0.1l-1.9,0.1l1.7,0.1c1.5,0.1,0.9,0.1-4.5,0.2
	c-3.4,0-7.5,0-9.2-0.1c-5.2-0.2-5.8-0.2-5.8-0.1c0,0.1-0.6,0.2-2.1,0.2c-3.1,0-5.8-0.1-6.4-0.3c-0.4-0.1-0.6-0.1-0.7,0
	c-0.1,0.1-0.5,0.2-1,0.2c-0.6,0-0.7,0-0.3-0.1c0.7-0.2-0.6-0.2-1.8-0.1c-0.5,0.1-0.7,0.1-0.3,0.1c0.4,0,0.7,0,0.8,0.1
	c0.3,0.2-4.4,0.1-5.3,0c-0.4-0.1-3.5-0.2-6.7-0.3c-5.8-0.1-11.1-0.4-6.5-0.3c5.3,0.1,12.9,0,12.4-0.1c-1.2-0.2-13.2-0.7-22.2-0.8
	c-6.2-0.1-11.1-0.2-11.6-0.3c-0.2,0-1.3-0.1-2.4-0.1c-1.1,0-3.8-0.2-5.9-0.3c-2.2-0.2-5.7-0.3-7.8-0.3c-2.7,0-3.9-0.1-3.9-0.2
	c0-0.2-1.2-0.3-3.4-0.3c-1.2,0-1.5,0.1-1.1,0.1c0.5,0.1,0.5,0.1-0.1,0.1c-1.4,0-0.5,0.5,1.2,0.6c0.7,0,1.2,0.2,1.2,0.3
	c0,0.2-2.1,0.3-4.6,0.1c-4.1-0.3-8.1-0.5-10-0.4c-1.1,0.1-1.9,0.1-1.9,0c0-0.1-0.4-0.2-1-0.3c-1.1-0.2-2.8-0.2-2.8,0
	c0,0.2,0.9,0.4,1.8,0.4c0.6,0,0.8,0.1,0.8,0.3c0,0.1-0.1,0.2-0.2,0.2c-0.1,0-1-0.2-2-0.4c-1.4-0.3-1.8-0.4-1.7-0.7
	c0.1-0.3-0.2-0.3-3.9-0.6c-2.2-0.2-5.5-0.5-7.4-0.8c-1.9-0.3-4.5-0.7-5.9-0.9c-2.1-0.3-2.5-0.4-2.3-0.6c0.2-0.3,1.2-0.3,3.1,0
	c0.5,0.1,1.4,0.2,2,0.1c0.5,0,1.1,0.1,1.1,0.1c0.2,0.2,3.9,0.5,6.1,0.4l1.9,0l-2.5-0.3c-1.5-0.2-2.5-0.3-2.6-0.5
	c-0.2-0.3-2-0.4-4-0.2c-2,0.1-2.6-0.1-0.7-0.2l1.4-0.1l-1.2-0.1c-0.7,0-2.7-0.1-4.4-0.1c-1.7,0-3.2-0.1-3.3-0.1
	c-0.1-0.1,1-0.1,2.5,0c1.5,0,2.9,0,3.3,0c0.6-0.1,0.7,0-1.7-0.3c-1-0.1-1.1-0.1-0.3-0.2c0.4,0,1.2,0,1.6,0.1
	c0.4,0.1,1.3,0.1,1.9,0.1c0.6,0,1.2,0,1.3,0.1c0.1,0.1,0.7,0.1,1.2,0.2c0.6,0,1.4,0.1,1.7,0.1c0.6,0.1,0.7,0,0.4-0.2
	c-0.2-0.2-0.1-0.3,0.3-0.2c0.3,0,0.5,0.2,0.4,0.3c-0.1,0.1,0.1,0.2,0.6,0.2c0.6,0,0.8-0.1,0.7-0.2c-0.1-0.2-1-0.3-2.5-0.5
	c-1.3-0.1-2.8-0.3-3.2-0.4c-0.9-0.1-2.5-0.3-3.1-0.3c-0.2,0-1-0.1-1.8-0.2c-0.8-0.1-1.8-0.2-2.4-0.2c-0.6,0-1-0.1-1-0.2
	c0-0.3-0.6-0.3,6.1,0.4c1.4,0.1,2.8,0.2,3.2,0.2c0.7,0,3.1,0.1,8.2,0.4c3.3,0.2,4.9,0.2,4.5,0.1c-0.1-0.1-0.9-0.1-1.6-0.2
	c-0.8,0-1.6-0.1-1.9-0.2c-0.7-0.2-5.3-0.5-7.8-0.6c-3.1-0.1-5.9-0.2-6.8-0.4c-1.4-0.3-4.2-0.4-5.2-0.3c-0.7,0.1-0.9,0.1-1.1-0.1
	c-0.1-0.2-0.8-0.3-2.6-0.3c-3-0.1-3.3-0.1-2.5,0c0.5,0.1,0.4,0.1-0.2,0c-0.4,0-2.6-0.2-4.8-0.4c-2.2-0.2-4.4-0.4-4.8-0.4
	c-0.9-0.2-1.2-0.2-0.9,0c0.3,0.2,0.1,0.2-1.1,0c-0.5-0.1-0.8-0.2-0.6-0.2c0.2,0-0.4-0.1-1.2-0.1c-0.9,0-2.1,0-2.7-0.1L96.9,40
	l1.1,0.3c0.6,0.2,1.3,0.3,1.6,0.3c0.2,0,0.6,0.1,0.7,0.1c0.2,0.1-0.1,0.1-0.9,0.1c-1.1-0.1-1.1-0.1-1,0.3c0.2,0.3,0.1,0.3-0.4,0.3
	c-0.3,0-0.5-0.2-0.5-0.3c0.1-0.1-0.3-0.2-1.1-0.3c-1.5-0.1-2-0.2-2.1-0.4c0-0.1-0.3-0.3-0.6-0.5c-0.5-0.2-0.5-0.4-0.2-0.6
	c0.7-0.6,0.2-0.7-2.1-0.7c-1.1,0-2.2,0-2.3-0.1c-0.1-0.1-0.6-0.1-1.1-0.1c-0.4,0-1.1,0-1.4-0.1c-0.5-0.1-0.5-0.1,0.1-0.3
	c0.6-0.2,0.6-0.2-0.2-0.6c-0.7-0.4-1-0.5-2.1-0.5c-0.7,0-1.2,0.1-1,0.1c0.3,0.1-0.3,0.2-0.7,0.1c-0.1,0,0-0.2,0.4-0.3
	c0.6-0.2,0.4-0.2-1.3-0.2c-2,0-3.8-0.2-3.9-0.5c0-0.2-2.2-0.4-4.9-0.5c-1.7-0.1-2.6-0.1-5.3-0.1c-1.6,0-1.6,0-0.6-0.1
	c0.6-0.1,1.5-0.1,2-0.1c0.7,0.1,0.8,0,0.6-0.1c-0.2-0.1-1.2-0.1-4,0c-2,0.1-3.8,0.1-3.9,0C61.9,35,60.9,35,59.7,35
	c-1.2,0-3.1,0-4.3-0.1c-1.2-0.1-2.6,0-3.2,0l-1,0.1l1.1,0.1c0.6,0.1,1.5,0.2,1.9,0.3c0.4,0.1,2.6,0.1,4.9,0.2
	c4.7,0.1,12.7,0.3,14.3,0.4c1.8,0.1,1.6,0.4-0.3,0.4c-0.9,0-1.7,0-1.7-0.1c0-0.1-3.2-0.1-7.1,0c-4.8,0-7.1,0.1-6.9,0.2
	c0.1,0.1,0.8,0.1,1.4,0.1c0.6,0,1,0,0.9,0.1c-0.4,0.2-8.5-0.3-12-0.8c-1.1-0.2-2.3-0.3-2.8-0.3c-0.5,0-0.9-0.1-0.9-0.2
	c0-0.1-0.2-0.2-0.6-0.1c-0.7,0.1-1.1-0.1-1.1-0.6c0-0.3-0.2-0.4-0.7-0.4c-2,0-12.5-0.2-14.3-0.4C23,33.8,23,33.8,23.6,34
	c0.3,0.1,0.8,0.2,1.2,0.2c0.4,0,0.8,0,0.9,0.1c0.1,0.1,1.5,0.2,3.1,0.4c1.6,0.1,3,0.3,3.1,0.4c0.1,0.1,0.6,0.2,1.1,0.2
	c0.8,0.1,0.8,0.1,0.2,0.1c-0.4,0-1-0.1-1.3-0.1c-0.3-0.1-2.6-0.3-5.1-0.5c-3.3-0.3-5.1-0.5-6.5-0.8c-1.1-0.2-3-0.6-4.2-0.8
	c-1.2-0.2-1.9-0.3-1.6-0.4c0.3,0,1.1,0.1,1.7,0.2c1.4,0.2,1.6,0.2,0.8-0.3c-0.3-0.2-0.6-0.4-0.5-0.5c0.1,0,1.4,0.2,3,0.5
	c5,1.1,7.2,1.3,8.4,1c0.7-0.2,0.7-0.2,0-0.4c-0.4-0.1-2-0.3-3.6-0.4c-3.4-0.2-3.5-0.3-3.2-0.4c0.1-0.1,0.4-0.1,0.7,0
	c0.6,0.2,5.3,0.5,6.5,0.4c1.2,0,1.1,0-1.9-0.3c-1.2-0.1-2.1-0.2-2.1-0.2c0.1,0,3.6,0.1,6.6,0.3c0.5,0,0.8,0,0.8-0.1
	c0-0.2-3.4-0.6-5.3-0.7c-2.3-0.1-3.2-0.2-1.5-0.3l1.3,0L25,31.5c-0.7-0.1-1.2-0.2-1.2-0.3c0-0.1,1,0,2.7,0.3
	c0.8,0.2,2.7,0.3,4.5,0.4c2.1,0.1,2.7,0.1,1.7,0.2c-1.6,0-1.8,0.3-0.3,0.4c0.6,0,1.2,0.1,1.4,0.2c0.6,0.1,4.7,0.3,9.2,0.3
	c4.6,0,12,0.1,17.6,0.2c8,0.1,9.4,0.2,9.4,0.1c0,0-0.6-0.2-1.4-0.4c-1-0.2-1.9-0.3-3.2-0.3c-2,0-3.6-0.3-3.3-0.7
	c0.2-0.2,0.5-0.2,1.2-0.2l1,0.1l-0.8-0.4c-0.4-0.2-1.2-0.5-1.6-0.6c-0.4-0.2-0.8-0.4-0.8-0.5c0-0.2-1.5-0.3-6.6-0.3
	c-1.9,0-3.9,0-4.5-0.1c-0.6,0-2.5-0.1-4.1-0.1c-1.7,0-6.1,0-9.9-0.1c-5.2,0-7,0-7.4,0.1c-0.8,0.2-0.6,0.4,0.5,0.4
	c0.6,0-0.3,0.1-1.8,0.1c-1.6,0-3.4,0.1-4,0.2c-1.2,0.1-1.4,0-0.9-0.3c0.2-0.1,0.8-0.1,2.7-0.1c1.9,0.1,2.4,0.1,2.7-0.1
	c0.6-0.4,0.3-0.5-0.6-0.5c-0.5,0-0.9,0-0.9,0c0-0.1-0.8-0.1-1.8-0.2c-2.4-0.1-5.3-0.3-6.3-0.6c-0.7-0.2-0.7-0.2,0.4-0.1
	c0.6,0,1.6,0.1,2.3,0c1-0.1,1-0.1,0.4-0.2c-0.5-0.1-0.4-0.1,0.6,0c4.3,0.2,6.5,0.2,12.4,0.3c3.6,0,8.3,0.1,10.3,0.1
	c2.1,0,5,0.1,6.5,0.1c2.5,0,2.7,0,2.2-0.2c-0.5-0.2-0.4-0.2,0.2-0.1c0.4,0.1,1.8,0.2,3.1,0.2c2.2,0.1,2.3,0,2.3-0.2
	c0-0.2-0.2-0.3-0.5-0.3c-0.3,0-4.5-0.1-9.5-0.1c-8.7,0-13.3-0.1-14-0.4c-0.2-0.1,0.2-0.1,0.8,0c3.9,0.2,19.1,0.1,19.7-0.2
	C55.8,27.8,56.3,27.7,56.7,27.7z M65.5,24.1c-0.4,0-0.5,0-0.2,0.1c0.3,0,0.6,0,0.7,0C66.1,24.1,65.9,24.1,65.5,24.1z M78.7,24.4
	c-0.1-0.1-0.5-0.1-0.8-0.1c-0.3,0-0.5,0.1-0.3,0.1c0.1,0.1,0.5,0.1,0.8,0.1C78.7,24.5,78.8,24.5,78.7,24.4z M83.1,20.3
	c-0.2,0-0.3,0.1-0.2,0.1c0.1,0.1,0.3,0.1,0.4,0.1c0.1,0,0.2-0.1,0.2-0.1C83.5,20.3,83.3,20.3,83.1,20.3z M159.1,16.4
	c-0.4,0-0.5,0-0.2,0.1c0.3,0,0.6,0,0.7,0C159.7,16.4,159.5,16.4,159.1,16.4z M164.4,16.2c-0.6,0-0.8,0-0.5,0.1c0.4,0,0.9,0,1.1,0
	C165.3,16.2,165,16.2,164.4,16.2z M176.1,16.7c-2.1,0-5.6,0-7.8,0c-7.6-0.1-7.8-0.1-6.6,0c2.5,0.2,6.3,0.3,10.5,0.3
	c2.5,0,5.5,0,6.7,0.1c1.4,0,2.2,0,2.2-0.1C181.1,16.7,180.1,16.6,176.1,16.7z M513,15.2c0.1,0.1,0.4,0.1,0.6,0.1
	c0.2,0,0.3-0.1,0.1-0.1c-0.1-0.1-0.4-0.1-0.6-0.1C512.9,15.1,512.9,15.2,513,15.2z M506.2,14.2c1.1,0.1,2.5,0.1,2.3,0
	c-0.1-0.1-0.9-0.1-1.6-0.1C505.7,14.1,505.6,14.1,506.2,14.2z M498.3,15.9c0.4,0,0.9,0,1.1,0c0.3,0,0-0.1-0.7-0.1
	C498.2,15.9,498,15.9,498.3,15.9z M504,19c-0.3-0.1-0.8-0.1-1.1-0.1c-0.4,0-0.3,0.1,0.2,0.1C504.2,19.2,504.7,19.2,504,19z
	 M500.3,19.7c0.9,0.2,6.8,0.4,6.3,0.2c-0.1,0-1.3-0.1-2.6-0.2c-1.3-0.1-2.9-0.1-3.5-0.1l-1.1-0.1L500.3,19.7z M495.5,19.5
	c0.3,0,0-0.1-0.5-0.1c-0.5,0-0.7,0-0.5,0.1C494.9,19.6,495.3,19.6,495.5,19.5z M494.8,22.7c0.3,0,0.6,0,0.7,0c0.1,0-0.1-0.1-0.5-0.1
	C494.6,22.6,494.5,22.6,494.8,22.7z M493.5,21c0.2,0.1,1.3,0,1.3-0.1c0,0-0.3,0-0.8,0C493.6,20.9,493.4,21,493.5,21z M490.5,24.8
	c0.3,0,0.6,0,0.7,0c0.1,0-0.1-0.1-0.5-0.1C490.2,24.8,490.2,24.8,490.5,24.8z M515.6,36.6c0.5-0.1,0.8-0.1,0.6-0.1
	c-1-0.1-3.6,0-3.6,0.1C512.6,36.6,514.5,36.7,515.6,36.6z M509.7,37.6c0.8,0,1.5-0.1,1.5-0.2c0-0.1-0.7-0.1-1.5-0.1
	c-0.8,0-1.5,0.1-1.5,0.2C508.2,37.5,508.9,37.6,509.7,37.6z M497,40.5c0.3,0,0.6-0.1,0.6-0.1c0-0.1-0.3-0.1-0.6-0.1
	c-0.3,0-0.6,0.1-0.6,0.1C496.4,40.5,496.6,40.5,497,40.5z M465.9,27.4c0.3,0,0.7,0,0.9,0c0.3,0,0-0.1-0.5-0.1
	C465.8,27.4,465.6,27.4,465.9,27.4z M469.4,25c-0.7-0.1-3.9-0.1-3.5,0c0.1,0,1.1,0.1,2.2,0.1C469.3,25.1,469.8,25.1,469.4,25z
	 M465.1,27.9c7.3,0.1,25.1-0.2,22.4-0.4c-0.6-0.1-2.1-0.1-3.4-0.1c-1.2,0-2.6-0.1-3.1-0.1c-0.5-0.1-1.9-0.1-3.3-0.1
	c-1.3,0-2.4,0-2.4,0c0-0.1-1.4-0.1-3.2-0.1c-1.7,0-3.2,0.1-3.2,0.1c0,0.1,0.4,0.1,0.9,0.1c0.5,0,1.1,0,1.4,0.1
	c0.4,0.1,0.3,0.1-0.7,0.1c-0.7,0-1.6-0.1-2,0c-0.6,0-0.7,0-0.3-0.2c0.3-0.1,0.3-0.2,0.1-0.2c-0.2,0-0.6,0.1-0.8,0.2
	c-0.3,0.2-0.9,0.2-2.6,0.3C461.6,27.7,461.7,27.9,465.1,27.9z M292.1,16.7c-0.2,0-0.4,0.1-0.4,0.1c0,0.1,0.2,0.1,0.4,0.1
	c0.2,0,0.4-0.1,0.4-0.1C292.5,16.8,292.3,16.7,292.1,16.7z M309.4,15.4c-0.4,0.1,0.8,0.1,2.8,0c1.9-0.1,3.6-0.1,3.7-0.2
	C316.2,15.2,310.2,15.3,309.4,15.4z M310.3,16.9c-3.1,0-6.6,0-7.9-0.1c-3-0.1-8,0-8.3,0.1c-0.1,0.1-0.1,0.2,0.1,0.2
	c0.2,0,0.3,0,0.4-0.1c0.1-0.1,0.3-0.1,0.5-0.1c0.5,0.1,2.4,0.1,12.3,0.1c4.8,0,8.7-0.1,8.6-0.1C316,17,313.4,16.9,310.3,16.9z
	 M309.3,21.4c0.4,0,1,0,1.3,0c0.4,0,0.1-0.1-0.7-0.1C309.3,21.4,309,21.4,309.3,21.4z M317.8,19.5c-0.9,0-1.6,0.1-1.6,0.1
	c0,0.1,2.6,0,3-0.1C319.3,19.5,318.7,19.5,317.8,19.5z M356.5,15.1c-1.6,0-8.7,0-15.9,0.1c-7.2,0.1-13.7,0.1-14.4,0.1
	c-0.7,0-2.8,0-4.7,0.1c-3.1,0.1-3.2,0.1-1.7,0.2c2.9,0.1,4.6,0.2,8.6,0.2c2.2,0,5,0,6.4,0c1.3,0,4.2,0,6.4,0c2.2,0,4.4,0,5.1,0.1
	c0.6,0,2.4,0.1,3.9,0.1c1.6,0,3.5,0.1,4.4,0.1c1,0,1.6,0,1.6-0.1c0-0.1,0.1-0.1,0.3-0.1c0.3,0.1,37.7-0.3,37.5-0.4
	c-0.3-0.1-17.7-0.3-30-0.3C361.4,15.1,358,15.1,356.5,15.1z M326.9,19.4c-2.7,0-4.3,0-4.4,0.1c-0.1,0.1,0.2,0.2,0.6,0.2
	c2.8,0.1,6.5,0.2,7.9,0.2c1.6,0,1.6,0,0.8-0.3C331.2,19.5,330.3,19.5,326.9,19.4z M335.6,19.9c0.2,0,0.9,0,1.5,0c1,0,1,0,0.3-0.1
	c-0.4-0.1-1.7-0.1-2.7-0.1c-1.5,0-1.9,0-1.9,0.1C332.8,19.9,334.6,20,335.6,19.9z M333.7,25.2c0.3,0,0.7,0,0.8-0.1
	c0.1-0.1-0.1-0.1-0.6-0.1C333,25.1,332.9,25.1,333.7,25.2z M378.1,26c7,0.2,15.4,0.3,15.7,0.2c0.7-0.2-1.8-0.3-9.5-0.4
	c-1,0-5.4-0.1-9.8-0.2c-13.3-0.4-14.6-0.4-16.6-0.3c-1.1,0.1-2,0.1-2,0c0-0.1-2-0.2-4.4-0.2c-2.4,0-5.8-0.1-7.6-0.2
	c-6.8-0.2-6.5-0.2-6.4,0.1c0,0-0.2,0.1-0.4,0.1c-0.3,0-0.9,0-1.4,0l-0.9,0l1.1,0.2c1.4,0.2,4.5,0.4,10.6,0.4
	c5.8,0.1,6.9,0.1,12.8,0.3c7.7,0.2,10.2,0.2,10.5,0.1C370,25.9,372.6,25.9,378.1,26z M372.8,26.1c0.3,0,0.7,0,0.9,0
	c0.3,0,0-0.1-0.5-0.1C372.7,26.1,372.5,26.1,372.8,26.1z M401.5,22.4c7.2,0,25.4-0.2,25-0.3c-0.1,0-1.7-0.1-3.3-0.1
	c-3.4,0-6.6,0-11.3-0.1c-3.4-0.1-4.3-0.1-7.6,0c-1.2,0-6.2,0.1-11.1,0.2c-4.8,0.1-12.5,0.2-17.1,0.2c-4.5,0-7.7,0.1-7.1,0.1
	c4.5,0.2,9.5,0.2,17.3,0.1C391.3,22.4,398.1,22.3,401.5,22.4z M400.3,22.8c0.9,0,1.6,0,1.6-0.1c0-0.1-4.1-0.1-4.6,0
	C396.9,22.8,397.4,22.8,400.3,22.8z M404.2,22.7c0,0.1,0.3,0.1,0.6,0c0.3,0,0.6-0.1,0.6-0.1s-0.3,0-0.6,0
	C404.4,22.6,404.2,22.6,404.2,22.7z M424.6,17.8c-0.4,0-0.5,0-0.2,0.1c0.3,0,0.6,0,0.7,0C425.3,17.9,425,17.8,424.6,17.8z
	 M408.6,18.5c-0.1,0.1-2,0.2-4.2,0.2c-3,0.1-3.6,0.1-2.5,0.2c0.8,0,2.5,0,3.7,0c1.2,0,3.7-0.1,5.4-0.1c3.1-0.1,3.1-0.1,1.9-0.2
	C411.3,18.3,408.9,18.3,408.6,18.5z M388.4,18.5c0.4,0,4.4,0,8.9-0.1c5.1,0,7.7-0.1,6.9-0.1c-1.8-0.1-16.5,0-16.5,0.1
	C387.8,18.4,388.1,18.5,388.4,18.5z M386.2,20.5c-1.2,0-1.5,0-1.5,0.2c0,0.2,0.6,0.2,3.2,0.1c1.8,0,2.7-0.1,2.1-0.1
	c-0.6,0-1.4-0.1-1.7-0.1C388,20.6,387,20.5,386.2,20.5z M367.7,17.8c4.9-0.1,6.1-0.1,4.3-0.1c-1.3,0-4.7-0.1-7.5-0.1
	c-4.2,0-4.9,0-4.3,0.1C360.7,17.9,362.9,17.9,367.7,17.8z M362.6,20.2c1.1,0.1,2.1,0,2.4,0c0.4-0.1,0.1-0.1-0.9-0.1
	c-0.8,0-2,0-2.6,0C359.6,19.9,360.6,20.1,362.6,20.2z M356.2,22.6c-0.7,0-1,0-0.7,0.1c0.4,0,1,0,1.3,0
	C357.2,22.7,356.9,22.6,356.2,22.6z M356,17.5c-0.4,0-0.5,0-0.2,0.1c0.3,0,0.6,0,0.7,0C356.6,17.5,356.4,17.5,356,17.5z M353.4,22.6
	c-0.8,0-1.1,0-0.6,0.1c0.5,0,1.1,0,1.5,0C354.6,22.6,354.2,22.5,353.4,22.6z M355.1,17.6c-0.1,0-1.5-0.1-3.2-0.1
	c-2.2,0-2.6,0-1.5,0.1C351.9,17.7,355.4,17.7,355.1,17.6z M349,19.9c-0.4,0-0.5,0-0.2,0.1c0.3,0,0.6,0,0.7,0
	C349.7,19.9,349.4,19.8,349,19.9z M377.3,14.9c-0.8,0-1.1,0-0.6,0.1c0.5,0,1.1,0,1.5,0C378.5,14.9,378.1,14.9,377.3,14.9z
	 M373.1,14.9c-0.4,0-0.5,0-0.2,0.1c0.3,0,0.6,0,0.7,0C373.7,14.9,373.5,14.9,373.1,14.9z M365.4,14.4c-0.5,0-0.7,0-0.5,0.1
	c0.3,0,0.7,0,0.9,0C366.1,14.4,365.9,14.4,365.4,14.4z M380.6,14c-0.1,0.1-3.4,0.1-7.2,0.2c-4.6,0-6.9,0.1-6.9,0.2
	c0,0.1,3.1,0.1,9.4,0c5.2-0.1,9.3-0.2,9.1-0.2C384.6,14,380.9,13.9,380.6,14z M413.2,14.5c-15.8,0.2-14.8,0.2-14.1,0.3
	c0.4,0.1,0.2,0.1-0.9,0.1c-1.2,0-1.3,0-0.8-0.1c0.5-0.1-0.7-0.1-3.1-0.1c-2.1,0-4,0-4.1,0c-0.3-0.1-0.9-0.1-0.9,0
	c0,0.1-2.3,0.1-5.1,0.2l-5.1,0.1l3.6,0.1c2,0,6.4,0.1,9.9,0.2c4.2,0.1,7.6,0.1,9.9,0c2-0.1,5-0.1,6.7-0.1c4.1,0.1,17.2-0.1,19.7-0.3
	l1.9-0.1l-1.7,0c-1.5,0-3.7,0-12.3,0.1c-3.5,0-2.6-0.1,1.2-0.2c1.8,0,3.4-0.1,3.5-0.2C421.6,14.4,417.9,14.4,413.2,14.5z
	 M428.9,14.1c-3.2,0-5,0.1-4.7,0.2c0.4,0.1,0.4,0.1-0.2,0.2c-0.4,0,1.5,0,4.1,0c2.6-0.1,5.1-0.2,5.4-0.2
	C434,14.1,432.4,14.1,428.9,14.1z M433.1,17.6c-0.8,0-0.8,0,0.2,0.1c0.6,0,1.6,0.1,2.1,0.1c0.8,0,0.8,0-0.2-0.1
	C434.5,17.6,433.6,17.6,433.1,17.6z M432.7,22c0.4,0,0.9,0,1.1,0c0.3,0,0-0.1-0.7-0.1C432.6,21.9,432.4,22,432.7,22z M436.4,13.4
	c-0.4,0-0.5,0-0.2,0.1c0.3,0,0.6,0,0.7,0C437,13.4,436.8,13.3,436.4,13.4z M436.1,14.1c-1.2,0.1-1.3,0.1-0.7,0.2c0.4,0,1.2,0,1.9,0
	C438.7,14.1,437.9,14,436.1,14.1z M440.4,11.7c-0.4,0-0.5,0-0.2,0.1c0.3,0,0.6,0,0.7,0C441,11.7,440.8,11.7,440.4,11.7z M442.4,12.7
	c-0.3-0.1-1.6-0.1-3.6,0.1c-1.1,0.1-0.9,0.1,1.2,0.1C441.7,12.9,442.5,12.8,442.4,12.7z M441,14.7l1.9-0.1l-2.2,0
	c-1.3,0-2.1,0.1-1.9,0.1C439,14.8,439.9,14.8,441,14.7z M440.7,16.1c-0.2,0.1,4.2,0,4.6-0.1c0.1,0-0.8-0.1-2.1-0.1
	C441.9,16,440.8,16.1,440.7,16.1z M490,17.8c0.3,0,0.6,0,0.7,0c0.1,0-0.1-0.1-0.5-0.1C489.8,17.7,489.7,17.7,490,17.8z M487.2,13.7
	c1.3,0.2,4.9,0.3,4.9,0.1c0-0.1-0.4-0.2-1-0.2c-0.5-0.1-1.9-0.1-3.1-0.1l-2.1,0L487.2,13.7z M483.7,15.6c0.4,0,0.9,0,1.1,0
	c0.3,0,0-0.1-0.7-0.1C483.5,15.6,483.3,15.6,483.7,15.6z M471,15.5c0.1,0.1,0.3,0.1,0.4,0.1c0.1,0,0.2-0.1,0.2-0.1
	c0-0.1-0.2-0.1-0.4-0.1C471,15.3,470.9,15.4,471,15.5z M470.5,23.5c0.3,0,0.6,0,0.7,0c0.1,0-0.1-0.1-0.5-0.1
	C470.3,23.5,470.2,23.5,470.5,23.5z M463.4,23.4c1,0,2.6,0,3.7,0c1.4,0,1.7,0,1.2-0.1c-1-0.2-6.7-0.2-6.7,0
	C461.6,23.4,462.3,23.5,463.4,23.4z M483.8,13.9c1.7,0.1,1.9,0,1.1-0.4c-0.4-0.2-1.4-0.2-4.5-0.2c-2.3,0-4,0-3.8,0.1
	c0.1,0.1-0.2,0.1-0.8,0c-1.2-0.1-23.3,0.2-31.8,0.4c-9.2,0.2-5.1,0.3,7.6,0.2C463.8,13.9,481,13.8,483.8,13.9z M447,14.6l1.4,0
	c0.8,0,1.4-0.1,1.4-0.1c0-0.1-0.1-0.1-0.1-0.1c-0.1,0-0.7,0.1-1.4,0.1L447,14.6z M450.9,16c0.5,0,1.2,0,1.7,0c0.5,0,0.1-0.1-0.8,0
	C450.8,15.9,450.4,16,450.9,16z M450.2,28.2c0.5,0,1.2,0,1.7,0C452.3,28.1,449.7,28.1,450.2,28.2z M458.5,24.3
	c0.6-0.1,0.6-0.1-0.1-0.2c-0.4,0-1.1,0-1.5,0c-1.5-0.1-9.7-0.1-9.5,0C447.9,24.3,457.8,24.5,458.5,24.3z M445,28.2
	c0.2,0,0.3-0.1,0.2-0.1c-0.1-0.1-0.3-0.1-0.4-0.1s-0.2,0.1-0.2,0.1C444.6,28.1,444.8,28.2,445,28.2z M448.8,17.6
	c0.5-0.1-1.7-0.1-5.5,0c-4.1,0.1-6.5,0.1-6.5,0.2C436.9,17.9,447.5,17.8,448.8,17.6z M440.3,27c0.1,0-0.1-0.1-0.5-0.1
	c-0.4,0-0.5,0-0.2,0.1C439.9,27,440.2,27,440.3,27z M435.1,28.9c1,0,2.8,0,3.9-0.1c1.7-0.1,1.3-0.1-1.9-0.1
	C434.1,28.9,433.7,28.9,435.1,28.9z M434.4,28.1c0.3,0,0.6,0,0.7,0c0.1,0-0.1-0.1-0.5-0.1C434.2,28.1,434.1,28.1,434.4,28.1z
	 M431.1,29c0.3,0,0.7,0,0.9,0c0.3,0,0-0.1-0.5-0.1C431,28.9,430.8,28.9,431.1,29z M430.7,28.2c0.5,0,1.2,0,1.7,0
	c0.5,0,0.1-0.1-0.8,0C430.6,28.1,430.2,28.2,430.7,28.2z M429,27.2c0.5,0,7.8-0.1,8-0.2c0.3-0.1-4.3-0.1-6.3,0
	C429.6,27.1,428.8,27.2,429,27.2z M431.1,22.1c0.4-0.1-0.1-0.1-1.4-0.1c-1.1,0-2,0-2.1,0.1C427.3,22.1,430.5,22.2,431.1,22.1z
	 M429.3,17.8c0.1,0-0.7-0.1-1.8,0c-1.1,0-1.9,0.1-1.7,0.1C426,18,429,17.9,429.3,17.8z M423.5,28c1.9,0,3.5,0,3.5-0.1
	c0-0.1-1.8-0.1-4.3,0l-2.6,0.1L423.5,28z M403.1,28.4c2.7,0,4.8-0.1,4.7-0.1c-0.4-0.1-9.7-0.1-9.7,0.1
	C398.2,28.4,399.9,28.4,403.1,28.4z M395.5,28.4c0.4,0.1,0.6,0.1,0.9,0c0.3-0.1,0.2-0.2-0.5-0.2C395.2,28.2,395.1,28.3,395.5,28.4z
	 M390.9,28.4c0.5,0,1.2,0,1.7,0c0.5,0,0.1-0.1-0.8,0C390.9,28.3,390.5,28.3,390.9,28.4z M371,45c0.3,0,0.7,0,0.9,0
	c0.3,0,0-0.1-0.5-0.1C370.9,45,370.7,45,371,45z M360.9,28.1c0.4,0,0.1-0.1-0.7-0.1c-0.7,0-1,0-0.7,0.1
	C360,28.2,360.6,28.2,360.9,28.1z M358.8,45.1c0.6,0,1.4,0,1.9,0c0.5,0,0-0.1-1,0C358.6,45,358.2,45.1,358.8,45.1z M302.5,26.8
	c7.1,0.1,15.9,0.3,20.1,0.4c1.4,0,3.8,0.1,5.3,0.1c1.4,0,3.7,0.1,5.1,0.1c1.3,0.1,3.9,0.1,5.6,0.1c5.1,0,11.8,0.1,12.4,0.2
	c0.3,0,1.7,0.1,3,0.1c1.8,0,2.3,0,1.8-0.1c-1-0.2-0.4-0.4,0.8-0.2c0.6,0.1,3.1,0.1,5.7,0.1c2.6,0,7.1,0,10.1,0.1
	c5.1,0.1,5.4,0.1,5.8-0.1c0.3-0.1,0.7-0.2,1-0.1c0.4,0.1,0.4,0.1,0,0.2c-0.8,0.2,13.6,0.3,21.2,0.2c4.6-0.1,6.3-0.2,2.5-0.2
	c-1,0-2.2-0.1-2.5-0.1c-0.5-0.1,1.2-0.1,6.3-0.1c3.8,0,7.7,0,8.5-0.1c0.9,0,1.6,0,1.6,0.1c0,0.2,10,0,10.5-0.2
	c0.4-0.1,0.2-0.2-0.8-0.2c-0.7,0-2,0-2.8,0c-0.8,0-4.4,0-7.9,0c-3.5,0-8.1,0-10.3,0c-2.2,0-6.7,0-10.1,0c-12.9,0.1-21.4,0-30.6-0.1
	c-1.2,0-3.7,0-5.4-0.1c-5.7-0.1-12.9-0.2-13.7-0.3c-0.6-0.1-0.7-0.1-0.2,0.1c0.5,0.1,0.4,0.1-0.4,0.1c-0.5,0-2.9-0.1-5.3-0.1
	c-4.2,0-4.3,0-2.4,0.2c1,0.1,2.8,0.2,3.9,0.2c3.8,0.1,4.9,0.1,4.9,0.3c0,0.1-0.1,0.1-0.3,0.1c-0.2,0-2-0.1-4-0.1
	c-2,0-5.2-0.1-7.1-0.2c-2.9-0.1-8.1-0.3-11.1-0.4c-0.5,0-1.2-0.1-1.5-0.1c-0.7-0.1-4.9-0.2-8.1-0.2c-1.2,0-5.5,0-9.6,0
	c-4,0-7.9,0-8.6-0.1c-0.7,0-2,0-2.8,0.1C291.2,26.7,290.5,26.6,302.5,26.8z M289.3,44.9c0.3,0,0.6,0,0.7,0c0.1,0-0.1-0.1-0.5-0.1
	C289.1,44.8,289,44.9,289.3,44.9z M281,26.5c0.3,0,0.6,0,0.7,0c0.1,0-0.1-0.1-0.5-0.1C280.8,26.5,280.7,26.5,281,26.5z M287.8,17.3
	c0.1,0-2.4-0.1-5.7-0.1c-3.3,0-6.5,0-7.1,0c-0.7,0-1.2,0-1.2,0.1C273.8,17.4,287.3,17.5,287.8,17.3z M270.9,17
	c-0.6,0-1.1,0.3-0.8,0.4c0.3,0.1,1.4-0.1,1.4-0.2C271.5,17.1,271.2,17,270.9,17z M266.5,20.9c0.9,0,2.5,0.1,3.6,0l1.9,0l-1.9-0.1
	c-1,0-2.6-0.1-3.6,0l-1.7,0L266.5,20.9z M261.6,17.2c-0.1-0.1-1.1-0.1-2.2-0.1c-1.1,0-1.9,0-1.8,0C258,17.2,261.8,17.3,261.6,17.2z
	 M483.1,49.6c2.3,0,3.7-0.2,3.7-0.3c0-0.2-2.5-0.1-2.8,0.1c-0.1,0.1-0.6,0.1-1.1,0.1c-0.5,0-1.1,0-1.4,0.1
	C481.2,49.6,481.8,49.6,483.1,49.6z M476.1,49.5c0.2,0,0.9,0,1.8,0c0.8,0,1.5-0.1,1.5-0.2c0-0.1-0.9-0.1-1.9-0.1
	c-1.2,0-1.8,0.1-1.8,0.2C475.7,49.4,475.9,49.5,476.1,49.5z M470.8,49.7c3.8,0,5.4-0.2,3.6-0.3c-1.3-0.1-9.3,0-9.3,0.2
	C465.1,49.7,466.5,49.7,470.8,49.7z M459.6,48.6c-1.9,0-3.2,0.1-3.2,0.2c0,0.1,1.3,0.1,3.2,0.1c1.9,0,3.2-0.1,3.2-0.2
	C462.8,48.7,461.5,48.6,459.6,48.6z M460,49.6c1.2,0.1,2.1,0.1,2.6,0c0.6-0.1,0.3-0.1-1.8-0.1l-2.6,0L460,49.6z M454.7,49.5
	c0.6,0,1.4,0,1.9,0c0.5,0,0-0.1-1,0C454.5,49.4,454.1,49.4,454.7,49.5z M449.7,49.9c0.9,0,0.9,0,0.3-0.1c-1-0.1-1.3-0.1-1.3,0
	C448.6,49.9,449.1,49.9,449.7,49.9z M443.3,50c3,0,4.2,0,4.2-0.1c0-0.1-1.4-0.1-4.4-0.1c-2.4,0-4.3,0.1-4.2,0.1
	C439,49.9,441,50,443.3,50z M431.9,50c0.1,0.1,0.3,0.1,0.4,0.1c0.1,0,0.2-0.1,0.2-0.1c0-0.1-0.2-0.1-0.4-0.1
	C431.9,49.8,431.8,49.9,431.9,50z M429.4,50c0.3,0,0.7,0,0.9,0c0.3,0,0-0.1-0.5-0.1C429.4,49.9,429.1,49.9,429.4,50z M432.8,48.8
	c4,0.1,21,0.1,20.6-0.1c-0.4-0.1-6.4-0.2-13-0.2c-3.5,0-7.7,0-9.3,0C427,48.4,428.2,48.6,432.8,48.8z M425.5,48.8
	c-0.4,0-0.5,0-0.2,0.1c0.3,0,0.6,0,0.7,0C426.1,48.8,425.8,48.7,425.5,48.8z M423.4,50.1c1.4,0.1,2.7,0,3.2,0
	c0.7-0.1,0.7-0.1-0.5-0.1c-0.7,0-2.2,0-3.4,0C420,49.8,420.5,49.9,423.4,50.1z M374.9,47.8c0.3,0.1,1.5,0.2,2.8,0.2
	c5.3,0.2,9.3,0.2,12.3,0.2c1.7,0,3.3,0.1,3.4,0.1c0.3,0.2,5.3,0.3,13.2,0.3c3.4,0,6.6,0.1,7.1,0.1c1.5,0.1,8.2,0.1,8.6-0.1
	c0.2-0.1-1.8-0.1-4.4-0.2c-2.6-0.1-5.4-0.1-6.1-0.1c-0.7,0-4-0.1-7.3-0.1c-3.3,0-7.1-0.1-8.4-0.2c-1.3-0.1-4.6-0.2-7.2-0.2
	c-2.6,0-5.9-0.1-7.4-0.1C375.4,47.6,374.4,47.6,374.9,47.8z M217.2,17.7c-0.3-0.1-0.9-0.1-1.3-0.1c-0.6,0-0.7,0-0.2,0.1
	c0.3,0.1,0.9,0.1,1.3,0.1C217.6,17.8,217.6,17.8,217.2,17.7z M219.3,19.4c-2.2-0.1-8.8-0.2-7.9,0c0.4,0.1,2.7,0.1,5.1,0.1
	C219.2,19.4,220.3,19.4,219.3,19.4z M237.8,45.9c0.7,0,1.8,0.1,2.4,0.1c0.8,0,1.2,0,1.2-0.1c0-0.1-0.8-0.2-1.8-0.2
	c-1,0-2.1-0.1-2.4-0.1c-0.4,0-0.7,0-0.7,0.1C236.5,45.7,237.1,45.8,237.8,45.9z M237,17.6c4,0,6.7,0,6.8,0.1c0.3,0.1,1.5,0.1,7.6,0
	c5-0.1,6.4-0.3,3.8-0.3c-1,0-2.4-0.1-3-0.1c-0.7-0.1-1.2,0-1.3,0.1c-0.2,0.1-1,0.2-2.5,0.2c-1.9,0-2.1,0-1.4-0.2
	c0.7-0.1,0.3-0.1-1.7-0.1c-1.4,0-4.4,0-6.8,0c-2.7,0-4.2,0-4,0.1c0.1,0.1-1.4,0.1-4.2,0.1c-4.5,0-5.6,0.1-1.9,0.2
	C229.6,17.6,233.4,17.6,237,17.6z M231.2,19.4c0.3,0,0-0.1-0.7-0.1c-0.6,0-0.8,0-0.5,0.1C230.5,19.4,231,19.4,231.2,19.4z
	 M229.3,21.4c0.3,0,0.7,0,0.9,0c0.3,0,0-0.1-0.5-0.1C229.2,21.3,229,21.4,229.3,21.4z M223.5,19.4c2.2,0.1,5.9,0.1,5.6-0.1
	c-0.1-0.1-1.7-0.1-3.7-0.1C222.5,19.3,222.2,19.4,223.5,19.4z M209.7,21.2c0.7,0.2,3.3,0.3,7.3,0.3l3.6-0.1l-2.4-0.1
	C214.6,21,209.2,21,209.7,21.2z M210.1,18c-0.7-0.2-2.2-0.1-2.4,0c-0.1,0.1,0.4,0.1,1.4,0.1C210.2,18.2,210.5,18.1,210.1,18z
	 M206.5,45.2c0.3,0.1,1.2,0.1,2.1,0.1c1.2,0,1.3-0.1,0.7-0.1C208.2,45,205.8,45.1,206.5,45.2z M205.2,24.5c0.6,0.1,2.1,0.2,3,0.1
	c0.3,0,0.1-0.1-0.6-0.1C206,24.4,204.5,24.4,205.2,24.5z M144.1,21.4c0.3,0,0.6,0,0.6-0.1c0-0.1-0.3-0.1-0.6-0.1
	c-0.3,0-0.6,0-0.6,0.1C143.5,21.3,143.8,21.4,144.1,21.4z M136.6,18.6c-0.5,0-0.7,0-0.5,0.1c0.3,0,0.7,0,0.9,0
	C137.3,18.6,137.1,18.6,136.6,18.6z M135,20.2c-0.1,0.1,0.8,0.1,2,0.1c2.5,0,3-0.1,0.8-0.2C136,20,135.3,20,135,20.2z M139.8,18.7
	c-0.6,0-0.8,0-0.5,0.1c0.4,0,0.9,0,1.1,0C140.7,18.7,140.4,18.7,139.8,18.7z M146.5,18.6c-0.4,0-0.5,0-0.2,0.1c0.3,0,0.6,0,0.7,0
	C147.1,18.6,146.9,18.6,146.5,18.6z M151.2,18.9c-0.5-0.1-3.7-0.2-3.3,0c0.1,0,1,0.1,2,0.1C151.3,19,151.7,19,151.2,18.9z
	 M148.3,20.5c-4-0.2-5-0.2-3.5,0l1.1,0.2l-1.5,0c-2.2,0-7.7,0.3-6.5,0.4c1.7,0.1,6.8,0,7.6-0.2c0.8-0.2,1.9-0.2,5.1-0.1
	C153.7,20.9,151.7,20.6,148.3,20.5z M147.4,43.6l0.9,0.2c0.9,0.2,3.4,0.3,3.4,0.1c0-0.1-0.5-0.2-1.2-0.2c-0.7-0.1-1.6-0.1-2.2-0.1
	L147.4,43.6z M157.2,20.9c-0.4-0.1-1.5-0.2-2.3-0.2c-1.3,0-1.5,0-1.4,0.1c0.1,0.1,0.5,0.2,1,0.1c0.4-0.1,0.9,0,1,0.1
	c0.2,0.1,0.8,0.1,1.4,0.1C157.9,21.1,157.9,21.1,157.2,20.9z M157.5,44.6l1.5,0.2c1.7,0.2,4.3,0.2,3.7,0c-0.2-0.1-1.5-0.1-2.8-0.2
	L157.5,44.6z M165.5,21.7c-0.3,0-0.5,0-0.5-0.1c0-0.1-0.6-0.2-1.3-0.2c-0.7,0-1.4-0.1-1.5-0.2c-0.3-0.2-0.9-0.1-0.9,0.1
	c0,0.1,0.4,0.3,0.9,0.4c1,0.2,4.6,0.4,4.2,0.2C166.1,21.8,165.8,21.7,165.5,21.7z M172.7,19.4c-0.7,0-1,0-0.7,0.1c0.4,0,1,0,1.3,0
	C173.7,19.4,173.4,19.4,172.7,19.4z M182.6,19.3c-0.1-0.1-0.6-0.1-1.1-0.1c-0.5,0-2.3-0.1-4-0.2c-3.6-0.2-3.8-0.3-3.5-0.1
	c0.1,0.1,1.1,0.2,2.2,0.3C178.5,19.4,182.9,19.5,182.6,19.3z M178,21.3c-2.2-0.1-5.2-0.2-6.8-0.2c-1.6-0.1-3.4-0.1-4.1-0.1
	c-1.1,0-1.2,0-0.8,0.2c0.3,0.1,0.6,0.2,0.8,0.2c0.2,0,1,0.1,1.8,0.3c0.8,0.2,1.7,0.3,2,0.2c0.3,0,3.2-0.1,6.5-0.1
	c3.3,0,6.2,0,6.5-0.1C185,21.7,181.9,21.4,178,21.3z M174.2,46.5l-0.8,0l0.9,0.2c0.9,0.2,1.5,0.2,1-0.1
	C175.2,46.5,174.7,46.5,174.2,46.5z M178.1,23.4c0,0.1,5.3,0.7,5.7,0.6c0.2,0-0.5-0.2-1.6-0.4C180.5,23.4,178.1,23.2,178.1,23.4z
	 M198.1,15.9c-0.4,0-0.5,0-0.2,0.1c0.3,0,0.6,0,0.7,0C198.7,15.9,198.5,15.9,198.1,15.9z M200.3,18c-2.3-0.2-9.7-0.2-9.9,0
	c-0.5,0.3,4.7,0.4,10.1,0.1l1.1-0.1L200.3,18z M198.7,23.8c0.3,0,0.6,0,0.7,0c0.1,0-0.1-0.1-0.5-0.1
	C198.5,23.7,198.4,23.8,198.7,23.8z M204.5,24.3c0.2,0-0.3-0.1-1.3-0.2c-1-0.1-1.7-0.1-1.7,0C201.4,24.2,203.8,24.3,204.5,24.3z
	 M197.1,24.8c1,0.2,4.4,0.3,4.4,0.1c0-0.1-0.3-0.1-0.7-0.1c-0.4,0-1.5,0-2.5,0C196.8,24.7,196.6,24.7,197.1,24.8z M186.1,23.9
	c0.8,0.1,1.7,0.2,2,0.3c0.3,0.1,1.8,0.2,3.3,0.3c2.9,0.1,7.6,0,7.2-0.1c-0.7-0.2-8.1-0.8-10.4-0.8c-1.4,0-3-0.1-3.6-0.1
	C182.9,23.3,184.4,23.8,186.1,23.9z M186.1,48.5c1.1,0.1,3.7,0.2,5.6,0.2c2.2,0,3.8,0.1,4.1,0.2c0.3,0.1,0.8,0.2,1.1,0.2
	c0.3,0,1,0,1.5,0.1c1.3,0.1,1-0.2-0.3-0.3c-1.9-0.2-1-0.4,1.6-0.3c5,0.2,10.7,0.4,12.5,0.4c3.7,0.2,4.7,0.2,4.9,0.1
	c0.1-0.1-0.1-0.1-0.5-0.1c-0.4,0-1.6-0.1-2.6-0.2c-2.4-0.2-10.1-0.6-11.8-0.6c-0.7,0-1.8,0-2.4,0c-0.6,0-1.5,0-2,0
	c-0.5,0-0.8-0.1-0.6-0.1c0.1-0.1,0-0.1-0.3-0.1c-0.3,0-0.8,0-1.1-0.1c-0.4,0-0.6,0-0.6,0.1c0,0.2-0.6,0.2-4.2,0.3
	c-2.3,0-4.8,0.1-5.5,0.1C184.1,48.3,184.1,48.3,186.1,48.5z M188.7,47.8c2.2,0,4.2,0.1,4.5,0.1c0.3,0,0.6,0,0.7-0.1
	c0.1-0.1-0.6-0.2-5.5-0.5c-1.8-0.1-5.2-0.3-7.6-0.5c-5-0.3-4.4-0.3-4.8-0.1c-0.4,0.2,0.4,0.4,3.3,0.6c1.5,0.1,3.4,0.2,4.1,0.3
	C184.1,47.7,186.5,47.8,188.7,47.8z M182.2,47.9c0.1,0-0.3-0.1-0.8-0.2c-1.3-0.1-2.1-0.1-2.1,0C179.3,47.8,181.9,48,182.2,47.9z
	 M139.3,45.1c-0.6-0.2-1.3-0.3-2.6-0.4c-1,0-1.8,0-1.8,0.1c0,0.1,4.9,0.8,5.1,0.7C140,45.5,139.7,45.3,139.3,45.1z M145,47.1
	c1.6,0,2.5,0.1,2,0.1c-3.1,0.1,3.4,0.4,9.8,0.5c0.9,0,2.6,0.1,3.7,0.1c3.4,0.2,2.8,0-1-0.4c-0.9-0.1-1.9-0.1-2.4-0.1
	c-0.4,0-0.9,0-1,0c-0.1-0.1-0.6-0.1-1-0.1c-0.5,0-2.4-0.1-4.2-0.3c-3.5-0.3-9.7-0.5-10.6-0.3C139.5,46.9,141.8,47.1,145,47.1z
	 M140.7,44.9c-0.3,0-0.5,0.1-0.3,0.1c0.1,0.1,0.4,0.1,0.6,0.1c0.2,0,0.4-0.1,0.3-0.1C141.2,44.9,141,44.9,140.7,44.9z M141.3,46.1
	c0,0.2,1.9,0.3,2.4,0.1c0.3-0.1,0.2-0.1-0.4-0.1c-0.4,0-1.1,0-1.4-0.1C141.6,46,141.3,46.1,141.3,46.1z M141.7,45.3
	c0,0.3,8.2,0.9,12.1,0.8c0.9,0,2,0.1,2.4,0.1c0.4,0.1,2.3,0.2,4.1,0.3c2,0.1,3.6,0.2,4,0.3c0.4,0.1,2.2,0.3,5.5,0.4
	c2.7,0.1,5.3,0.2,5.7,0.3c0.5,0.1,1.3,0.2,1.9,0.1c1.2-0.1,1.6-0.4,0.4-0.4c-0.5,0-1.9-0.1-3.1-0.3c-1.2-0.2-2.9-0.3-3.6-0.3
	c-0.7,0-1.9,0-2.6-0.1c-0.7-0.1-2.6-0.2-4.1-0.3c-1.5-0.1-3.5-0.2-4.3-0.3c-0.8-0.1-2.4-0.2-3.4-0.2c-1,0-3-0.1-4.3-0.2
	c-1.3-0.1-2.9-0.1-3.6-0.1c-0.7,0.1-1.9,0-3.2-0.1C143.7,45.2,141.6,45.1,141.7,45.3z M111.4,25.6c1,0.1,1.7,0.1,1.7,0
	c0-0.1-0.6-0.1-1.2-0.1C110.8,25.5,110.7,25.5,111.4,25.6z M105,25.9l1.1-0.1l-1.1-0.2c-1.5-0.2-4.3-0.3-4.3-0.1
	C100.7,25.8,103.7,26,105,25.9z M100.4,39.9c0.3,0,0.6,0,0.7,0c0.1,0-0.1-0.1-0.5-0.1C100.2,39.8,100.1,39.9,100.4,39.9z M98.9,39.8
	c0.3,0,0.6,0,0.7,0c0.1,0-0.1-0.1-0.5-0.1C98.7,39.7,98.6,39.7,98.9,39.8z M89.1,21.5c-2-0.3-2.6-0.3-1.5,0c0.9,0.3,3.1,0.5,3.1,0.4
	C90.7,21.8,90,21.7,89.1,21.5z M91.9,22.6c-0.4,0-0.8,0-0.7,0.1c0,0.1,0.3,0.1,0.8,0.1c0.4,0,0.7,0,0.7-0.1
	C92.6,22.7,92.3,22.6,91.9,22.6z M95.6,40.5c0.2,0,0.6,0,0.9,0.1c0.3,0,0.6,0,0.6-0.1c0-0.1-0.4-0.2-1-0.3c-0.8-0.1-0.9-0.1-0.9,0.1
	C95.2,40.4,95.4,40.5,95.6,40.5z M94.1,25.9c0.3,0.2,2.8,0.3,3.1,0.2c0.1-0.1,0-0.1-0.3-0.2C96.2,25.7,93.8,25.7,94.1,25.9z
	 M94.2,24.6c1.3,0,2.5,0.1,2.6,0c0.4-0.2-0.8-0.6-1.9-0.6c-2.4-0.1-6.1-0.1-7,0c-0.8,0.1-0.8,0.1,0.4,0.1c1.9,0,5.7,0.3,4.5,0.3
	C92.2,24.5,92.9,24.5,94.2,24.6z M88.7,35.8c0.6,0,1,0,1-0.1c0-0.1-0.5-0.1-1.2-0.1C87.1,35.7,87.2,35.7,88.7,35.8z M87.9,35.5
	c0.7,0,0.7,0,0.3-0.1c-0.7-0.2-1.1-0.1-1.1,0C87,35.5,87.4,35.5,87.9,35.5z M89.5,26.8c3.3,0.1,3.9,0,2.5-0.2
	c-0.5-0.1-1.9-0.2-3.2-0.2c-1.9,0-2.4,0-2.4,0.2C86.5,26.7,87.2,26.7,89.5,26.8z M80.9,27.5c0.3,0,0.6,0,0.7,0
	c0.1,0-0.1-0.1-0.5-0.1C80.6,27.4,80.6,27.4,80.9,27.5z M84.9,25.9c-0.3-0.1-1.6-0.1-2.8-0.1c-1.8,0-2,0.1-1.1,0.1
	C82.8,26.1,85.6,26,84.9,25.9z M79.9,35.3c0.5,0,1.1,0.1,1.4,0.2c0.3,0.1,0.8,0.1,1.3,0c0.6-0.1,0.7-0.1,0.3-0.2
	c-0.3-0.1-1.3-0.1-2.2-0.1C79.6,35.3,79.3,35.3,79.9,35.3z M20.7,33.2c-0.3,0-0.6,0-0.6,0.1c0,0.1,0.3,0.1,0.6,0.1
	c0.3,0,0.6,0,0.6-0.1C21.3,33.3,21,33.2,20.7,33.2z M47.9,34.8c-1.1,0-2.5-0.1-3.2-0.1c-1.1,0-1.2,0-0.8,0.2
	c0.3,0.1,0.9,0.2,1.5,0.2c0.6,0,1.2,0.2,1.3,0.3c0.2,0.2,0.5,0.2,1.7,0.2c1.2,0,1.6-0.1,1.7-0.4C50.4,34.9,50.2,34.9,47.9,34.8z
	 M72.3,35.2c0.3,0.1,0.6,0.1,1.1,0c0.6-0.1,0.5-0.2-0.4-0.1C72.2,35.1,72,35.1,72.3,35.2z M64.7,29.1c0.6,0,1.6,0.1,2.1,0.1
	c0.9,0.1,0.9,0.1-0.2-0.2c-1.2-0.3-4-0.4-3.9-0.2C62.6,29,63.1,29,64.7,29.1z M62,28.9c0.1,0,0.1-0.1,0-0.2c-0.3-0.1-1.3-0.1-1.3,0
	C60.8,28.8,61.7,29,62,28.9z"/>
</svg>
